<?xml version="1.0" standalone="no"?>
<!DOCTYPE svg PUBLIC "-//W3C//DTD SVG 1.1//EN" "http://www.w3.org/Graphics/SVG/1.1/DTD/svg11.dtd" >
<svg xmlns="http://www.w3.org/2000/svg" xmlns:xlink="http://www.w3.org/1999/xlink" version="1.1">
<metadata>
Created by FontForge 20170731 at Sun Mar  4 17:31:05 2018
 By Aleksey,,,
Copyright (c) 2018 Monotype Imaging Inc. All rights reserved.
</metadata>
<defs>
<font id="NeuePlak-NarrowBlack" horiz-adv-x="0" >
  <font-face 
    font-family="Neue Plak Narrow Black"
    font-weight="800"
    font-stretch="semi-condensed"
    units-per-em="1000"
    panose-1="2 11 10 6 3 2 2 2 2 4"
    ascent="800"
    descent="-200"
    x-height="506"
    cap-height="706"
    bbox="-698 -208 859 1132"
    underline-thickness="50"
    underline-position="-150"
    unicode-range="U+000D-FEFF"
  />
<missing-glyph horiz-adv-x="579" 
d="M33 706h513v-706h-513v706zM383 139v428h-187v-428h187z" />
    <glyph glyph-name=".notdef" horiz-adv-x="579" 
d="M33 706h513v-706h-513v706zM383 139v428h-187v-428h187z" />
    <glyph glyph-name=".null" 
 />
    <glyph glyph-name="nonmarkingreturn" horiz-adv-x="333" 
 />
    <glyph glyph-name="NULL" 
 />
    <glyph glyph-name="NULL" 
 />
    <glyph glyph-name="CR" unicode="&#xd;" horiz-adv-x="154" 
 />
    <glyph glyph-name="space" unicode=" " horiz-adv-x="154" 
 />
    <glyph glyph-name="exclam" unicode="!" horiz-adv-x="296" 
d="M66 706h164l-22 -487h-121zM85 7.5q-25 23.5 -25 62.5t24.5 62.5t64.5 23.5q39 0 63 -23.5t24 -62.5t-24 -62.5t-63 -23.5t-64 23.5z" />
    <glyph glyph-name="quotedbl" unicode="&#x22;" horiz-adv-x="444" 
d="M51 706h148l-20 -274h-109zM245 706h148l-20 -274h-109z" />
    <glyph glyph-name="numbersign" unicode="#" horiz-adv-x="634" 
d="M509 419l-18 -132h89l-19 -128h-89l-25 -175h-131l25 175h-105l-25 -175h-130l25 175h-91l19 128h90l19 132h-90l19 128h89l25 175h130l-25 -175h106l25 175h131l-25 -175h90l-19 -128h-90zM378 419h-105l-19 -132h106z" />
    <glyph glyph-name="dollar" unicode="$" horiz-adv-x="533" 
d="M512.5 264.5q4.5 -22.5 4.5 -58.5q0 -34 -4 -58t-14 -46q-24 -52 -77 -82t-129 -35v-68h-57v68q-78 5 -128.5 35.5t-73.5 79.5q-10 22 -14 47.5t-4 66.5h175q0 -27 1.5 -41t5.5 -24q12 -26 42 -35v179q-5 1 -10 3t-12 4t-32 11q-56 21 -90 45.5t-50 60.5q-9 19 -13 41
t-4 54q0 31 4 53.5t13 43.5q22 48 71 77.5t119 34.5v68h59v-68q69 -5 117 -32.5t70 -75.5q9 -22 13 -46t4 -67h-161q0 27 -1.5 39.5t-5.5 21.5q-12 25 -41 34v-158l48 -16q66 -24 105 -49.5t55 -63.5q10 -21 14.5 -43.5zM211.5 470.5q11.5 -8.5 29.5 -16.5v144
q-19 -4 -32 -13t-18 -22q-3 -5 -4 -12.5t-1 -19.5q0 -14 1.5 -23t5.5 -17q7 -12 18.5 -20.5zM346 162.5q1 10.5 1 25.5q0 16 -1.5 26t-5.5 18q-12 24 -51 42v-163q19 3 32.5 11.5t19.5 22.5q4 7 5 17.5z" />
    <glyph glyph-name="percent" unicode="%" horiz-adv-x="590" 
d="M71 424q-29 15 -42 45q-8 19 -11.5 39t-3.5 53t3.5 53.5t11.5 38.5q13 30 42.5 45.5t70.5 15.5q42 0 70 -15.5t42 -45.5q9 -18 12.5 -38t3.5 -54q0 -33 -3.5 -53t-12.5 -39q-27 -60 -112 -60q-42 0 -71 15zM452 706h99l-414 -706h-99zM159.5 495.5q7.5 4.5 10.5 11.5
t4 19.5t1 34.5q0 21 -1 34.5t-4 20.5q-4 8 -10.5 11.5t-17.5 3.5t-17.5 -3.5t-10.5 -11.5q-3 -7 -4 -20.5t-1 -34.5q0 -22 1 -34.5t4 -19.5t10 -11.5t18 -4.5q10 0 17.5 4.5zM377 8.5q-29 15.5 -43 45.5q-8 18 -11.5 38.5t-3.5 53.5t3.5 53t11.5 39q14 30 43 45t71 15
t70.5 -15t41.5 -45q9 -19 12.5 -38.5t3.5 -53.5t-3.5 -54t-12.5 -38q-13 -30 -41.5 -45.5t-70.5 -15.5t-71 15.5zM465.5 80q7.5 4 10.5 11t4 19.5t1 35.5q0 20 -1 33.5t-4 20.5q-4 8 -10.5 11.5t-17.5 3.5q-22 0 -28 -15q-3 -7 -4 -20.5t-1 -33.5q0 -23 1 -35.5t4 -19.5
q7 -15 28 -15q10 0 17.5 4z" />
    <glyph glyph-name="ampersand" unicode="&#x26;" horiz-adv-x="587" 
d="M566 0q-87 0 -154 40q-68 -50 -170 -50q-75 0 -124.5 24.5t-73 66t-23.5 94.5q0 68 38 119.5t105 98.5q-32 56 -46 96.5t-14 77.5q0 46 20.5 80.5t64.5 54.5t110 20q87 0 138.5 -36t51.5 -113q0 -39 -21 -73.5t-52 -62t-80 -63.5l74 -131q21 49 37 97l115 -38
q-26 -91 -58 -150q29 -11 62 -13v-139zM255 530.5q8 -22.5 25 -55.5q33 27 50 51.5t17 52.5q0 22 -12 35t-35 13q-26 0 -39.5 -15.5t-13.5 -40.5q0 -18 8 -40.5zM206 131q22 -21 60 -21q30 0 57 16l-15 23l-80 135q-44 -46 -44 -95q0 -37 22 -58z" />
    <glyph glyph-name="quotesingle" unicode="'" horiz-adv-x="250" 
d="M51 706h148l-20 -274h-109z" />
    <glyph glyph-name="parenleft" unicode="(" horiz-adv-x="319" 
d="M85 40.5q-30 113.5 -30 254.5q0 142 30 255t91 231h130q-59 -116 -89.5 -233.5t-30.5 -252.5t30.5 -252.5t89.5 -233.5h-130q-61 118 -91 231.5z" />
    <glyph glyph-name="parenright" unicode=")" horiz-adv-x="319" 
d="M13 -191q59 116 89.5 233.5t30.5 252.5t-30.5 252.5t-89.5 233.5h130q61 -118 91 -231t30 -255q0 -141 -30 -254.5t-91 -231.5h-130z" />
    <glyph glyph-name="asterisk" unicode="*" horiz-adv-x="371" 
d="M59 470l78 73l-107 13l32 97l94 -53l-21 106h102l-21 -106l94 53l31 -97l-106 -13l78 -73l-83 -60l-44 98l-45 -98z" />
    <glyph glyph-name="plus" unicode="+" horiz-adv-x="505" 
d="M469 241h-157v-161h-119v161h-156v116h156v161h119v-161h157v-116z" />
    <glyph glyph-name="comma" unicode="," horiz-adv-x="260" 
d="M80 160h140l-90 -331h-108z" />
    <glyph glyph-name="hyphen" unicode="-" horiz-adv-x="339" 
d="M37 363h265v-128h-265v128z" />
    <glyph glyph-name="period" unicode="." horiz-adv-x="302" 
d="M88 7.5q-25 23.5 -25 62.5t24.5 62.5t64.5 23.5q39 0 63 -23.5t24 -62.5t-24 -62.5t-63 -23.5t-64 23.5z" />
    <glyph glyph-name="slash" unicode="/" horiz-adv-x="456" 
d="M286 722h145l-261 -772h-146z" />
    <glyph glyph-name="zero" unicode="0" horiz-adv-x="567" 
d="M61 116q-18 41 -25.5 94t-7.5 143t7.5 143t25.5 94q57 132 222 132t222 -132q18 -41 26 -94.5t8 -142.5t-8 -142.5t-26 -94.5q-57 -132 -222 -132t-222 132zM330 138q18 11 27 32q8 18 10 53t2 130t-2 130t-10 54q-9 20 -27 31t-47 11q-55 0 -74 -42q-7 -19 -9.5 -56
t-2.5 -128t2.5 -128t9.5 -55q19 -43 74 -43q29 0 47 11z" />
    <glyph glyph-name="one" unicode="1" horiz-adv-x="310" 
d="M103 558h-96l29 148h226v-706h-159v558z" />
    <glyph glyph-name="two" unicode="2" horiz-adv-x="500" 
d="M3 3l244 351q27 38 40.5 61t20 43.5t6.5 44.5q0 18 -1.5 27.5t-5.5 16.5q-7 17 -23 26.5t-39 9.5q-48 0 -65 -38q-6 -12 -8.5 -30t-2.5 -50h-154q0 49 6 82.5t18 62.5q25 56 78.5 84t130.5 28q78 0 132.5 -29t79.5 -86q19 -41 19 -102q0 -50 -14.5 -91.5t-48.5 -87.5
q-51 -72 -143 -184h211v-142h-481v3z" />
    <glyph glyph-name="three" unicode="3" horiz-adv-x="519" 
d="M489.5 258.5q3.5 -20.5 3.5 -55.5q0 -40 -4 -63.5t-13 -44.5q-52 -111 -221 -111q-82 0 -137.5 26.5t-78.5 80.5q-13 29 -19 66.5t-6 93.5h150q0 -35 3 -56t9 -36q8 -19 26.5 -29.5t45.5 -10.5q56 0 73 39q4 9 5.5 22t1.5 36q0 21 -2 33.5t-6 22.5q-11 23 -34.5 32.5
t-59.5 9.5h-19v112h18q36 0 57.5 9.5t31.5 29.5q4 10 5.5 19t1.5 27q0 20 -1.5 31t-5.5 20q-17 35 -66 35q-52 0 -68 -38q-6 -14 -8 -58h-149q0 39 4 65.5t14 48.5q24 55 82 81t134 26q80 0 132 -28.5t75 -77.5q9 -20 12.5 -41t3.5 -53q0 -27 -3 -43t-10 -32
q-12 -26 -33 -44.5t-54 -29.5q73 -21 98 -77q8 -17 11.5 -37.5z" />
    <glyph glyph-name="four" unicode="4" horiz-adv-x="584" 
d="M574 143h-80v-143h-158v143h-349v2l215 561h292v-426h80v-137zM336 280v368h-1l-129 -368h130z" />
    <glyph glyph-name="five" unicode="5" horiz-adv-x="515" 
d="M121.5 12q-54.5 28 -79.5 85q-13 27 -18.5 62.5t-5.5 86.5h154q0 -34 2.5 -54t8.5 -34q9 -20 26 -30t43 -10q51 0 70 42q5 10 7 24t2 43t-2.5 45.5t-7.5 29.5q-16 33 -55.5 47.5t-99.5 14.5q-54 0 -119 -9l52 351h378l-28 -141h-220l-16 -105q38 8 74 8q68 0 116 -27
t71 -78q12 -25 17 -55t5 -78q0 -47 -5 -77.5t-16 -54.5q-26 -57 -80 -85.5t-134 -28.5q-85 0 -139.5 28z" />
    <glyph glyph-name="six" unicode="6" horiz-adv-x="564" 
d="M536.5 316q4.5 -29 4.5 -76q0 -49 -5 -78.5t-16 -53.5q-28 -61 -86 -92.5t-141 -31.5q-171 0 -233 137q-18 39 -25.5 90t-7.5 136q0 86 8 140t27 95q30 69 89 104.5t146 35.5q57 0 102.5 -15.5t76.5 -46.5q24 -24 38 -59.5t19 -85.5h-156q-2 24 -7 37.5t-13 21.5
q-21 22 -60 22q-63 0 -88 -57q-10 -23 -14 -56t-4 -90q24 35 63.5 54t91.5 19q63 0 108.5 -25.5t67.5 -73.5q10 -22 14.5 -51zM372 186q2 15 2 46t-2 46.5t-7 26.5q-9 21 -27.5 32.5t-44.5 11.5q-28 0 -47.5 -12t-29.5 -34q-5 -12 -7 -26.5t-2 -45.5q0 -27 2 -42t7 -26
q20 -46 75 -46q27 0 46 11.5t28 32.5q5 10 7 25z" />
    <glyph glyph-name="seven" unicode="7" horiz-adv-x="494" 
d="M270 558h-249v148h474l-254 -706h-177z" />
    <glyph glyph-name="eight" unicode="8" horiz-adv-x="551" 
d="M521 263q4 -23 4 -60q0 -39 -3.5 -62t-12.5 -43q-25 -55 -85 -84.5t-148 -29.5q-89 0 -149 29.5t-84 84.5q-9 20 -13 43t-4 62q0 37 3.5 59.5t12.5 40.5q27 64 103 82q-32 9 -56 28.5t-37 46.5q-7 15 -10 33.5t-3 45.5q0 26 3.5 44.5t10.5 34.5q22 50 80.5 77t142.5 27
q83 0 141.5 -27t81.5 -77q7 -16 10 -34.5t3 -44.5q0 -27 -3 -45.5t-10 -33.5q-12 -27 -36 -46.5t-56 -27.5q74 -20 101 -81q9 -19 13 -42zM200.5 553.5q-1.5 -10.5 -1.5 -30.5t1.5 -30t5.5 -19q18 -40 70 -40q25 0 43 10t27 30q4 9 5.5 19t1.5 30t-1.5 30.5t-6.5 19.5
q-18 38 -69 38q-52 0 -70 -38q-4 -9 -5.5 -19.5zM358.5 173.5q1.5 11.5 1.5 38.5q0 25 -2 37.5t-7 23.5q-9 21 -28.5 32.5t-46.5 11.5q-28 0 -47.5 -11.5t-28.5 -32.5q-5 -10 -6.5 -22t-1.5 -38q0 -27 1.5 -39.5t5.5 -22.5q21 -42 77 -42q28 0 47 11t29 32q5 10 6.5 21.5z
" />
    <glyph glyph-name="nine" unicode="9" horiz-adv-x="565" 
d="M530.5 497q7.5 -51 7.5 -136q0 -86 -8 -139.5t-27 -95.5q-31 -69 -89.5 -105t-144.5 -36q-57 0 -102.5 16t-76.5 47q-25 25 -39 60t-19 84h156q3 -23 7.5 -37t12.5 -22q21 -21 60 -21q63 0 88 57q10 23 14 55t4 90q-23 -35 -63 -53.5t-92 -18.5q-63 0 -108 25.5t-67 73.5
q-10 23 -15 51t-5 75q0 48 5 77.5t17 55.5q27 60 85.5 92t140.5 32q87 0 145 -35t88 -103q18 -38 25.5 -89zM357 432.5q2 14.5 2 43.5q0 28 -2.5 43t-7.5 26q-21 46 -75 46q-27 0 -45.5 -11.5t-28.5 -33.5q-5 -11 -7 -26t-2 -45t2 -45t7 -28q10 -21 28.5 -32t44.5 -11
q27 0 46.5 12t29.5 34q6 13 8 27.5z" />
    <glyph glyph-name="colon" unicode=":" horiz-adv-x="302" 
d="M88 7.5q-25 23.5 -25 62.5t24.5 62.5t64.5 23.5q39 0 63 -23.5t24 -62.5t-24 -62.5t-63 -23.5t-64 23.5zM88 348.5q-25 23.5 -25 62.5t24.5 62.5t64.5 23.5q39 0 63 -23.5t24 -62.5t-24 -62.5t-63 -23.5t-64 23.5z" />
    <glyph glyph-name="semicolon" unicode=";" horiz-adv-x="303" 
d="M80 160h140l-90 -331h-108zM89 348.5q-25 23.5 -25 62.5t24.5 62.5t64.5 23.5q39 0 63 -23.5t24 -62.5t-24 -62.5t-63 -23.5t-64 23.5z" />
    <glyph glyph-name="less" unicode="&#x3c;" horiz-adv-x="505" 
d="M468 381l-313 -82l313 -83v-118l-431 120v162l431 120v-119z" />
    <glyph glyph-name="equal" unicode="=" horiz-adv-x="505" 
d="M37 451h432v-116h-432v116zM37 263h432v-116h-432v116z" />
    <glyph glyph-name="greater" unicode="&#x3e;" horiz-adv-x="505" 
d="M469 380v-162l-432 -120v118l314 83l-314 82v119z" />
    <glyph glyph-name="question" unicode="?" horiz-adv-x="478" 
d="M158 239q48 95 80 159.5t41.5 93.5t9.5 53q0 28 -12.5 42t-42.5 14q-20 0 -32.5 -6.5t-19.5 -21.5q-4 -9 -5 -20t-1 -36h-147q0 39 3.5 62t12.5 43q22 49 72.5 74.5t123.5 25.5q65 0 111.5 -20t71.5 -58.5t25 -92.5q0 -29 -10 -61t-34.5 -84.5t-91.5 -186.5h-165z
M164 7.5q-25 23.5 -25 62.5t24.5 62.5t64.5 23.5q39 0 63 -23.5t24 -62.5t-24 -62.5t-63 -23.5t-64 23.5z" />
    <glyph glyph-name="at" unicode="@" horiz-adv-x="715" 
d="M683 442q7 -45 7 -105q0 -58 -6 -97.5t-20 -70.5q-25 -56 -72 -83.5t-127 -27.5h-54v50q-18 -25 -48.5 -39t-67.5 -14q-42 0 -71 16.5t-41 45.5q-6 13 -8.5 29t-2.5 42q0 27 2.5 43.5t8.5 30.5q15 35 55.5 52.5t122.5 17.5h45v6q0 30 -1 46.5t-5 24.5q-9 19 -41 19
t-41 -20q-3 -7 -4 -16.5t-1 -23.5h-129q0 49 12 76q17 38 60 57t107 19q121 0 153 -68q10 -19 12.5 -47.5t2.5 -74.5v-197q47 13 71 67q10 22 14 54.5t4 79.5q0 57 -6 97t-19 69q-29 62 -88 95.5t-146 33.5q-89 0 -147.5 -35t-87.5 -101q-16 -35 -23 -81.5t-7 -111.5
q0 -70 7 -120t23 -85q32 -68 96.5 -103.5t160.5 -35.5q49 0 81 5v-63q-43 -5 -82 -5q-121 0 -200 43t-119 130q-19 41 -28 97.5t-9 132.5q0 72 9.5 125.5t29.5 97.5q37 81 111.5 125t186.5 44q109 0 185 -42t112 -122q16 -37 23 -82zM407 261h-35q-26 0 -41.5 -5t-21.5 -18
q-2 -6 -3 -13t-1 -17q0 -25 4 -34q5 -10 15 -15t26 -5q38 0 50 26q4 10 5.5 23.5t1.5 49.5v8z" />
    <glyph glyph-name="A" unicode="A" horiz-adv-x="600" 
d="M406 125h-212l-29 -125h-166l177 706h249l176 -706h-166zM377 253l-76 329h-2l-76 -329h154z" />
    <glyph glyph-name="B" unicode="B" horiz-adv-x="531" 
d="M504 256q3 -20 3 -55q0 -41 -3.5 -63.5t-11.5 -40.5q-21 -47 -69.5 -72t-120.5 -25h-261v706h261q64 0 108 -22.5t63 -64.5q8 -18 11.5 -37t3.5 -51q0 -31 -2.5 -48t-9.5 -32q-25 -55 -94 -72q43 -13 70 -34t41 -51q8 -18 11 -38zM202 424h36q56 0 73 37q4 9 5.5 19.5
t1.5 32.5q0 18 -1.5 27.5t-5.5 18.5q-16 36 -74 36h-35v-171zM331.5 176q1.5 12 1.5 36q0 23 -1.5 34t-6.5 21q-10 22 -31.5 32t-56.5 10h-35v-196h34q71 0 89 41q5 10 6.5 22z" />
    <glyph glyph-name="C" unicode="C" horiz-adv-x="605" 
d="M157.5 24q-65.5 40 -99.5 116q-17 38 -24.5 85.5t-7.5 127.5t7.5 127.5t24.5 86.5q34 75 98.5 115t158.5 40q56 0 103 -17t82 -49q39 -35 58.5 -85t21.5 -117h-172q0 39 -7 61t-23 36q-14 13 -30 18.5t-41 5.5q-67 0 -93 -59q-9 -23 -13 -56t-4 -106q0 -75 3.5 -109
t13.5 -56q26 -58 95 -58q44 0 71 24q14 14 22 35t9 57h171q0 -125 -76 -195q-36 -33 -85 -50.5t-105 -17.5q-93 0 -158.5 40z" />
    <glyph glyph-name="D" unicode="D" horiz-adv-x="597" 
d="M41 706h242q96 0 161.5 -38.5t96.5 -109.5q16 -36 23 -81t7 -124t-7 -124t-23 -81q-31 -71 -96.5 -109.5t-161.5 -38.5h-242v706zM256 141q51 0 81.5 17.5t45.5 51.5q9 20 13 49.5t4 92.5q0 64 -4 94t-13 50q-15 34 -45.5 51.5t-81.5 17.5h-53v-424h53z" />
    <glyph glyph-name="E" unicode="E" horiz-adv-x="447" 
d="M41 706h381v-139h-219v-136h216v-135h-216v-157h219v-139h-381v706z" />
    <glyph glyph-name="F" unicode="F" horiz-adv-x="393" 
d="M41 706h331v-139h-169v-136h167v-137h-167v-294h-162v706z" />
    <glyph glyph-name="G" unicode="G" horiz-adv-x="609" 
d="M583 381v-54q0 -68 -7.5 -114.5t-24.5 -85.5q-33 -72 -91 -107.5t-146 -35.5q-94 0 -158.5 40.5t-98.5 116.5q-17 37 -24 84.5t-7 127.5t7 127.5t24 84.5q34 76 99 116.5t159 40.5q57 0 104.5 -16.5t82.5 -48.5q36 -33 55 -79.5t21 -109.5h-164q-2 33 -9.5 53.5
t-21.5 33.5q-26 23 -72 23q-35 0 -59.5 -14.5t-37.5 -45.5q-10 -23 -13.5 -56t-3.5 -109t3.5 -109t13.5 -56q14 -31 40 -45.5t64 -14.5q70 0 94 53q6 13 8 29t3 50h-111v121h271z" />
    <glyph glyph-name="H" unicode="H" horiz-adv-x="594" 
d="M41 706h162v-275h188v275h162v-706h-162v291h-188v-291h-162v706z" />
    <glyph glyph-name="I" unicode="I" horiz-adv-x="244" 
d="M41 706h162v-706h-162v706z" />
    <glyph glyph-name="J" unicode="J" horiz-adv-x="295" 
d="M6 0v149q9 -2 28 -2q25 0 39 7t20.5 23.5t6.5 45.5v483h163v-515q0 -99 -46.5 -146.5t-149.5 -47.5q-29 0 -61 3z" />
    <glyph glyph-name="K" unicode="K" horiz-adv-x="581" 
d="M393 0l-190 316v-316h-162v706h162v-257l162 257h185l-207 -317l242 -389h-192z" />
    <glyph glyph-name="L" unicode="L" horiz-adv-x="354" 
d="M41 706h162v-562h145v-144h-307v706z" />
    <glyph glyph-name="M" unicode="M" horiz-adv-x="750" 
d="M41 706h192l142 -413l143 413h191v-706h-154v423l-142 -423h-76l-142 423v-423h-154v706z" />
    <glyph glyph-name="N" unicode="N" horiz-adv-x="616" 
d="M41 706h156l221 -414v414h157v-706h-155l-222 418v-418h-157v706z" />
    <glyph glyph-name="O" unicode="O" horiz-adv-x="628" 
d="M164.5 19q-62.5 35 -95.5 102q-23 40 -33 94t-10 138q0 78 7.5 127t25.5 89q33 74 97.5 113.5t157.5 39.5t157.5 -39.5t97.5 -113.5q18 -40 25.5 -89t7.5 -127t-7.5 -127t-25.5 -89q-33 -74 -97.5 -113.5t-157.5 -39.5q-87 0 -149.5 35zM376 148.5q24 16.5 38 47.5
q10 23 14 55.5t4 101.5q0 70 -3.5 102.5t-13.5 54.5q-14 31 -38.5 47.5t-62.5 16.5t-62.5 -16.5t-38.5 -47.5q-10 -22 -13 -53.5t-3 -103.5q0 -70 3.5 -102.5t13.5 -54.5q14 -31 38 -47.5t62 -16.5t62 16.5z" />
    <glyph glyph-name="P" unicode="P" horiz-adv-x="514" 
d="M41 706h259q72 0 117.5 -22t66.5 -69q10 -22 14 -49t4 -69q0 -39 -4 -65.5t-14 -48.5q-41 -93 -184 -93h-97v-290h-162v706zM251 411q30 0 49.5 8t26.5 25q5 9 6.5 20t1.5 32q0 22 -1.5 33t-6.5 20q-7 17 -26 24.5t-50 7.5h-48v-170h48z" />
    <glyph glyph-name="Q" unicode="Q" horiz-adv-x="628" 
d="M465 20l60 -116l-141 -63l-66 143h-4q-87 0 -149.5 35t-95.5 102q-23 40 -33 94t-10 138q0 78 7.5 127t25.5 89q33 74 97.5 113.5t157.5 39.5t157.5 -39.5t97.5 -113.5q18 -40 25.5 -89t7.5 -127t-7.5 -127t-25.5 -89q-35 -78 -104 -117zM252 148.5q24 -16.5 62 -16.5
t62 16.5t38 47.5q10 23 14 55.5t4 101.5q0 70 -3.5 102.5t-13.5 54.5q-14 31 -38.5 47.5t-62.5 16.5t-62.5 -16.5t-38.5 -47.5q-10 -22 -13 -53.5t-3 -103.5q0 -70 3.5 -102.5t13.5 -54.5q14 -31 38 -47.5z" />
    <glyph glyph-name="R" unicode="R" horiz-adv-x="537" 
d="M225 298h-22v-298h-162v706h260q73 0 119 -22.5t68 -69.5q9 -20 13 -46t4 -66t-4 -66t-13 -46q-27 -66 -99 -84l160 -306h-175zM203 411h50q61 0 77 33q5 9 6.5 20.5t1.5 33.5q0 21 -1.5 32t-6.5 20q-9 17 -27.5 24t-49.5 7h-50v-170z" />
    <glyph glyph-name="S" unicode="S" horiz-adv-x="529" 
d="M114 15.5q-58 31.5 -82 84.5q-10 22 -14 47.5t-4 66.5h179q0 -27 1.5 -40.5t6.5 -23.5q16 -38 66 -38t65 34q3 8 4.5 17t1.5 24q0 16 -1.5 25t-5.5 18q-7 16 -23 28t-35.5 20t-52.5 19q-29 10 -37 13q-50 19 -86.5 45t-53.5 64q-8 19 -12 41.5t-4 53.5q0 30 4.5 52
t13.5 44q24 53 80 82.5t136 29.5q78 0 131 -27.5t78 -81.5q10 -22 13.5 -45.5t3.5 -67.5h-167q0 27 -1.5 41t-6.5 25q-14 32 -58 32q-22 0 -37 -8.5t-21 -23.5q-3 -7 -4 -14.5t-1 -20.5q0 -12 1 -21.5t5 -17.5q9 -19 32.5 -30.5t70.5 -26.5l35 -11q66 -24 105 -49t58 -66
q9 -20 12.5 -43t3.5 -59q0 -35 -4 -59t-14 -46q-25 -57 -86.5 -87.5t-148.5 -30.5q-89 0 -147 31.5z" />
    <glyph glyph-name="T" unicode="T" horiz-adv-x="412" 
d="M125 567h-119v139h400v-139h-119v-567h-162v567z" />
    <glyph glyph-name="U" unicode="U" horiz-adv-x="565" 
d="M138.5 8.5q-54.5 24.5 -80.5 75t-26 130.5v492h163v-483q0 -96 86 -96q89 0 89 96v483h163v-492q0 -80 -26.5 -130.5t-82 -75t-143.5 -24.5t-142.5 24.5z" />
    <glyph glyph-name="V" unicode="V" horiz-adv-x="582" 
d="M583 706l-212 -706h-160l-212 706h168l124 -480l126 480h166z" />
    <glyph glyph-name="W" unicode="W" horiz-adv-x="818" 
d="M819 706l-157 -706h-168l-84 449l-85 -449h-166l-160 706h158l89 -449l82 449h165l81 -446l87 446h158z" />
    <glyph glyph-name="X" unicode="X" horiz-adv-x="609" 
d="M204 378l-183 328h183l101 -207l102 207h183l-183 -331l206 -375h-184l-124 248l-124 -248h-185z" />
    <glyph glyph-name="Y" unicode="Y" horiz-adv-x="531" 
d="M184 297l-185 409h170l97 -242l96 242h169l-184 -409v-297h-163v297z" />
    <glyph glyph-name="Z" unicode="Z" horiz-adv-x="497" 
d="M237 568h-218v138h453l-231 -568h244v-138h-481z" />
    <glyph glyph-name="bracketleft" unicode="[" horiz-adv-x="297" 
d="M69 781h214v-116h-85v-740h85v-116h-214v972z" />
    <glyph glyph-name="backslash" unicode="\" horiz-adv-x="456" 
d="M286 -50l-262 772h146l261 -772h-145z" />
    <glyph glyph-name="bracketright" unicode="]" horiz-adv-x="297" 
d="M15 -191v116h85v740h-85v116h213v-972h-213z" />
    <glyph glyph-name="asciicircum" unicode="^" horiz-adv-x="441" 
d="M281 389l-60 195l-60 -195h-147l110 317h193l110 -317h-146z" />
    <glyph glyph-name="underscore" unicode="_" horiz-adv-x="335" 
d="M0 -57h335v-127h-335v127z" />
    <glyph glyph-name="grave" unicode="`" horiz-adv-x="322" 
d="M144 556l-94 149h144l78 -149h-128z" />
    <glyph glyph-name="a" unicode="a" horiz-adv-x="477" 
d="M443.5 375.5q4.5 -29.5 4.5 -71.5v-304h-150v54q-21 -31 -55 -48.5t-81 -17.5q-50 0 -84.5 18.5t-50.5 53.5q-8 16 -11 34.5t-3 48.5t3 48.5t10 33.5q21 46 73 65t139 19h60v9q0 33 -1 44.5t-6 20.5q-12 26 -52 26q-23 0 -35.5 -6.5t-18.5 -19.5q-3 -7 -4 -15.5t-1 -21.5
h-151q0 27 3 45t10 34q21 46 71 69.5t126 23.5q77 0 123 -22t67 -68q10 -23 14.5 -52.5zM266 110.5q15 8.5 23 25.5q5 11 7 25t2 50v7h-46q-32 0 -51.5 -5.5t-25.5 -20.5q-3 -5 -4 -12.5t-1 -19.5q0 -13 1 -20.5t4 -13.5q11 -24 51 -24q25 0 40 8.5z" />
    <glyph glyph-name="b" unicode="b" horiz-adv-x="503" 
d="M478 355q6 -37 6 -102q0 -64 -6 -101.5t-19 -66.5q-21 -46 -60 -71.5t-93 -25.5q-82 0 -126 63v-51h-147v706h150v-246q22 29 52.5 43.5t70.5 14.5q54 0 93 -25.5t60 -71.5q13 -29 19 -66zM321.5 186q2.5 22 2.5 67t-2.5 67t-7.5 34q-17 38 -62 38q-70 0 -70 -95v-88
q0 -94 70 -94q45 0 62 37q5 12 7.5 34z" />
    <glyph glyph-name="c" unicode="c" horiz-adv-x="478" 
d="M118.5 18q-51.5 30 -76.5 86q-13 27 -18.5 60.5t-5.5 88.5t5.5 88.5t18.5 60.5q25 56 76.5 86t124.5 30q49 0 89.5 -13.5t68.5 -39.5q28 -25 42.5 -61t16.5 -87h-161q-1 26 -6 40t-14 22q-15 13 -36 13q-18 0 -31.5 -8.5t-20.5 -24.5q-6 -14 -8 -34.5t-2 -71.5
q0 -50 2 -71t8 -34q14 -33 52 -33q23 0 36 13q10 9 14.5 24t4.5 43h161q-1 -55 -15 -91t-43 -63q-28 -25 -69 -39t-89 -14q-73 0 -124.5 30z" />
    <glyph glyph-name="d" unicode="d" horiz-adv-x="503" 
d="M469 706v-706h-146v53q-22 -33 -53 -49t-73 -16q-54 0 -93 25.5t-60 71.5q-13 29 -19.5 67t-6.5 101q0 64 6 101.5t20 66.5q21 46 60 71.5t93 25.5q41 0 71 -14.5t52 -45.5v248h149zM321 297q0 95 -71 95q-45 0 -62 -38q-5 -12 -7.5 -34t-2.5 -67t2.5 -67t7.5 -34
q17 -37 62 -37q71 0 71 94v88z" />
    <glyph glyph-name="e" unicode="e" horiz-adv-x="484" 
d="M306.5 139.5q4.5 11.5 5.5 31.5h151q-1 -44 -14 -74.5t-39 -54.5q-29 -26 -71 -40t-90 -14q-76 0 -129.5 30.5t-78.5 86.5q-12 28 -17.5 61.5t-5.5 88.5q0 56 5 87.5t18 58.5q25 55 75.5 86t123.5 31q74 0 125.5 -30.5t77.5 -86.5q15 -34 19 -69t4 -114h-296q1 -32 3 -49
t7 -29q15 -36 65 -36q30 0 48 16q9 8 13.5 19.5zM180 370q-5 -12 -6.5 -23.5t-2.5 -37.5h143q-1 26 -3 38t-6 23q-17 36 -62 36q-46 0 -63 -36z" />
    <glyph glyph-name="f" unicode="f" horiz-adv-x="311" 
d="M61 382h-51v124h51v51q0 58 18.5 94t57.5 52.5t101 16.5q37 0 64 -6v-122q-18 5 -37 5q-28 0 -41 -15t-13 -44v-32h88v-124h-88v-382h-150v382z" />
    <glyph glyph-name="g" unicode="g" horiz-adv-x="503" 
d="M470 506v-483q0 -41 -5.5 -71t-16.5 -55q-23 -50 -72.5 -75t-127.5 -25q-114 0 -172 52q-24 21 -36 48.5t-17 64.5h154q3 -24 17 -37q20 -16 55 -16q51 0 65 34q4 8 5.5 19t1.5 30v63q-22 -31 -53 -46.5t-75 -15.5q-54 0 -91.5 24.5t-58.5 70.5q-14 31 -19.5 66.5
t-5.5 100.5t5.5 101t18.5 66q21 46 59.5 71t91.5 25q45 0 76.5 -16.5t54.5 -49.5v54h146zM321 209v89q0 46 -17.5 70t-52.5 24q-23 0 -39 -9.5t-24 -28.5q-6 -13 -8 -33.5t-2 -65.5q0 -48 2 -68.5t8 -34.5q8 -18 24.5 -27.5t38.5 -9.5q70 0 70 94z" />
    <glyph glyph-name="h" unicode="h" horiz-adv-x="483" 
d="M416.5 475.5q37.5 -42.5 37.5 -121.5v-354h-150v318q0 39 -14 56t-44 17q-63 0 -63 -75v-316h-150v706h150v-255q22 33 53.5 50t73.5 17q69 0 106.5 -42.5z" />
    <glyph glyph-name="i" unicode="i" horiz-adv-x="216" 
d="M51.5 577q-22.5 21 -22.5 55t22.5 55t57.5 21t57 -21t22 -55t-22 -55t-57 -21t-57.5 21zM33 506h150v-506h-150v506z" />
    <glyph glyph-name="j" unicode="j" horiz-adv-x="225" 
d="M58.5 577q-22.5 21 -22.5 55t22.5 55t57.5 21t57 -21t22 -55t-22 -55t-57 -21t-57.5 21zM-27 -190v130q11 -1 27 -1q22 0 32 10.5t10 34.5v522h149v-543q0 -82 -37.5 -119t-119.5 -37q-32 0 -61 3z" />
    <glyph glyph-name="k" unicode="k" horiz-adv-x="484" 
d="M307 0l-124 211v-211h-150v706h150v-368l110 168h179l-159 -229l179 -277h-185z" />
    <glyph glyph-name="l" unicode="l" horiz-adv-x="216" 
d="M33 706h150v-706h-150v706z" />
    <glyph glyph-name="m" unicode="m" horiz-adv-x="742" 
d="M677.5 475.5q35.5 -42.5 35.5 -123.5v-352h-150v315q0 41 -13.5 58.5t-42.5 17.5q-59 0 -59 -80v-311h-150v316q0 40 -13.5 57.5t-43.5 17.5q-58 0 -58 -80v-311h-150v506h150v-52q20 30 52 47t76 17q97 0 125 -74q24 38 57.5 56t79.5 18q69 0 104.5 -42.5z" />
    <glyph glyph-name="n" unicode="n" horiz-adv-x="483" 
d="M416.5 475.5q37.5 -42.5 37.5 -121.5v-354h-150v318q0 39 -14 56t-44 17q-63 0 -63 -75v-316h-150v506h150v-55q22 33 53.5 50t73.5 17q69 0 106.5 -42.5z" />
    <glyph glyph-name="o" unicode="o" horiz-adv-x="491" 
d="M118 19q-52 31 -77 87q-12 28 -17.5 60.5t-5.5 86.5t5.5 86.5t17.5 60.5q25 56 77 87t128 31q75 0 127 -31t77 -87q12 -28 17.5 -60.5t5.5 -86.5t-5.5 -86.5t-17.5 -60.5q-25 -56 -77 -87t-127 -31q-76 0 -128 31zM304 149q5 13 7.5 35.5t2.5 68.5t-2.5 68.5t-7.5 35.5
q-16 35 -58 35q-22 0 -36 -9t-22 -26q-6 -13 -8.5 -35.5t-2.5 -68.5t2.5 -68.5t8.5 -35.5q8 -17 21.5 -25.5t36.5 -8.5q43 0 58 34z" />
    <glyph glyph-name="p" unicode="p" horiz-adv-x="503" 
d="M478 355q6 -37 6 -102q0 -64 -6 -101.5t-19 -66.5q-21 -46 -60 -71.5t-93 -25.5q-80 0 -123 60v-239h-150v697h147v-52q22 32 53 48t73 16q54 0 93 -25.5t60 -71.5q13 -29 19 -66zM321.5 187.5q2.5 21.5 2.5 65.5q0 45 -2.5 67t-7.5 34q-17 38 -62 38q-70 0 -70 -95v-86
q0 -95 70 -95q45 0 62 37q5 13 7.5 34.5z" />
    <glyph glyph-name="q" unicode="q" horiz-adv-x="503" 
d="M469 506v-697h-149v239q-43 -60 -123 -60q-54 0 -93 25.5t-60 71.5q-13 29 -19.5 67t-6.5 101q0 64 6 101.5t20 66.5q21 46 60 71.5t93 25.5q42 0 73 -16t53 -48v52h146zM321 211v86q0 95 -71 95q-45 0 -62 -38q-5 -12 -7.5 -34t-2.5 -67q0 -44 2.5 -65.5t7.5 -34.5
q17 -37 62 -37q71 0 71 95z" />
    <glyph glyph-name="r" unicode="r" horiz-adv-x="357" 
d="M33 506h149v-43q16 28 36 41t47 13q39 0 63 -23.5t24 -63.5q0 -25 -11 -45t-31 -31t-45 -11q-22 0 -39.5 9.5t-26.5 26.5q-10 -5 -13 -15t-3 -35v-329h-150v506z" />
    <glyph glyph-name="s" unicode="s" horiz-adv-x="428" 
d="M97 7.5q-46 22.5 -66 67.5q-8 18 -11.5 39.5t-2.5 52.5h146q0 -20 1.5 -31t4.5 -18q6 -13 16.5 -19.5t27.5 -6.5q30 0 40 21q3 9 3 22q0 19 -4 28q-7 16 -25 25t-55 20q-48 16 -81 36.5t-49 55.5q-6 14 -8.5 29t-2.5 37q0 40 12 68q19 41 62.5 62.5t106.5 21.5
q64 0 107.5 -20.5t61.5 -60.5q8 -16 11 -34t3 -46h-142q0 16 -1.5 25t-4.5 15q-9 22 -36 22t-35 -18q-3 -7 -3 -18q0 -15 4 -22q5 -11 16.5 -19.5t30.5 -15.5t39 -14q38 -14 61 -24t43.5 -27t32.5 -42q6 -14 8.5 -30.5t2.5 -39.5t-3 -40.5t-10 -33.5q-20 -45 -68.5 -67.5
t-117.5 -22.5t-115 22.5z" />
    <glyph glyph-name="t" unicode="t" horiz-adv-x="318" 
d="M128 7.5q-32 14.5 -47.5 48t-15.5 92.5v234h-56v124h56v116h149v-116h92v-124h-92v-208q0 -32 11.5 -45t38.5 -13q23 0 42 5v-119q-43 -9 -91 -9q-55 0 -87 14.5z" />
    <glyph glyph-name="u" unicode="u" horiz-adv-x="483" 
d="M450 506v-506h-150v55q-22 -33 -53.5 -50t-73.5 -17q-69 0 -106.5 42.5t-37.5 121.5v354h150v-318q0 -39 14 -56t44 -17q31 0 47 18t16 57v316h150z" />
    <glyph glyph-name="v" unicode="v" horiz-adv-x="472" 
d="M-4 507h161l79 -329l79 329h161l-154 -507h-172z" />
    <glyph glyph-name="w" unicode="w" horiz-adv-x="733" 
d="M736 507l-152 -507h-150l-68 292l-68 -292h-152l-150 507h156l67 -295l76 295h140l76 -294l68 294h157z" />
    <glyph glyph-name="x" unicode="x" horiz-adv-x="498" 
d="M157 262l-155 244h172l75 -143l76 143h171l-154 -244l160 -262h-169l-84 156l-85 -156h-168z" />
    <glyph glyph-name="y" unicode="y" horiz-adv-x="470" 
d="M473 506l-167 -506l-66 -191h-149l66 193l-161 504h162l76 -331l82 331h157z" />
    <glyph glyph-name="z" unicode="z" horiz-adv-x="414" 
d="M222 124h183v-124h-408l201 383h-182v123h399z" />
    <glyph glyph-name="braceleft" unicode="{" horiz-adv-x="346" 
d="M225 330q-20 -28 -65 -35q45 -7 65 -34.5t20 -83.5v-176q0 -31 6.5 -48.5t24 -26t49.5 -8.5h7v-109h-53q-77 0 -115.5 43t-38.5 120v179q0 31 -7.5 48t-25 24.5t-49.5 7.5v128q32 0 49.5 7.5t25 24.5t7.5 48v178q0 77 38.5 120.5t115.5 43.5h53v-109h-7q-32 0 -49.5 -8.5
t-24 -26t-6.5 -48.5v-175q0 -56 -20 -84z" />
    <glyph glyph-name="bar" unicode="|" horiz-adv-x="300" 
d="M73 756h153v-947h-153v947z" />
    <glyph glyph-name="braceright" unicode="}" horiz-adv-x="346" 
d="M229.5 391q7.5 -17 24.5 -24.5t49 -7.5v-128q-31 0 -48.5 -7.5t-25 -24.5t-7.5 -48v-179q0 -77 -38.5 -120t-115.5 -43h-53v109h6q32 0 49.5 8.5t24 26t6.5 48.5v176q0 56 20 83.5t65 34.5q-45 7 -65 35t-20 84v175q0 31 -6.5 48.5t-24 26t-49.5 8.5h-6v109h53
q77 0 115.5 -43.5t38.5 -120.5v-178q0 -31 7.5 -48z" />
    <glyph glyph-name="asciitilde" unicode="~" horiz-adv-x="505" 
d="M291 205.5q-21 10.5 -49 31.5q-3 2 -15 10.5t-21.5 12.5t-17.5 4q-16 0 -24 -16.5t-10 -50.5h-106q4 104 32 154.5t89 50.5q19 0 35.5 -6t32 -16t28.5 -20q19 -14 30.5 -20.5t23.5 -6.5q17 0 24.5 16.5t9.5 50.5h105q-4 -103 -32 -154t-87 -51q-27 0 -48 10.5z" />
    <glyph glyph-name="uni00A0" unicode="&#xa0;" horiz-adv-x="154" 
 />
    <glyph glyph-name="exclamdown" unicode="&#xa1;" horiz-adv-x="296" 
d="M85 370.5q-25 23.5 -25 62.5t24.5 62.5t64.5 23.5q39 0 63 -23.5t24 -62.5t-24 -62.5t-63 -23.5t-64 23.5zM88 287h121l20 -478h-164z" />
    <glyph glyph-name="cent" unicode="&#xa2;" horiz-adv-x="478" 
d="M300.5 252.5q4.5 14.5 4.5 42.5h154q-2 -55 -15.5 -91t-42.5 -62q-24 -22 -57 -35t-73 -17v-90h-58v90q-62 6 -106 35.5t-66 79.5q-12 27 -17.5 61t-5.5 88t5.5 87.5t17.5 60.5q22 50 66 79.5t106 35.5v89h58v-89q83 -6 130 -52q28 -25 42.5 -61t16.5 -87h-154
q-1 26 -5.5 39.5t-13.5 22.5q-7 7 -19 12v-274q10 3 18 11q10 10 14.5 24.5zM217 217v274q-22 -9 -33 -32q-6 -14 -8 -34.5t-2 -70.5q0 -51 2 -71t8 -34q11 -23 33 -32z" />
    <glyph glyph-name="sterling" unicode="&#xa3;" horiz-adv-x="565" 
d="M387.5 201.5q2.5 18.5 2.5 50.5h151q-1 -53 -6 -86.5t-18 -60.5q-23 -53 -71.5 -79t-126.5 -26h-298v124h59v196h-59v77h59v57q0 60 5.5 96t19.5 65q25 55 77 81t134 26q78 0 127 -25.5t73 -78.5q13 -29 19 -63.5t6 -87.5h-152q0 37 -3 57t-9 35q-8 18 -23 26.5t-38 8.5
q-45 0 -62 -36q-6 -14 -8.5 -34.5t-2.5 -64.5v-62h177v-77h-177v-196h48q35 0 56 10.5t32 33.5q6 15 8.5 33.5z" />
    <glyph glyph-name="currency" unicode="&#xa4;" horiz-adv-x="501" 
d="M409 182l73 -112h-107l-42 64q-35 -13 -82 -13q-42 0 -83 13l-42 -64h-106l73 112q-20 21 -34 51q-10 23 -15 50.5t-5 69.5q0 43 5 70t15 50q14 31 35 52l-74 111h107l42 -64q35 13 82 13q44 0 83 -13l41 64h107l-74 -111q21 -23 35 -52q11 -23 15.5 -50t4.5 -70
t-4.5 -70.5t-15.5 -49.5q-15 -32 -34 -51zM201.5 249q20.5 -12 49.5 -12t49.5 12.5t31.5 35.5q5 11 7 26t2 42q0 28 -2 43t-7 26q-10 23 -31 35t-50 12t-50 -12t-31 -35q-5 -11 -7 -26.5t-2 -42.5q0 -26 2.5 -41t7.5 -27q10 -24 30.5 -36z" />
    <glyph glyph-name="yen" unicode="&#xa5;" horiz-adv-x="515" 
d="M349 344h132v-69h-138v-36h138v-70h-138v-169h-165v169h-142v70h142v36h-142v69h136l-180 362h174l96 -228l97 228h166z" />
    <glyph glyph-name="brokenbar" unicode="&#xa6;" horiz-adv-x="300" 
d="M73 756h153v-323h-153v323zM73 133h153v-324h-153v324z" />
    <glyph glyph-name="section" unicode="&#xa7;" horiz-adv-x="456" 
d="M436 -32q0 -25 -3.5 -44t-10.5 -36q-21 -45 -72.5 -68t-122.5 -23q-72 0 -122 22t-71 67q-7 16 -10 36.5t-3 58.5h156q0 -23 1 -33t5 -17q11 -23 45 -23q33 0 44 22q4 9 4 30q0 11 -1.5 19.5t-4.5 16.5q-8 17 -30 30t-61 29q-37 15 -61.5 28t-45 32t-33.5 46
q-8 17 -11.5 37t-3.5 50q0 28 3 45.5t10 32.5q24 52 90 75q-29 18 -51 39t-31 43q-14 33 -14 72q0 43 14 74q21 46 70 69.5t117 23.5q65 0 112 -21.5t68 -65.5q8 -17 11 -36.5t3 -49.5h-150q0 17 -1.5 25.5t-4.5 14.5q-9 23 -41 23q-15 0 -26 -6t-16 -17q-3 -9 -3 -23
q0 -18 5 -29q9 -18 30 -30.5t59 -28.5q38 -17 62 -30t46 -32.5t34 -46.5q8 -16 10.5 -37.5t2.5 -59.5q0 -30 -3 -48.5t-10 -33.5q-10 -23 -29 -40t-44 -28q55 -32 75 -81q14 -33 14 -73zM168 284.5q-1 -8.5 -1 -23.5q0 -16 1 -25.5t4 -14.5q6 -15 21 -23t37 -8
q20 0 34.5 7.5t20.5 21.5q3 6 4 14.5t1 26.5q0 15 -1 24.5t-3 14.5q-7 15 -22 22.5t-36 7.5q-20 0 -35 -8t-22 -22q-2 -6 -3 -14.5z" />
    <glyph glyph-name="dieresis" unicode="&#xa8;" horiz-adv-x="443" 
d="M71.5 575.5q-21.5 20.5 -21.5 52.5t21.5 52.5t54.5 20.5t54.5 -20.5t21.5 -52.5t-21.5 -52.5t-54.5 -20.5t-54.5 20.5zM278 563.5q-17 9.5 -27 26.5t-10 37q0 32 21.5 53t54.5 21q21 0 38.5 -9.5t27.5 -26.5t10 -38q0 -20 -10 -37t-27.5 -26.5t-38.5 -9.5q-22 0 -39 9.5z
" />
    <glyph glyph-name="copyright" unicode="&#xa9;" horiz-adv-x="686" 
d="M167.5 30.5q-72.5 46.5 -109.5 127.5q-17 37 -24.5 85t-7.5 110t7.5 110t24.5 85q37 81 111 127.5t175 46.5q99 0 172.5 -45t110.5 -126q17 -38 25 -87t8 -111q0 -64 -7.5 -111t-24.5 -85q-37 -81 -109.5 -127t-175.5 -46t-175.5 46.5zM483 81q57 38 87 106
q13 29 18.5 68.5t5.5 94.5q0 116 -26 175q-30 67 -87 102.5t-136 35.5q-82 0 -141 -37.5t-89 -105.5q-24 -53 -24 -166q0 -57 6 -97.5t20 -69.5q30 -69 86.5 -106.5t139.5 -37.5t140 38zM240 133q-45 27 -69 79q-11 25 -16 56t-5 85q0 55 5 85.5t16 55.5q23 51 68.5 79
t106.5 28q77 0 129 -47q55 -51 54 -137h-129q-1 18 -3.5 30t-7.5 21q-15 22 -47 22q-19 0 -32 -8t-20 -26q-5 -13 -7.5 -35.5t-2.5 -65.5t2 -65t8 -36q16 -33 54 -33q17 0 28 6.5t18 17.5q6 8 8 19.5t3 28.5h130q0 -48 -13.5 -82.5t-40.5 -59.5q-51 -45 -130 -45
q-62 0 -107 27z" />
    <glyph glyph-name="ordfeminine" unicode="&#xaa;" horiz-adv-x="342" 
d="M317.5 616.5q3.5 -20.5 3.5 -50.5v-213h-114v38q-35 -46 -95 -46q-35 0 -59 12.5t-35 37.5q-4 11 -6 23t-2 32q0 22 2 35t7 25q14 32 51 45.5t99 13.5h38v5q0 20 -1 30t-3 16q-8 16 -33 16q-13 0 -20 -4t-11 -11q-3 -9 -3 -25h-116q0 19 2.5 32.5t7.5 24.5q29 64 140 64
q55 0 88.5 -15.5t48.5 -48.5q7 -16 10.5 -36.5zM202 451q3 6 4 17t1 32v7h-28q-19 0 -31 -3.5t-16 -13.5q-2 -4 -2.5 -9t-0.5 -14q0 -13 3 -21q7 -15 32 -15q29 0 38 20z" />
    <glyph glyph-name="guillemotleft" unicode="&#xab;" horiz-adv-x="503" 
d="M10 294l123 164h147l-123 -164l123 -164h-147zM222 294l123 164h147l-123 -164l123 -164h-147z" />
    <glyph glyph-name="logicalnot" unicode="&#xac;" horiz-adv-x="505" 
d="M350 315h-313v116h432v-351h-119v235z" />
    <glyph glyph-name="uni00AD" unicode="&#xad;" horiz-adv-x="339" 
d="M37 363h265v-128h-265v128z" />
    <glyph glyph-name="registered" unicode="&#xae;" horiz-adv-x="411" 
d="M389 575.5q4 -22.5 4 -63.5t-4 -63.5t-14 -44.5q-21 -46 -64.5 -70.5t-104.5 -24.5t-105 24.5t-64 70.5q-11 22 -15 45t-4 63t4 63t15 45q20 46 64 70.5t105 24.5t104.5 -24.5t64.5 -70.5q10 -22 14 -44.5zM337 458q3 20 3 54t-3 54t-11 37q-15 33 -44.5 48.5t-75.5 15.5
q-47 0 -76.5 -15.5t-43.5 -48.5q-8 -17 -11 -37t-3 -54t3 -54t11 -36q14 -33 44 -49t76 -16t75.5 16t44.5 49q8 16 11 36zM292.5 520q-6.5 -13 -22.5 -19q15 -6 21 -18t6 -29v-55h-69v50q0 14 -5 20t-19 6h-17v-76h-68v227h102q42 0 60 -16.5t18 -52.5q0 -24 -6.5 -37z
M224.5 534q5.5 5 5.5 18q0 12 -5.5 17t-18.5 5h-19v-45h19q13 0 18.5 5z" />
    <glyph glyph-name="macron" unicode="&#xaf;" horiz-adv-x="375" 
d="M50 674h275v-97h-275v97z" />
    <glyph glyph-name="degree" unicode="&#xb0;" horiz-adv-x="340" 
d="M91.5 456.5q-34.5 18.5 -53.5 50.5t-19 73t19 73.5t53.5 50.5t78.5 18t78.5 -18t53.5 -50.5t19 -73.5t-19 -73t-53.5 -50.5t-78.5 -18.5t-78.5 18.5zM205.5 544q13.5 13 13.5 36t-13.5 37t-35.5 14q-23 0 -36.5 -14t-13.5 -37t13.5 -36t36.5 -13q22 0 35.5 13z" />
    <glyph glyph-name="plusminus" unicode="&#xb1;" horiz-adv-x="505" 
d="M469 429v-117h-157v-111h-119v111h-156v117h156v109h119v-109h157zM37 171h432v-118h-432v118z" />
    <glyph glyph-name="twosuperior" unicode="&#xb2;" horiz-adv-x="322" 
d="M1 443l155 193q22 28 30 42t8 30t-3 20q-5 8 -12 12t-19 4q-26 0 -34 -18q-3 -6 -4 -12t-1 -15h-111q0 23 3 38t10 30q30 69 137 69q50 0 85.5 -16.5t50.5 -49.5q10 -23 10 -55q0 -29 -7.5 -50.5t-26.5 -43.5q-28 -35 -74 -81h110v-102h-307v5z" />
    <glyph glyph-name="threesuperior" unicode="&#xb3;" horiz-adv-x="328" 
d="M307 580.5q2 -11.5 2 -30.5q0 -21 -2 -33t-7 -22q-15 -33 -51.5 -50t-90.5 -17q-103 0 -133 65q-7 15 -10 35t-3 52l102 -1q0 -14 1 -25t5 -17q8 -18 35 -18q26 0 34 16q4 8 4 26q0 8 -1 14t-3 10q-4 9 -14.5 12.5t-30.5 3.5h-11v74h11q34 0 42 17q3 8 3 20q0 13 -3 19
q-6 14 -29 14q-25 0 -33 -17q-2 -5 -3 -11t-1 -17h-103q0 22 2.5 37t7.5 28q17 36 52.5 53.5t84.5 17.5q47 0 81.5 -16.5t48.5 -47.5q8 -19 8 -50q0 -13 -1.5 -22t-5.5 -17q-12 -27 -48 -41q41 -11 54 -40q4 -10 6 -21.5z" />
    <glyph glyph-name="acute" unicode="&#xb4;" horiz-adv-x="322" 
d="M128 705h144l-94 -149h-128z" />
    <glyph glyph-name="mu" unicode="&#xb5;" horiz-adv-x="487" 
d="M454 506v-506h-147v61q-18 -35 -46 -53.5t-64 -18.5q-9 0 -25 2q10 -57 10 -128v-54h-149v697h150v-316q0 -40 13.5 -57t43.5 -17q32 0 48 18.5t16 57.5v314h150z" />
    <glyph glyph-name="paragraph" unicode="&#xb6;" horiz-adv-x="645" 
d="M254 270h-45q-137 0 -180 96q-10 21 -13.5 48t-3.5 75q0 47 3.5 74t13.5 49q42 94 187 94h423v-127h-55v-770h-133v770h-66v-770h-131v461z" />
    <glyph glyph-name="periodcentered" unicode="&#xb7;" horiz-adv-x="302" 
d="M88 236.5q-25 23.5 -25 62.5t24.5 62.5t64.5 23.5q39 0 63 -23.5t24 -62.5t-24 -62.5t-63 -23.5t-64 23.5z" />
    <glyph glyph-name="cedilla" unicode="&#xb8;" horiz-adv-x="332" 
d="M257 -45.5q25 -23.5 25 -62.5q0 -53 -36.5 -75.5t-103.5 -22.5q-53 0 -92 15l15 70q30 -12 65 -12q24 0 37 6.5t13 22.5q0 15 -13 22t-41 7h-51l21 94h99l-9 -41h4q42 0 67 -23.5z" />
    <glyph glyph-name="onesuperior" unicode="&#xb9;" horiz-adv-x="223" 
d="M66 722h-61l18 104h162v-388h-119v284z" />
    <glyph glyph-name="ordmasculine" unicode="&#xba;" horiz-adv-x="350" 
d="M85.5 367q-37.5 21 -55.5 61q-9 19 -13 42t-4 61t4 61.5t13 42.5q18 40 55.5 61t89.5 21q53 0 90.5 -21t55.5 -61q9 -19 13 -42.5t4 -61.5t-4 -61t-13 -42q-18 -40 -55.5 -61t-90.5 -21q-52 0 -89.5 21zM197.5 448q8.5 5 12.5 15q4 8 5.5 22.5t1.5 45.5q0 32 -1.5 46.5
t-5.5 22.5q-4 10 -12.5 15t-22.5 5q-25 0 -34 -20q-4 -8 -5.5 -22.5t-1.5 -46.5q0 -31 1.5 -45.5t5.5 -22.5q9 -20 34 -20q14 0 22.5 5z" />
    <glyph glyph-name="guillemotright" unicode="&#xbb;" horiz-adv-x="503" 
d="M10 130l124 164l-124 164h148l123 -164l-123 -164h-148zM222 130l124 164l-124 164h148l123 -164l-123 -164h-148z" />
    <glyph glyph-name="onequarter" unicode="&#xbc;" horiz-adv-x="735" 
d="M66 602h-61l18 104h162v-388h-119v284zM453 706h89l-370 -706h-88zM566 69h-209v2l121 317h197v-222h51v-97h-51v-69h-109v69zM566 166v184l-61 -184h61z" />
    <glyph glyph-name="onehalf" unicode="&#xbd;" horiz-adv-x="707" 
d="M66 602h-61l18 104h162v-388h-119v284zM453 706h89l-370 -706h-88zM385 5l155 193q22 28 30 42t8 30t-3 20q-5 8 -12 12t-19 4q-26 0 -34 -18q-3 -6 -4 -12t-1 -15h-111q0 23 3 38t10 30q30 69 137 69q50 0 85.5 -16.5t50.5 -49.5q10 -23 10 -55q0 -29 -7.5 -50.5
t-26.5 -43.5q-28 -35 -74 -81h110v-102h-307v5z" />
    <glyph glyph-name="threequarters" unicode="&#xbe;" horiz-adv-x="832" 
d="M307 460.5q2 -11.5 2 -30.5q0 -21 -2 -33t-7 -22q-15 -33 -51.5 -50t-90.5 -17q-103 0 -133 65q-7 15 -10 35t-3 52l102 -1q0 -14 1 -25t5 -17q8 -18 35 -18q26 0 34 16q4 8 4 26q0 8 -1 14t-3 10q-4 9 -14.5 12.5t-30.5 3.5h-11v74h11q34 0 42 17q3 8 3 20q0 13 -3 19
q-6 14 -29 14q-25 0 -33 -17q-2 -5 -3 -11t-1 -17h-103q0 22 2.5 37t7.5 28q17 36 52.5 53.5t84.5 17.5q47 0 81.5 -16.5t48.5 -47.5q8 -19 8 -50q0 -13 -1.5 -22t-5.5 -17q-12 -27 -48 -41q41 -11 54 -40q4 -10 6 -21.5zM550 706h89l-370 -706h-88zM662 69h-209v2l121 317
h197v-222h51v-97h-51v-69h-109v69zM662 166v184l-61 -184h61z" />
    <glyph glyph-name="questiondown" unicode="&#xbf;" horiz-adv-x="477" 
d="M187 371.5q-25 23.5 -25 61.5q0 40 24.5 63.5t64.5 23.5q39 0 63 -23.5t24 -63.5q0 -38 -24 -61.5t-63 -23.5t-64 23.5zM125.5 -182.5q-46.5 19.5 -71.5 57t-25 89.5q0 29 10 59.5t34 80t91 180.5h165l-13 -24q-61 -116 -85 -164t-33.5 -75t-9.5 -50q0 -26 12.5 -39
t42.5 -13q20 0 32.5 7t19.5 21q4 9 5 20t1 36h147q0 -37 -3.5 -60t-11.5 -44q-23 -49 -73.5 -75t-123.5 -26q-64 0 -110.5 19.5z" />
    <glyph glyph-name="Agrave" unicode="&#xc0;" horiz-adv-x="600" 
d="M406 125h-212l-29 -125h-166l177 706h249l176 -706h-166zM377 253l-76 329h-2l-76 -329h154zM250 749l-100 132h149l85 -132h-134z" />
    <glyph glyph-name="Aacute" unicode="&#xc1;" horiz-adv-x="600" 
d="M406 125h-212l-29 -125h-166l177 706h249l176 -706h-166zM377 253l-76 329h-2l-76 -329h154zM302 881h149l-99 -132h-135z" />
    <glyph glyph-name="Acircumflex" unicode="&#xc2;" horiz-adv-x="600" 
d="M406 125h-212l-29 -125h-166l177 706h249l176 -706h-166zM377 253l-76 329h-2l-76 -329h154zM217 881h167l90 -132h-129l-45 66l-45 -66h-128z" />
    <glyph glyph-name="Atilde" unicode="&#xc3;" horiz-adv-x="600" 
d="M406 125h-212l-29 -125h-166l177 706h249l176 -706h-166zM377 253l-76 329h-2l-76 -329h154zM337 752q-18 6 -39 16q-7 3 -19.5 9.5t-21.5 9.5t-17 3q-30 0 -33 -43h-79q2 68 25.5 101.5t73.5 33.5q23 0 39.5 -6.5t39.5 -20.5q15 -9 26 -13t23 -4q16 0 23.5 10t12.5 33
h81q-3 -135 -97 -135q-20 0 -38 6z" />
    <glyph glyph-name="Adieresis" unicode="&#xc4;" horiz-adv-x="600" 
d="M406 125h-212l-29 -125h-166l177 706h249l176 -706h-166zM377 253l-76 329h-2l-76 -329h154zM148 768q-21 20 -21 51t21 51t53 20t52.5 -20t20.5 -51t-20.5 -51t-52.5 -20t-53 20zM347 768q-21 20 -21 51t21 51t53 20t53 -20t21 -51t-21 -51t-53 -20t-53 20z" />
    <glyph glyph-name="Aring" unicode="&#xc5;" horiz-adv-x="600" 
d="M406 125h-212l-29 -125h-166l177 706h249l176 -706h-166zM377 253l-76 329h-2l-76 -329h154zM233.5 741.5q-28.5 14.5 -44 40.5t-15.5 60q0 35 15.5 61t44 40t65.5 14q38 0 67 -14.5t44.5 -40.5t15.5 -60t-16 -60t-44.5 -40.5t-66.5 -14.5q-37 0 -65.5 14.5zM332 811
q12 12 12 31q0 20 -12 32t-33 12q-19 0 -31 -12t-12 -32q0 -19 12 -31t31 -12q21 0 33 12z" />
    <glyph glyph-name="AE" unicode="&#xc6;" horiz-adv-x="708" 
d="M481 567l12 -136h188v-135h-176l14 -157h165v-139h-315l-10 125h-159l-34 -125h-167l212 706h473v-139h-203zM350 252l-25 322h-2l-88 -322h115z" />
    <glyph glyph-name="Ccedilla" unicode="&#xc7;" horiz-adv-x="605" 
d="M582 247q0 -125 -76 -195q-29 -27 -68 -44t-85 -22l-2 -9h5q42 0 67 -23.5t25 -62.5q0 -53 -37 -76t-104 -23q-50 0 -92 16l15 70q32 -12 65 -12q25 0 38 6.5t13 22.5q0 15 -13.5 22t-41.5 7h-50l14 65q-70 11 -119.5 49.5t-77.5 101.5q-17 38 -24.5 85.5t-7.5 127.5
t7.5 127.5t24.5 86.5q34 75 98.5 115t158.5 40q56 0 103 -17t82 -49q39 -35 58.5 -85t21.5 -117h-172q0 39 -7 61t-23 36q-14 13 -30 18.5t-41 5.5q-67 0 -93 -59q-9 -23 -13 -56t-4 -106q0 -75 3.5 -109t13.5 -56q26 -58 95 -58q44 0 71 24q14 14 22 35t9 57h171z" />
    <glyph glyph-name="Egrave" unicode="&#xc8;" horiz-adv-x="447" 
d="M41 706h381v-139h-219v-136h216v-135h-216v-157h219v-139h-381v706zM182 749l-100 132h149l85 -132h-134z" />
    <glyph glyph-name="Eacute" unicode="&#xc9;" horiz-adv-x="447" 
d="M41 706h381v-139h-219v-136h216v-135h-216v-157h219v-139h-381v706zM234 881h149l-99 -132h-135z" />
    <glyph glyph-name="Ecircumflex" unicode="&#xca;" horiz-adv-x="447" 
d="M41 706h381v-139h-219v-136h216v-135h-216v-157h219v-139h-381v706zM149 881h167l90 -132h-129l-45 66l-45 -66h-128z" />
    <glyph glyph-name="Edieresis" unicode="&#xcb;" horiz-adv-x="447" 
d="M41 706h381v-139h-219v-136h216v-135h-216v-157h219v-139h-381v706zM81 768q-21 20 -21 51t21 51t53 20t52.5 -20t20.5 -51t-20.5 -51t-52.5 -20t-53 20zM280 768q-21 20 -21 51t21 51t53 20t53 -20t21 -51t-21 -51t-53 -20t-53 20z" />
    <glyph glyph-name="Igrave" unicode="&#xcc;" horiz-adv-x="244" 
d="M41 706h162v-706h-162v706zM72 749l-100 132h149l85 -132h-134z" />
    <glyph glyph-name="Iacute" unicode="&#xcd;" horiz-adv-x="244" 
d="M41 706h162v-706h-162v706zM124 881h149l-99 -132h-135z" />
    <glyph glyph-name="Icircumflex" unicode="&#xce;" horiz-adv-x="244" 
d="M41 706h162v-706h-162v706zM41 881h162l76 -132h-121l-35 66l-35 -66h-122z" />
    <glyph glyph-name="Idieresis" unicode="&#xcf;" horiz-adv-x="244" 
d="M41 706h162v-706h-162v706zM-8.5 767.5q-19.5 20.5 -19.5 50.5q0 31 19.5 51t49.5 20q31 0 50.5 -20t19.5 -51q0 -30 -20 -50.5t-50 -20.5t-49.5 20.5zM154 767q-20 20 -20 50q0 32 20 52t50 20t50 -20t20 -52q0 -30 -20 -50t-50 -20t-50 20z" />
    <glyph glyph-name="Eth" unicode="&#xd0;" horiz-adv-x="599" 
d="M566 477q7 -45 7 -124t-7 -124t-23 -81q-31 -71 -96.5 -109.5t-161.5 -38.5h-242v309h-47v106h47v291h242q96 0 161.5 -38.5t96.5 -109.5q16 -36 23 -81zM398.5 260.5q3.5 29.5 3.5 91.5q0 64 -3.5 93.5t-12.5 50.5q-15 35 -46 52t-82 17h-53v-150h112v-106h-112v-168h53
q51 0 82 17t46 52q9 21 12.5 50.5z" />
    <glyph glyph-name="Ntilde" unicode="&#xd1;" horiz-adv-x="616" 
d="M41 706h156l221 -414v414h157v-706h-155l-222 418v-418h-157v706zM344 752q-18 6 -39 16q-7 3 -19.5 9.5t-21.5 9.5t-17 3q-30 0 -33 -43h-79q2 68 25.5 101.5t73.5 33.5q23 0 39.5 -6.5t39.5 -20.5q15 -9 26 -13t23 -4q16 0 23.5 10t12.5 33h81q-3 -135 -97 -135
q-20 0 -38 6z" />
    <glyph glyph-name="Ograve" unicode="&#xd2;" horiz-adv-x="628" 
d="M164.5 19q-62.5 35 -95.5 102q-23 40 -33 94t-10 138q0 78 7.5 127t25.5 89q33 74 97.5 113.5t157.5 39.5t157.5 -39.5t97.5 -113.5q18 -40 25.5 -89t7.5 -127t-7.5 -127t-25.5 -89q-33 -74 -97.5 -113.5t-157.5 -39.5q-87 0 -149.5 35zM376 148.5q24 16.5 38 47.5
q10 23 14 55.5t4 101.5q0 70 -3.5 102.5t-13.5 54.5q-14 31 -38.5 47.5t-62.5 16.5t-62.5 -16.5t-38.5 -47.5q-10 -22 -13 -53.5t-3 -103.5q0 -70 3.5 -102.5t13.5 -54.5q14 -31 38 -47.5t62 -16.5t62 16.5zM264 749l-100 132h149l85 -132h-134z" />
    <glyph glyph-name="Oacute" unicode="&#xd3;" horiz-adv-x="628" 
d="M164.5 19q-62.5 35 -95.5 102q-23 40 -33 94t-10 138q0 78 7.5 127t25.5 89q33 74 97.5 113.5t157.5 39.5t157.5 -39.5t97.5 -113.5q18 -40 25.5 -89t7.5 -127t-7.5 -127t-25.5 -89q-33 -74 -97.5 -113.5t-157.5 -39.5q-87 0 -149.5 35zM376 148.5q24 16.5 38 47.5
q10 23 14 55.5t4 101.5q0 70 -3.5 102.5t-13.5 54.5q-14 31 -38.5 47.5t-62.5 16.5t-62.5 -16.5t-38.5 -47.5q-10 -22 -13 -53.5t-3 -103.5q0 -70 3.5 -102.5t13.5 -54.5q14 -31 38 -47.5t62 -16.5t62 16.5zM317 881h149l-99 -132h-135z" />
    <glyph glyph-name="Ocircumflex" unicode="&#xd4;" horiz-adv-x="628" 
d="M164.5 19q-62.5 35 -95.5 102q-23 40 -33 94t-10 138q0 78 7.5 127t25.5 89q33 74 97.5 113.5t157.5 39.5t157.5 -39.5t97.5 -113.5q18 -40 25.5 -89t7.5 -127t-7.5 -127t-25.5 -89q-33 -74 -97.5 -113.5t-157.5 -39.5q-87 0 -149.5 35zM376 148.5q24 16.5 38 47.5
q10 23 14 55.5t4 101.5q0 70 -3.5 102.5t-13.5 54.5q-14 31 -38.5 47.5t-62.5 16.5t-62.5 -16.5t-38.5 -47.5q-10 -22 -13 -53.5t-3 -103.5q0 -70 3.5 -102.5t13.5 -54.5q14 -31 38 -47.5t62 -16.5t62 16.5zM231 881h167l90 -132h-129l-45 66l-45 -66h-128z" />
    <glyph glyph-name="Otilde" unicode="&#xd5;" horiz-adv-x="628" 
d="M164.5 19q-62.5 35 -95.5 102q-23 40 -33 94t-10 138q0 78 7.5 127t25.5 89q33 74 97.5 113.5t157.5 39.5t157.5 -39.5t97.5 -113.5q18 -40 25.5 -89t7.5 -127t-7.5 -127t-25.5 -89q-33 -74 -97.5 -113.5t-157.5 -39.5q-87 0 -149.5 35zM376 148.5q24 16.5 38 47.5
q10 23 14 55.5t4 101.5q0 70 -3.5 102.5t-13.5 54.5q-14 31 -38.5 47.5t-62.5 16.5t-62.5 -16.5t-38.5 -47.5q-10 -22 -13 -53.5t-3 -103.5q0 -70 3.5 -102.5t13.5 -54.5q14 -31 38 -47.5t62 -16.5t62 16.5zM351 752q-18 6 -39 16q-7 3 -19.5 9.5t-21.5 9.5t-17 3
q-30 0 -33 -43h-79q2 68 25.5 101.5t73.5 33.5q23 0 39.5 -6.5t39.5 -20.5q15 -9 26 -13t23 -4q16 0 23.5 10t12.5 33h81q-3 -135 -97 -135q-20 0 -38 6z" />
    <glyph glyph-name="Odieresis" unicode="&#xd6;" horiz-adv-x="628" 
d="M164.5 19q-62.5 35 -95.5 102q-23 40 -33 94t-10 138q0 78 7.5 127t25.5 89q33 74 97.5 113.5t157.5 39.5t157.5 -39.5t97.5 -113.5q18 -40 25.5 -89t7.5 -127t-7.5 -127t-25.5 -89q-33 -74 -97.5 -113.5t-157.5 -39.5q-87 0 -149.5 35zM376 148.5q24 16.5 38 47.5
q10 23 14 55.5t4 101.5q0 70 -3.5 102.5t-13.5 54.5q-14 31 -38.5 47.5t-62.5 16.5t-62.5 -16.5t-38.5 -47.5q-10 -22 -13 -53.5t-3 -103.5q0 -70 3.5 -102.5t13.5 -54.5q14 -31 38 -47.5t62 -16.5t62 16.5zM163 768q-21 20 -21 51t21 51t53 20t52.5 -20t20.5 -51t-20.5 -51
t-52.5 -20t-53 20zM362 768q-21 20 -21 51t21 51t53 20t53 -20t21 -51t-21 -51t-53 -20t-53 20z" />
    <glyph glyph-name="multiply" unicode="&#xd7;" horiz-adv-x="505" 
d="M333 299l125 -125l-81 -81l-125 125l-124 -124l-80 80l124 125l-124 125l80 80l125 -125l124 125l81 -80z" />
    <glyph glyph-name="Oslash" unicode="&#xd8;" horiz-adv-x="628" 
d="M569 569q18 -40 25.5 -89t7.5 -127t-7.5 -127t-25.5 -89q-33 -74 -97.5 -113.5t-157.5 -39.5q-64 0 -115 19t-86 56l-49 -59h-81l92 110l-6 11q-23 40 -33 94t-10 138q0 78 7.5 127t25.5 89q33 74 97.5 113.5t157.5 39.5q125 0 199 -72l47 56h81l-89 -105q10 -17 17 -32z
M200 456.5q-3 -31.5 -3 -103.5q0 -63 3 -99l206 273q-30 47 -92 47q-38 0 -62.5 -16.5t-38.5 -47.5q-10 -22 -13 -53.5zM428 251.5q4 32.5 4 101.5q0 74 -4 106l-208 -274q29 -53 94 -53q38 0 62 16.5t38 47.5q10 23 14 55.5z" />
    <glyph glyph-name="Ugrave" unicode="&#xd9;" horiz-adv-x="565" 
d="M138.5 8.5q-54.5 24.5 -80.5 75t-26 130.5v492h163v-483q0 -96 86 -96q89 0 89 96v483h163v-492q0 -80 -26.5 -130.5t-82 -75t-143.5 -24.5t-142.5 24.5zM233 749l-100 132h149l85 -132h-134z" />
    <glyph glyph-name="Uacute" unicode="&#xda;" horiz-adv-x="565" 
d="M138.5 8.5q-54.5 24.5 -80.5 75t-26 130.5v492h163v-483q0 -96 86 -96q89 0 89 96v483h163v-492q0 -80 -26.5 -130.5t-82 -75t-143.5 -24.5t-142.5 24.5zM285 881h149l-99 -132h-135z" />
    <glyph glyph-name="Ucircumflex" unicode="&#xdb;" horiz-adv-x="565" 
d="M138.5 8.5q-54.5 24.5 -80.5 75t-26 130.5v492h163v-483q0 -96 86 -96q89 0 89 96v483h163v-492q0 -80 -26.5 -130.5t-82 -75t-143.5 -24.5t-142.5 24.5zM200 881h167l90 -132h-129l-45 66l-45 -66h-128z" />
    <glyph glyph-name="Udieresis" unicode="&#xdc;" horiz-adv-x="565" 
d="M138.5 8.5q-54.5 24.5 -80.5 75t-26 130.5v492h163v-483q0 -96 86 -96q89 0 89 96v483h163v-492q0 -80 -26.5 -130.5t-82 -75t-143.5 -24.5t-142.5 24.5zM131 768q-21 20 -21 51t21 51t53 20t52.5 -20t20.5 -51t-20.5 -51t-52.5 -20t-53 20zM330 768q-21 20 -21 51t21 51
t53 20t53 -20t21 -51t-21 -51t-53 -20t-53 20z" />
    <glyph glyph-name="Yacute" unicode="&#xdd;" horiz-adv-x="531" 
d="M184 297l-185 409h170l97 -242l96 242h169l-184 -409v-297h-163v297zM270 881h149l-99 -132h-135z" />
    <glyph glyph-name="Thorn" unicode="&#xde;" horiz-adv-x="514" 
d="M41 706h162v-110h80q153 0 199 -101q11 -25 16 -56.5t5 -80.5q0 -50 -5 -81t-16 -56q-23 -52 -72.5 -77t-126.5 -25h-80v-119h-162v706zM241 248q34 0 55 9.5t30 29.5q5 11 7 27t2 44t-2 44t-7 26q-9 20 -30 29.5t-55 9.5h-38v-219h38z" />
    <glyph glyph-name="germandbls" unicode="&#xdf;" horiz-adv-x="510" 
d="M488 281q4 -25 4 -66t-4 -66.5t-13 -46.5q-22 -49 -73.5 -76t-134.5 -27q-22 0 -48 2v112l16 -1q35 0 56.5 11.5t32.5 34.5q5 11 7 26t2 44q0 27 -2 42.5t-7 26.5q-21 46 -87 46h-15v106h13q33 0 50.5 9t26.5 28q3 8 4 19t1 26q0 17 -1.5 27t-4.5 18q-15 33 -59 33
q-23 0 -37.5 -8.5t-22.5 -27.5q-5 -12 -7 -28.5t-2 -43.5v-501h-150v490q0 42 5 72t16 55q24 53 72.5 79t126.5 26q152 0 197 -99q8 -18 11.5 -37t3.5 -45q0 -47 -13 -80q-20 -42 -62 -57q30 -10 50.5 -29.5t33.5 -47.5q10 -21 14 -46z" />
    <glyph glyph-name="agrave" unicode="&#xe0;" horiz-adv-x="477" 
d="M443.5 375.5q4.5 -29.5 4.5 -71.5v-304h-150v54q-21 -31 -55 -48.5t-81 -17.5q-50 0 -84.5 18.5t-50.5 53.5q-8 16 -11 34.5t-3 48.5t3 48.5t10 33.5q21 46 73 65t139 19h60v9q0 33 -1 44.5t-6 20.5q-12 26 -52 26q-23 0 -35.5 -6.5t-18.5 -19.5q-3 -7 -4 -15.5t-1 -21.5
h-151q0 27 3 45t10 34q21 46 71 69.5t126 23.5q77 0 123 -22t67 -68q10 -23 14.5 -52.5zM266 110.5q15 8.5 23 25.5q5 11 7 25t2 50v7h-46q-32 0 -51.5 -5.5t-25.5 -20.5q-3 -5 -4 -12.5t-1 -19.5q0 -13 1 -20.5t4 -13.5q11 -24 51 -24q25 0 40 8.5zM196 556l-94 149h144
l78 -149h-128z" />
    <glyph glyph-name="aacute" unicode="&#xe1;" horiz-adv-x="477" 
d="M443.5 375.5q4.5 -29.5 4.5 -71.5v-304h-150v54q-21 -31 -55 -48.5t-81 -17.5q-50 0 -84.5 18.5t-50.5 53.5q-8 16 -11 34.5t-3 48.5t3 48.5t10 33.5q21 46 73 65t139 19h60v9q0 33 -1 44.5t-6 20.5q-12 26 -52 26q-23 0 -35.5 -6.5t-18.5 -19.5q-3 -7 -4 -15.5t-1 -21.5
h-151q0 27 3 45t10 34q21 46 71 69.5t126 23.5q77 0 123 -22t67 -68q10 -23 14.5 -52.5zM266 110.5q15 8.5 23 25.5q5 11 7 25t2 50v7h-46q-32 0 -51.5 -5.5t-25.5 -20.5q-3 -5 -4 -12.5t-1 -19.5q0 -13 1 -20.5t4 -13.5q11 -24 51 -24q25 0 40 8.5zM240 705h144l-94 -149
h-128z" />
    <glyph glyph-name="acircumflex" unicode="&#xe2;" horiz-adv-x="477" 
d="M443.5 375.5q4.5 -29.5 4.5 -71.5v-304h-150v54q-21 -31 -55 -48.5t-81 -17.5q-50 0 -84.5 18.5t-50.5 53.5q-8 16 -11 34.5t-3 48.5t3 48.5t10 33.5q21 46 73 65t139 19h60v9q0 33 -1 44.5t-6 20.5q-12 26 -52 26q-23 0 -35.5 -6.5t-18.5 -19.5q-3 -7 -4 -15.5t-1 -21.5
h-151q0 27 3 45t10 34q21 46 71 69.5t126 23.5q77 0 123 -22t67 -68q10 -23 14.5 -52.5zM266 110.5q15 8.5 23 25.5q5 11 7 25t2 50v7h-46q-32 0 -51.5 -5.5t-25.5 -20.5q-3 -5 -4 -12.5t-1 -19.5q0 -13 1 -20.5t4 -13.5q11 -24 51 -24q25 0 40 8.5zM160 706h167l90 -151
h-129l-45 82l-46 -82h-128z" />
    <glyph glyph-name="atilde" unicode="&#xe3;" horiz-adv-x="477" 
d="M443.5 375.5q4.5 -29.5 4.5 -71.5v-304h-150v54q-21 -31 -55 -48.5t-81 -17.5q-50 0 -84.5 18.5t-50.5 53.5q-8 16 -11 34.5t-3 48.5t3 48.5t10 33.5q21 46 73 65t139 19h60v9q0 33 -1 44.5t-6 20.5q-12 26 -52 26q-23 0 -35.5 -6.5t-18.5 -19.5q-3 -7 -4 -15.5t-1 -21.5
h-151q0 27 3 45t10 34q21 46 71 69.5t126 23.5q77 0 123 -22t67 -68q10 -23 14.5 -52.5zM266 110.5q15 8.5 23 25.5q5 11 7 25t2 50v7h-46q-32 0 -51.5 -5.5t-25.5 -20.5q-3 -5 -4 -12.5t-1 -19.5q0 -13 1 -20.5t4 -13.5q11 -24 51 -24q25 0 40 8.5zM275 561q-18 7 -36 20
q-20 13 -30.5 18.5t-21.5 5.5q-15 0 -21.5 -12t-8.5 -37h-82q2 78 24 115t69 37q22 0 39.5 -7.5t37.5 -20.5q19 -12 30.5 -17.5t22.5 -5.5q15 0 21.5 11.5t7.5 37.5h83q-2 -78 -24 -115t-70 -37q-23 0 -41 7z" />
    <glyph glyph-name="adieresis" unicode="&#xe4;" horiz-adv-x="477" 
d="M443.5 375.5q4.5 -29.5 4.5 -71.5v-304h-150v54q-21 -31 -55 -48.5t-81 -17.5q-50 0 -84.5 18.5t-50.5 53.5q-8 16 -11 34.5t-3 48.5t3 48.5t10 33.5q21 46 73 65t139 19h60v9q0 33 -1 44.5t-6 20.5q-12 26 -52 26q-23 0 -35.5 -6.5t-18.5 -19.5q-3 -7 -4 -15.5t-1 -21.5
h-151q0 27 3 45t10 34q21 46 71 69.5t126 23.5q77 0 123 -22t67 -68q10 -23 14.5 -52.5zM266 110.5q15 8.5 23 25.5q5 11 7 25t2 50v7h-46q-32 0 -51.5 -5.5t-25.5 -20.5q-3 -5 -4 -12.5t-1 -19.5q0 -13 1 -20.5t4 -13.5q11 -24 51 -24q25 0 40 8.5zM92.5 575.5
q-21.5 20.5 -21.5 52.5t21.5 52.5t54.5 20.5t54.5 -20.5t21.5 -52.5t-21.5 -52.5t-54.5 -20.5t-54.5 20.5zM299 563.5q-17 9.5 -27 26.5t-10 37q0 32 21.5 53t54.5 21q21 0 38.5 -9.5t27.5 -26.5t10 -38q0 -20 -10 -37t-27.5 -26.5t-38.5 -9.5q-22 0 -39 9.5z" />
    <glyph glyph-name="aring" unicode="&#xe5;" horiz-adv-x="477" 
d="M443.5 375.5q4.5 -29.5 4.5 -71.5v-304h-150v54q-21 -31 -55 -48.5t-81 -17.5q-50 0 -84.5 18.5t-50.5 53.5q-8 16 -11 34.5t-3 48.5t3 48.5t10 33.5q21 46 73 65t139 19h60v9q0 33 -1 44.5t-6 20.5q-12 26 -52 26q-23 0 -35.5 -6.5t-18.5 -19.5q-3 -7 -4 -15.5t-1 -21.5
h-151q0 27 3 45t10 34q21 46 71 69.5t126 23.5q77 0 123 -22t67 -68q10 -23 14.5 -52.5zM266 110.5q15 8.5 23 25.5q5 11 7 25t2 50v7h-46q-32 0 -51.5 -5.5t-25.5 -20.5q-3 -5 -4 -12.5t-1 -19.5q0 -13 1 -20.5t4 -13.5q11 -24 51 -24q25 0 40 8.5zM176.5 559.5
q-28.5 14.5 -44 40.5t-15.5 60q0 35 15.5 61t44 40t65.5 14q38 0 67 -14.5t44.5 -40.5t15.5 -60t-16 -60t-44.5 -40.5t-66.5 -14.5q-37 0 -65.5 14.5zM275 629q12 12 12 31q0 20 -12 32t-33 12q-19 0 -31 -12t-12 -32q0 -19 12 -31t31 -12q21 0 33 12z" />
    <glyph glyph-name="ae" unicode="&#xe6;" horiz-adv-x="745" 
d="M565 137q4 12 5 34h154q-1 -45 -14 -76.5t-38 -54.5q-28 -25 -68.5 -38.5t-86.5 -13.5q-115 0 -170 75q-29 -37 -69 -56t-98 -19t-97 18.5t-56 56.5q-8 16 -11 34.5t-3 47.5t3 47t10 33q20 46 73 65t139 19h60v7q0 33 -1.5 45t-5.5 22q-12 26 -52 26q-23 0 -35.5 -6.5
t-18.5 -19.5q-2 -7 -3.5 -15t-1.5 -22h-151q0 27 3 45t10 34q21 46 71 69.5t126 23.5q52 0 86 -9t57 -29q49 38 126 38q72 0 121.5 -30.5t74.5 -84.5q14 -32 18 -70.5t4 -114.5h-279q1 -33 3 -51t7 -30q8 -17 21.5 -25t35.5 -8q23 0 38 13q9 8 13 20zM457 374
q-5 -12 -6.5 -24.5t-2.5 -40.5h125q-1 25 -3 39t-6 25q-16 33 -53 33q-38 0 -54 -32zM298 218h-46q-34 0 -52.5 -5.5t-24.5 -20.5q-3 -5 -4 -12.5t-1 -19.5q0 -14 1.5 -21t3.5 -13q6 -13 19 -18.5t33 -5.5q24 0 39.5 8t22.5 24q5 12 7 26.5t2 50.5v7z" />
    <glyph glyph-name="ccedilla" unicode="&#xe7;" horiz-adv-x="478" 
d="M293.5 152q4.5 15 4.5 43h161q-1 -55 -15 -91t-43 -63q-23 -20 -54 -33.5t-67 -17.5l-3 -13h5q42 0 67 -23t25 -62q0 -99 -140 -99q-50 0 -92 16l15 69q30 -12 65 -12q24 0 37 7t13 23q0 14 -13 21t-41 7h-51l15 70q-49 10 -84.5 38t-55.5 72q-13 27 -18.5 60.5
t-5.5 88.5t5.5 88.5t18.5 60.5q25 56 76.5 86t124.5 30q49 0 89.5 -13.5t68.5 -39.5q28 -25 42.5 -61t16.5 -87h-161q-1 26 -6 40t-14 22q-15 13 -36 13q-18 0 -31.5 -8.5t-20.5 -24.5q-6 -14 -8 -34.5t-2 -71.5q0 -50 2 -71t8 -34q14 -33 52 -33q23 0 36 13q10 9 14.5 24z
" />
    <glyph glyph-name="egrave" unicode="&#xe8;" horiz-adv-x="484" 
d="M306.5 139.5q4.5 11.5 5.5 31.5h151q-1 -44 -14 -74.5t-39 -54.5q-29 -26 -71 -40t-90 -14q-76 0 -129.5 30.5t-78.5 86.5q-12 28 -17.5 61.5t-5.5 88.5q0 56 5 87.5t18 58.5q25 55 75.5 86t123.5 31q74 0 125.5 -30.5t77.5 -86.5q15 -34 19 -69t4 -114h-296q1 -32 3 -49
t7 -29q15 -36 65 -36q30 0 48 16q9 8 13.5 19.5zM180 370q-5 -12 -6.5 -23.5t-2.5 -37.5h143q-1 26 -3 38t-6 23q-17 36 -62 36q-46 0 -63 -36zM195 556l-94 149h144l78 -149h-128z" />
    <glyph glyph-name="eacute" unicode="&#xe9;" horiz-adv-x="484" 
d="M306.5 139.5q4.5 11.5 5.5 31.5h151q-1 -44 -14 -74.5t-39 -54.5q-29 -26 -71 -40t-90 -14q-76 0 -129.5 30.5t-78.5 86.5q-12 28 -17.5 61.5t-5.5 88.5q0 56 5 87.5t18 58.5q25 55 75.5 86t123.5 31q74 0 125.5 -30.5t77.5 -86.5q15 -34 19 -69t4 -114h-296q1 -32 3 -49
t7 -29q15 -36 65 -36q30 0 48 16q9 8 13.5 19.5zM180 370q-5 -12 -6.5 -23.5t-2.5 -37.5h143q-1 26 -3 38t-6 23q-17 36 -62 36q-46 0 -63 -36zM240 705h144l-94 -149h-128z" />
    <glyph glyph-name="ecircumflex" unicode="&#xea;" horiz-adv-x="484" 
d="M306.5 139.5q4.5 11.5 5.5 31.5h151q-1 -44 -14 -74.5t-39 -54.5q-29 -26 -71 -40t-90 -14q-76 0 -129.5 30.5t-78.5 86.5q-12 28 -17.5 61.5t-5.5 88.5q0 56 5 87.5t18 58.5q25 55 75.5 86t123.5 31q74 0 125.5 -30.5t77.5 -86.5q15 -34 19 -69t4 -114h-296q1 -32 3 -49
t7 -29q15 -36 65 -36q30 0 48 16q9 8 13.5 19.5zM180 370q-5 -12 -6.5 -23.5t-2.5 -37.5h143q-1 26 -3 38t-6 23q-17 36 -62 36q-46 0 -63 -36zM160 706h167l90 -151h-129l-45 82l-46 -82h-128z" />
    <glyph glyph-name="edieresis" unicode="&#xeb;" horiz-adv-x="484" 
d="M306.5 139.5q4.5 11.5 5.5 31.5h151q-1 -44 -14 -74.5t-39 -54.5q-29 -26 -71 -40t-90 -14q-76 0 -129.5 30.5t-78.5 86.5q-12 28 -17.5 61.5t-5.5 88.5q0 56 5 87.5t18 58.5q25 55 75.5 86t123.5 31q74 0 125.5 -30.5t77.5 -86.5q15 -34 19 -69t4 -114h-296q1 -32 3 -49
t7 -29q15 -36 65 -36q30 0 48 16q9 8 13.5 19.5zM180 370q-5 -12 -6.5 -23.5t-2.5 -37.5h143q-1 26 -3 38t-6 23q-17 36 -62 36q-46 0 -63 -36zM92.5 575.5q-21.5 20.5 -21.5 52.5t21.5 52.5t54.5 20.5t54.5 -20.5t21.5 -52.5t-21.5 -52.5t-54.5 -20.5t-54.5 20.5z
M299 563.5q-17 9.5 -27 26.5t-10 37q0 32 21.5 53t54.5 21q21 0 38.5 -9.5t27.5 -26.5t10 -38q0 -20 -10 -37t-27.5 -26.5t-38.5 -9.5q-22 0 -39 9.5z" />
    <glyph glyph-name="igrave" unicode="&#xec;" horiz-adv-x="216" 
d="M33 506h150v-506h-150v506zM65 556l-83 149h142l63 -149h-122z" />
    <glyph glyph-name="iacute" unicode="&#xed;" horiz-adv-x="216" 
d="M33 506h150v-506h-150v506zM93 705h142l-83 -149h-122z" />
    <glyph glyph-name="icircumflex" unicode="&#xee;" horiz-adv-x="216" 
d="M33 506h150v-506h-150v506zM40 706h139l64 -151h-102l-32 81l-33 -81h-102z" />
    <glyph glyph-name="idieresis" unicode="&#xef;" horiz-adv-x="216" 
d="M33 506h150v-506h-150v506zM-8 577q-17 19 -17 51t17 51t46 19t46 -19t17 -51t-17 -51t-46 -19t-46 19zM132 577q-17 19 -17 51t17 51t46 19t46 -19t17 -51t-17 -51t-46 -19t-46 19z" />
    <glyph glyph-name="eth" unicode="&#xf0;" horiz-adv-x="496" 
d="M462 428.5q10 -34.5 13.5 -73.5t3.5 -99q0 -59 -5.5 -93t-17.5 -63q-49 -112 -214 -112q-74 0 -127.5 28t-77.5 81q-11 24 -15 53.5t-4 81.5q0 57 5 89.5t17 56.5q20 47 60 74t95 27q59 0 105 -32l-4 9q-17 39 -52 94l-182 -60v92l129 43q-21 29 -62 79v2h170
q20 -24 29 -36l107 36v-93l-53 -17q30 -45 50 -89t30 -78.5zM317 178q2 19 2 61q0 37 -2 55.5t-8 31.5q-9 18 -23.5 27.5t-35.5 9.5q-42 0 -58 -37q-6 -13 -8.5 -31t-2.5 -57q0 -41 2 -58.5t7 -29.5q17 -39 60 -39q44 0 59 37q6 11 8 30z" />
    <glyph glyph-name="ntilde" unicode="&#xf1;" horiz-adv-x="483" 
d="M416.5 475.5q37.5 -42.5 37.5 -121.5v-354h-150v318q0 39 -14 56t-44 17q-63 0 -63 -75v-316h-150v506h150v-55q22 33 53.5 50t73.5 17q69 0 106.5 -42.5zM277 561q-18 7 -36 20q-20 13 -30.5 18.5t-21.5 5.5q-15 0 -21.5 -12t-8.5 -37h-82q2 78 24 115t69 37
q22 0 39.5 -7.5t37.5 -20.5q19 -12 30.5 -17.5t22.5 -5.5q15 0 21.5 11.5t7.5 37.5h83q-2 -78 -24 -115t-70 -37q-23 0 -41 7z" />
    <glyph glyph-name="ograve" unicode="&#xf2;" horiz-adv-x="491" 
d="M118 19q-52 31 -77 87q-12 28 -17.5 60.5t-5.5 86.5t5.5 86.5t17.5 60.5q25 56 77 87t128 31q75 0 127 -31t77 -87q12 -28 17.5 -60.5t5.5 -86.5t-5.5 -86.5t-17.5 -60.5q-25 -56 -77 -87t-127 -31q-76 0 -128 31zM304 149q5 13 7.5 35.5t2.5 68.5t-2.5 68.5t-7.5 35.5
q-16 35 -58 35q-22 0 -36 -9t-22 -26q-6 -13 -8.5 -35.5t-2.5 -68.5t2.5 -68.5t8.5 -35.5q8 -17 21.5 -25.5t36.5 -8.5q43 0 58 34zM199 556l-94 149h144l78 -149h-128z" />
    <glyph glyph-name="oacute" unicode="&#xf3;" horiz-adv-x="491" 
d="M118 19q-52 31 -77 87q-12 28 -17.5 60.5t-5.5 86.5t5.5 86.5t17.5 60.5q25 56 77 87t128 31q75 0 127 -31t77 -87q12 -28 17.5 -60.5t5.5 -86.5t-5.5 -86.5t-17.5 -60.5q-25 -56 -77 -87t-127 -31q-76 0 -128 31zM304 149q5 13 7.5 35.5t2.5 68.5t-2.5 68.5t-7.5 35.5
q-16 35 -58 35q-22 0 -36 -9t-22 -26q-6 -13 -8.5 -35.5t-2.5 -68.5t2.5 -68.5t8.5 -35.5q8 -17 21.5 -25.5t36.5 -8.5q43 0 58 34zM244 705h144l-94 -149h-128z" />
    <glyph glyph-name="ocircumflex" unicode="&#xf4;" horiz-adv-x="491" 
d="M118 19q-52 31 -77 87q-12 28 -17.5 60.5t-5.5 86.5t5.5 86.5t17.5 60.5q25 56 77 87t128 31q75 0 127 -31t77 -87q12 -28 17.5 -60.5t5.5 -86.5t-5.5 -86.5t-17.5 -60.5q-25 -56 -77 -87t-127 -31q-76 0 -128 31zM304 149q5 13 7.5 35.5t2.5 68.5t-2.5 68.5t-7.5 35.5
q-16 35 -58 35q-22 0 -36 -9t-22 -26q-6 -13 -8.5 -35.5t-2.5 -68.5t2.5 -68.5t8.5 -35.5q8 -17 21.5 -25.5t36.5 -8.5q43 0 58 34zM163 706h167l90 -151h-129l-45 82l-46 -82h-128z" />
    <glyph glyph-name="otilde" unicode="&#xf5;" horiz-adv-x="491" 
d="M118 19q-52 31 -77 87q-12 28 -17.5 60.5t-5.5 86.5t5.5 86.5t17.5 60.5q25 56 77 87t128 31q75 0 127 -31t77 -87q12 -28 17.5 -60.5t5.5 -86.5t-5.5 -86.5t-17.5 -60.5q-25 -56 -77 -87t-127 -31q-76 0 -128 31zM304 149q5 13 7.5 35.5t2.5 68.5t-2.5 68.5t-7.5 35.5
q-16 35 -58 35q-22 0 -36 -9t-22 -26q-6 -13 -8.5 -35.5t-2.5 -68.5t2.5 -68.5t8.5 -35.5q8 -17 21.5 -25.5t36.5 -8.5q43 0 58 34zM278 561q-18 7 -36 20q-20 13 -30.5 18.5t-21.5 5.5q-15 0 -21.5 -12t-8.5 -37h-82q2 78 24 115t69 37q22 0 39.5 -7.5t37.5 -20.5
q19 -12 30.5 -17.5t22.5 -5.5q15 0 21.5 11.5t7.5 37.5h83q-2 -78 -24 -115t-70 -37q-23 0 -41 7z" />
    <glyph glyph-name="odieresis" unicode="&#xf6;" horiz-adv-x="491" 
d="M118 19q-52 31 -77 87q-12 28 -17.5 60.5t-5.5 86.5t5.5 86.5t17.5 60.5q25 56 77 87t128 31q75 0 127 -31t77 -87q12 -28 17.5 -60.5t5.5 -86.5t-5.5 -86.5t-17.5 -60.5q-25 -56 -77 -87t-127 -31q-76 0 -128 31zM304 149q5 13 7.5 35.5t2.5 68.5t-2.5 68.5t-7.5 35.5
q-16 35 -58 35q-22 0 -36 -9t-22 -26q-6 -13 -8.5 -35.5t-2.5 -68.5t2.5 -68.5t8.5 -35.5q8 -17 21.5 -25.5t36.5 -8.5q43 0 58 34zM95.5 575.5q-21.5 20.5 -21.5 52.5t21.5 52.5t54.5 20.5t54.5 -20.5t21.5 -52.5t-21.5 -52.5t-54.5 -20.5t-54.5 20.5zM302 563.5
q-17 9.5 -27 26.5t-10 37q0 32 21.5 53t54.5 21q21 0 38.5 -9.5t27.5 -26.5t10 -38q0 -20 -10 -37t-27.5 -26.5t-38.5 -9.5q-22 0 -39 9.5z" />
    <glyph glyph-name="divide" unicode="&#xf7;" horiz-adv-x="505" 
d="M203 425.5q-19 18.5 -19 49.5t19 49.5t51 18.5q30 0 48.5 -18.5t18.5 -49.5q0 -30 -18.5 -49t-48.5 -19q-32 0 -51 18.5zM37 357h432v-116h-432v116zM203.5 73q-19.5 19 -19.5 50t19 49t51 18q30 0 48.5 -18.5t18.5 -48.5q0 -31 -19 -50t-48 -19q-31 0 -50.5 19z" />
    <glyph glyph-name="oslash" unicode="&#xf8;" horiz-adv-x="491" 
d="M450 400q12 -28 17.5 -60.5t5.5 -86.5t-5.5 -86.5t-17.5 -60.5q-25 -56 -77 -87t-127 -31q-85 0 -141 39l-23 -27h-70l53 65q-15 22 -24 41q-12 28 -17.5 60.5t-5.5 86.5t5.5 86.5t17.5 60.5q25 56 77 87t128 31q81 0 138 -38l22 27h70l-52 -65q15 -17 26 -42z
M179.5 321.5q-2.5 -22.5 -2.5 -68.5q0 -39 1 -53l121 167q-17 25 -53 25q-22 0 -36 -9t-22 -26q-6 -13 -8.5 -35.5zM311.5 184.5q2.5 22.5 2.5 68.5q0 39 -1 52l-121 -164q15 -26 54 -26q43 0 58 34q5 13 7.5 35.5z" />
    <glyph glyph-name="ugrave" unicode="&#xf9;" horiz-adv-x="483" 
d="M450 506v-506h-150v55q-22 -33 -53.5 -50t-73.5 -17q-69 0 -106.5 42.5t-37.5 121.5v354h150v-318q0 -39 14 -56t44 -17q31 0 47 18t16 57v316h150zM184 556l-94 149h144l78 -149h-128z" />
    <glyph glyph-name="uacute" unicode="&#xfa;" horiz-adv-x="483" 
d="M450 506v-506h-150v55q-22 -33 -53.5 -50t-73.5 -17q-69 0 -106.5 42.5t-37.5 121.5v354h150v-318q0 -39 14 -56t44 -17q31 0 47 18t16 57v316h150zM229 705h144l-94 -149h-128z" />
    <glyph glyph-name="ucircumflex" unicode="&#xfb;" horiz-adv-x="483" 
d="M450 506v-506h-150v55q-22 -33 -53.5 -50t-73.5 -17q-69 0 -106.5 42.5t-37.5 121.5v354h150v-318q0 -39 14 -56t44 -17q31 0 47 18t16 57v316h150zM149 706h167l90 -151h-129l-45 82l-46 -82h-128z" />
    <glyph glyph-name="udieresis" unicode="&#xfc;" horiz-adv-x="483" 
d="M450 506v-506h-150v55q-22 -33 -53.5 -50t-73.5 -17q-69 0 -106.5 42.5t-37.5 121.5v354h150v-318q0 -39 14 -56t44 -17q31 0 47 18t16 57v316h150zM81.5 575.5q-21.5 20.5 -21.5 52.5t21.5 52.5t54.5 20.5t54.5 -20.5t21.5 -52.5t-21.5 -52.5t-54.5 -20.5t-54.5 20.5z
M288 563.5q-17 9.5 -27 26.5t-10 37q0 32 21.5 53t54.5 21q21 0 38.5 -9.5t27.5 -26.5t10 -38q0 -20 -10 -37t-27.5 -26.5t-38.5 -9.5q-22 0 -39 9.5z" />
    <glyph glyph-name="yacute" unicode="&#xfd;" horiz-adv-x="470" 
d="M473 506l-167 -506l-66 -191h-149l66 193l-161 504h162l76 -331l82 331h157zM234 705h144l-94 -149h-128z" />
    <glyph glyph-name="thorn" unicode="&#xfe;" horiz-adv-x="503" 
d="M478 355q6 -37 6 -102q0 -64 -6 -101.5t-19 -66.5q-21 -46 -60 -71.5t-93 -25.5q-80 0 -123 60v-239h-150v897h150v-248q22 31 52 45.5t71 14.5q54 0 93 -25.5t60 -71.5q13 -29 19 -66zM321.5 187.5q2.5 21.5 2.5 65.5q0 45 -2.5 67t-7.5 34q-17 38 -62 38
q-36 0 -53 -23.5t-17 -71.5v-86q0 -48 17 -71.5t53 -23.5q45 0 62 37q5 13 7.5 34.5z" />
    <glyph glyph-name="ydieresis" unicode="&#xff;" horiz-adv-x="470" 
d="M473 506l-167 -506l-66 -191h-149l66 193l-161 504h162l76 -331l82 331h157zM86.5 575.5q-21.5 20.5 -21.5 52.5t21.5 52.5t54.5 20.5t54.5 -20.5t21.5 -52.5t-21.5 -52.5t-54.5 -20.5t-54.5 20.5zM293 563.5q-17 9.5 -27 26.5t-10 37q0 32 21.5 53t54.5 21
q21 0 38.5 -9.5t27.5 -26.5t10 -38q0 -20 -10 -37t-27.5 -26.5t-38.5 -9.5q-22 0 -39 9.5z" />
    <glyph glyph-name="Amacron" unicode="&#x100;" horiz-adv-x="600" 
d="M406 125h-212l-29 -125h-166l177 706h249l176 -706h-166zM377 253l-76 329h-2l-76 -329h154zM157 864h286v-95h-286v95z" />
    <glyph glyph-name="amacron" unicode="&#x101;" horiz-adv-x="477" 
d="M443.5 375.5q4.5 -29.5 4.5 -71.5v-304h-150v54q-21 -31 -55 -48.5t-81 -17.5q-50 0 -84.5 18.5t-50.5 53.5q-8 16 -11 34.5t-3 48.5t3 48.5t10 33.5q21 46 73 65t139 19h60v9q0 33 -1 44.5t-6 20.5q-12 26 -52 26q-23 0 -35.5 -6.5t-18.5 -19.5q-3 -7 -4 -15.5t-1 -21.5
h-151q0 27 3 45t10 34q21 46 71 69.5t126 23.5q77 0 123 -22t67 -68q10 -23 14.5 -52.5zM266 110.5q15 8.5 23 25.5q5 11 7 25t2 50v7h-46q-32 0 -51.5 -5.5t-25.5 -20.5q-3 -5 -4 -12.5t-1 -19.5q0 -13 1 -20.5t4 -13.5q11 -24 51 -24q25 0 40 8.5zM105 674h275v-97h-275
v97z" />
    <glyph glyph-name="Abreve" unicode="&#x102;" horiz-adv-x="600" 
d="M406 125h-212l-29 -125h-166l177 706h249l176 -706h-166zM377 253l-76 329h-2l-76 -329h154zM185 777q-41 35 -45 104h102q4 -30 18.5 -43.5t41.5 -13.5q28 0 42.5 13t20.5 44h96q-3 -69 -43.5 -104t-115.5 -35q-76 0 -117 35z" />
    <glyph glyph-name="abreve" unicode="&#x103;" horiz-adv-x="477" 
d="M443.5 375.5q4.5 -29.5 4.5 -71.5v-304h-150v54q-21 -31 -55 -48.5t-81 -17.5q-50 0 -84.5 18.5t-50.5 53.5q-8 16 -11 34.5t-3 48.5t3 48.5t10 33.5q21 46 73 65t139 19h60v9q0 33 -1 44.5t-6 20.5q-12 26 -52 26q-23 0 -35.5 -6.5t-18.5 -19.5q-3 -7 -4 -15.5t-1 -21.5
h-151q0 27 3 45t10 34q21 46 71 69.5t126 23.5q77 0 123 -22t67 -68q10 -23 14.5 -52.5zM266 110.5q15 8.5 23 25.5q5 11 7 25t2 50v7h-46q-32 0 -51.5 -5.5t-25.5 -20.5q-3 -5 -4 -12.5t-1 -19.5q0 -13 1 -20.5t4 -13.5q11 -24 51 -24q25 0 40 8.5zM122.5 587.5
q-41.5 39.5 -45.5 118.5h105q4 -40 18.5 -57t43.5 -17t43 17t18 57h104q-6 -158 -165 -158q-80 0 -121.5 39.5z" />
    <glyph glyph-name="Aogonek" unicode="&#x104;" horiz-adv-x="600" 
d="M602 -107v-83q-32 -13 -72 -13q-52 0 -83.5 23.5t-31.5 66.5q0 37 23 64t64 49h-67l-29 125h-212l-29 -125h-166l177 706h249l176 -706q-34 -25 -51.5 -44t-17.5 -40q0 -15 9.5 -23t23.5 -8q18 0 37 8zM377 253l-76 329h-2l-76 -329h154z" />
    <glyph glyph-name="aogonek" unicode="&#x105;" horiz-adv-x="477" 
d="M396.5 -44q-17.5 -19 -17.5 -40q0 -15 9.5 -23t23.5 -8q18 0 36 8v-83q-30 -13 -71 -13q-52 0 -83.5 23.5t-31.5 66.5q0 37 23 64t64 49h-51v54q-21 -31 -55 -48.5t-81 -17.5q-50 0 -84.5 18.5t-50.5 53.5q-8 16 -11 34.5t-3 48.5t3 48.5t10 33.5q21 46 73 65t139 19h60
v9q0 33 -1 44.5t-6 20.5q-12 26 -52 26q-23 0 -35.5 -6.5t-18.5 -19.5q-3 -7 -4 -15.5t-1 -21.5h-151q0 27 3 45t10 34q21 46 71 69.5t126 23.5q77 0 123 -22t67 -68q10 -23 14.5 -52.5t4.5 -71.5v-304q-34 -25 -51.5 -44zM266 110.5q15 8.5 23 25.5q5 11 7 25t2 50v7h-46
q-32 0 -51.5 -5.5t-25.5 -20.5q-3 -5 -4 -12.5t-1 -19.5q0 -13 1 -20.5t4 -13.5q11 -24 51 -24q25 0 40 8.5z" />
    <glyph glyph-name="Cacute" unicode="&#x106;" horiz-adv-x="605" 
d="M157.5 24q-65.5 40 -99.5 116q-17 38 -24.5 85.5t-7.5 127.5t7.5 127.5t24.5 86.5q34 75 98.5 115t158.5 40q56 0 103 -17t82 -49q39 -35 58.5 -85t21.5 -117h-172q0 39 -7 61t-23 36q-14 13 -30 18.5t-41 5.5q-67 0 -93 -59q-9 -23 -13 -56t-4 -106q0 -75 3.5 -109
t13.5 -56q26 -58 95 -58q44 0 71 24q14 14 22 35t9 57h171q0 -125 -76 -195q-36 -33 -85 -50.5t-105 -17.5q-93 0 -158.5 40zM317 881h149l-99 -132h-135z" />
    <glyph glyph-name="cacute" unicode="&#x107;" horiz-adv-x="478" 
d="M118.5 18q-51.5 30 -76.5 86q-13 27 -18.5 60.5t-5.5 88.5t5.5 88.5t18.5 60.5q25 56 76.5 86t124.5 30q49 0 89.5 -13.5t68.5 -39.5q28 -25 42.5 -61t16.5 -87h-161q-1 26 -6 40t-14 22q-15 13 -36 13q-18 0 -31.5 -8.5t-20.5 -24.5q-6 -14 -8 -34.5t-2 -71.5
q0 -50 2 -71t8 -34q14 -33 52 -33q23 0 36 13q10 9 14.5 24t4.5 43h161q-1 -55 -15 -91t-43 -63q-28 -25 -69 -39t-89 -14q-73 0 -124.5 30zM240 705h144l-94 -149h-128z" />
    <glyph glyph-name="Ccircumflex" unicode="&#x108;" horiz-adv-x="605" 
d="M157.5 24q-65.5 40 -99.5 116q-17 38 -24.5 85.5t-7.5 127.5t7.5 127.5t24.5 86.5q34 75 98.5 115t158.5 40q56 0 103 -17t82 -49q39 -35 58.5 -85t21.5 -117h-172q0 39 -7 61t-23 36q-14 13 -30 18.5t-41 5.5q-67 0 -93 -59q-9 -23 -13 -56t-4 -106q0 -75 3.5 -109
t13.5 -56q26 -58 95 -58q44 0 71 24q14 14 22 35t9 57h171q0 -125 -76 -195q-36 -33 -85 -50.5t-105 -17.5q-93 0 -158.5 40zM231 881h167l90 -132h-129l-45 66l-45 -66h-128z" />
    <glyph glyph-name="ccircumflex" unicode="&#x109;" horiz-adv-x="478" 
d="M118.5 18q-51.5 30 -76.5 86q-13 27 -18.5 60.5t-5.5 88.5t5.5 88.5t18.5 60.5q25 56 76.5 86t124.5 30q49 0 89.5 -13.5t68.5 -39.5q28 -25 42.5 -61t16.5 -87h-161q-1 26 -6 40t-14 22q-15 13 -36 13q-18 0 -31.5 -8.5t-20.5 -24.5q-6 -14 -8 -34.5t-2 -71.5
q0 -50 2 -71t8 -34q14 -33 52 -33q23 0 36 13q10 9 14.5 24t4.5 43h161q-1 -55 -15 -91t-43 -63q-28 -25 -69 -39t-89 -14q-73 0 -124.5 30zM160 706h167l90 -151h-129l-45 82l-46 -82h-128z" />
    <glyph glyph-name="Cdotaccent" unicode="&#x10a;" horiz-adv-x="605" 
d="M157.5 24q-65.5 40 -99.5 116q-17 38 -24.5 85.5t-7.5 127.5t7.5 127.5t24.5 86.5q34 75 98.5 115t158.5 40q56 0 103 -17t82 -49q39 -35 58.5 -85t21.5 -117h-172q0 39 -7 61t-23 36q-14 13 -30 18.5t-41 5.5q-67 0 -93 -59q-9 -23 -13 -56t-4 -106q0 -75 3.5 -109
t13.5 -56q26 -58 95 -58q44 0 71 24q14 14 22 35t9 57h171q0 -125 -76 -195q-36 -33 -85 -50.5t-105 -17.5q-93 0 -158.5 40zM257.5 769.5q-22.5 21.5 -22.5 54.5t22.5 53.5t56.5 20.5t56.5 -20.5t22.5 -53.5t-22.5 -54.5t-56.5 -21.5t-56.5 21.5z" />
    <glyph glyph-name="cdotaccent" unicode="&#x10b;" horiz-adv-x="478" 
d="M118.5 18q-51.5 30 -76.5 86q-13 27 -18.5 60.5t-5.5 88.5t5.5 88.5t18.5 60.5q25 56 76.5 86t124.5 30q49 0 89.5 -13.5t68.5 -39.5q28 -25 42.5 -61t16.5 -87h-161q-1 26 -6 40t-14 22q-15 13 -36 13q-18 0 -31.5 -8.5t-20.5 -24.5q-6 -14 -8 -34.5t-2 -71.5
q0 -50 2 -71t8 -34q14 -33 52 -33q23 0 36 13q10 9 14.5 24t4.5 43h161q-1 -55 -15 -91t-43 -63q-28 -25 -69 -39t-89 -14q-73 0 -124.5 30zM185 577.5q-23 21.5 -23 55.5t23 55.5t58 21.5q22 0 40.5 -10t29 -27.5t10.5 -39.5q0 -34 -22.5 -55.5t-57.5 -21.5t-58 21.5z" />
    <glyph glyph-name="Ccaron" unicode="&#x10c;" horiz-adv-x="605" 
d="M157.5 24q-65.5 40 -99.5 116q-17 38 -24.5 85.5t-7.5 127.5t7.5 127.5t24.5 86.5q34 75 98.5 115t158.5 40q56 0 103 -17t82 -49q39 -35 58.5 -85t21.5 -117h-172q0 39 -7 61t-23 36q-14 13 -30 18.5t-41 5.5q-67 0 -93 -59q-9 -23 -13 -56t-4 -106q0 -75 3.5 -109
t13.5 -56q26 -58 95 -58q44 0 71 24q14 14 22 35t9 57h171q0 -125 -76 -195q-36 -33 -85 -50.5t-105 -17.5q-93 0 -158.5 40zM398 749h-167l-90 132h129l45 -66l45 66h128z" />
    <glyph glyph-name="ccaron" unicode="&#x10d;" horiz-adv-x="478" 
d="M118.5 18q-51.5 30 -76.5 86q-13 27 -18.5 60.5t-5.5 88.5t5.5 88.5t18.5 60.5q25 56 76.5 86t124.5 30q49 0 89.5 -13.5t68.5 -39.5q28 -25 42.5 -61t16.5 -87h-161q-1 26 -6 40t-14 22q-15 13 -36 13q-18 0 -31.5 -8.5t-20.5 -24.5q-6 -14 -8 -34.5t-2 -71.5
q0 -50 2 -71t8 -34q14 -33 52 -33q23 0 36 13q10 9 14.5 24t4.5 43h161q-1 -55 -15 -91t-43 -63q-28 -25 -69 -39t-89 -14q-73 0 -124.5 30zM325 555h-167l-90 151h128l46 -81l46 81h128z" />
    <glyph glyph-name="Dcaron" unicode="&#x10e;" horiz-adv-x="597" 
d="M41 706h242q96 0 161.5 -38.5t96.5 -109.5q16 -36 23 -81t7 -124t-7 -124t-23 -81q-31 -71 -96.5 -109.5t-161.5 -38.5h-242v706zM256 141q51 0 81.5 17.5t45.5 51.5q9 20 13 49.5t4 92.5q0 64 -4 94t-13 50q-15 34 -45.5 51.5t-81.5 17.5h-53v-424h53zM367 749h-167
l-90 132h129l45 -66l45 66h128z" />
    <glyph glyph-name="dcaron" unicode="&#x10f;" horiz-adv-x="616" 
d="M469 706v-706h-146v53q-22 -33 -53 -49t-73 -16q-54 0 -93 25.5t-60 71.5q-13 29 -19.5 67t-6.5 101q0 64 6 101.5t20 66.5q21 46 60 71.5t93 25.5q41 0 71 -14.5t52 -45.5v248h149zM321 297q0 95 -71 95q-45 0 -62 -38q-5 -12 -7.5 -34t-2.5 -67t2.5 -67t7.5 -34
q17 -37 62 -37q71 0 71 94v88zM508 706h118l-35 -166h-103z" />
    <glyph glyph-name="Dcroat" unicode="&#x110;" horiz-adv-x="599" 
d="M566 477q7 -45 7 -124t-7 -124t-23 -81q-31 -71 -96.5 -109.5t-161.5 -38.5h-242v309h-47v106h47v291h242q96 0 161.5 -38.5t96.5 -109.5q16 -36 23 -81zM398.5 260.5q3.5 29.5 3.5 91.5q0 64 -3.5 93.5t-12.5 50.5q-15 35 -46 52t-82 17h-53v-150h112v-106h-112v-168h53
q51 0 82 17t46 52q9 21 12.5 50.5z" />
    <glyph glyph-name="dcroat" unicode="&#x111;" horiz-adv-x="503" 
d="M504 564h-35v-564h-146v53q-22 -33 -53 -49t-73 -16q-54 0 -93 25.5t-60 71.5q-13 29 -19.5 67t-6.5 101q0 64 6 101.5t20 66.5q21 46 60 71.5t93 25.5q41 0 71 -14.5t52 -45.5v106h-152v88h152v54h149v-54h35v-88zM321 297q0 95 -71 95q-45 0 -62 -38q-5 -12 -7.5 -34
t-2.5 -67t2.5 -67t7.5 -34q17 -37 62 -37q71 0 71 94v88z" />
    <glyph glyph-name="Emacron" unicode="&#x112;" horiz-adv-x="447" 
d="M41 706h381v-139h-219v-136h216v-135h-216v-157h219v-139h-381v706zM90 864h286v-95h-286v95z" />
    <glyph glyph-name="emacron" unicode="&#x113;" horiz-adv-x="484" 
d="M306.5 139.5q4.5 11.5 5.5 31.5h151q-1 -44 -14 -74.5t-39 -54.5q-29 -26 -71 -40t-90 -14q-76 0 -129.5 30.5t-78.5 86.5q-12 28 -17.5 61.5t-5.5 88.5q0 56 5 87.5t18 58.5q25 55 75.5 86t123.5 31q74 0 125.5 -30.5t77.5 -86.5q15 -34 19 -69t4 -114h-296q1 -32 3 -49
t7 -29q15 -36 65 -36q30 0 48 16q9 8 13.5 19.5zM180 370q-5 -12 -6.5 -23.5t-2.5 -37.5h143q-1 26 -3 38t-6 23q-17 36 -62 36q-46 0 -63 -36zM105 674h275v-97h-275v97z" />
    <glyph glyph-name="Ebreve" unicode="&#x114;" horiz-adv-x="447" 
d="M41 706h381v-139h-219v-136h216v-135h-216v-157h219v-139h-381v706zM117 777q-41 35 -45 104h102q4 -30 18.5 -43.5t41.5 -13.5q28 0 42.5 13t20.5 44h96q-3 -69 -43.5 -104t-115.5 -35q-76 0 -117 35z" />
    <glyph glyph-name="ebreve" unicode="&#x115;" horiz-adv-x="484" 
d="M306.5 139.5q4.5 11.5 5.5 31.5h151q-1 -44 -14 -74.5t-39 -54.5q-29 -26 -71 -40t-90 -14q-76 0 -129.5 30.5t-78.5 86.5q-12 28 -17.5 61.5t-5.5 88.5q0 56 5 87.5t18 58.5q25 55 75.5 86t123.5 31q74 0 125.5 -30.5t77.5 -86.5q15 -34 19 -69t4 -114h-296q1 -32 3 -49
t7 -29q15 -36 65 -36q30 0 48 16q9 8 13.5 19.5zM180 370q-5 -12 -6.5 -23.5t-2.5 -37.5h143q-1 26 -3 38t-6 23q-17 36 -62 36q-46 0 -63 -36zM121.5 587.5q-41.5 39.5 -45.5 118.5h105q4 -40 18.5 -57t43.5 -17t43 17t18 57h104q-6 -158 -165 -158q-80 0 -121.5 39.5z" />
    <glyph glyph-name="Edotaccent" unicode="&#x116;" horiz-adv-x="447" 
d="M41 706h381v-139h-219v-136h216v-135h-216v-157h219v-139h-381v706zM175.5 769.5q-22.5 21.5 -22.5 54.5t22.5 53.5t56.5 20.5t56.5 -20.5t22.5 -53.5t-22.5 -54.5t-56.5 -21.5t-56.5 21.5z" />
    <glyph glyph-name="edotaccent" unicode="&#x117;" horiz-adv-x="484" 
d="M306.5 139.5q4.5 11.5 5.5 31.5h151q-1 -44 -14 -74.5t-39 -54.5q-29 -26 -71 -40t-90 -14q-76 0 -129.5 30.5t-78.5 86.5q-12 28 -17.5 61.5t-5.5 88.5q0 56 5 87.5t18 58.5q25 55 75.5 86t123.5 31q74 0 125.5 -30.5t77.5 -86.5q15 -34 19 -69t4 -114h-296q1 -32 3 -49
t7 -29q15 -36 65 -36q30 0 48 16q9 8 13.5 19.5zM180 370q-5 -12 -6.5 -23.5t-2.5 -37.5h143q-1 26 -3 38t-6 23q-17 36 -62 36q-46 0 -63 -36zM185 577.5q-23 21.5 -23 55.5t23 55.5t58 21.5q22 0 40.5 -10t29 -27.5t10.5 -39.5q0 -34 -22.5 -55.5t-57.5 -21.5t-58 21.5z
" />
    <glyph glyph-name="Eogonek" unicode="&#x118;" horiz-adv-x="447" 
d="M423 -107v-83q-32 -13 -71 -13q-53 0 -84 23.5t-31 66.5q0 37 22.5 64t64.5 49h-283v706h381v-139h-219v-136h216v-135h-216v-157h219v-139q-34 -25 -51 -44t-17 -40q0 -15 9.5 -23t23.5 -8q18 0 36 8z" />
    <glyph glyph-name="eogonek" unicode="&#x119;" horiz-adv-x="484" 
d="M306.5 139.5q4.5 11.5 5.5 31.5h151q-2 -34 -9.5 -59.5t-24.5 -48t-46 -49.5q-36 -33 -51.5 -53t-15.5 -40q0 -17 10 -26.5t26 -9.5t34 8v-84q-33 -12 -71 -12q-53 0 -84 24.5t-31 70.5q0 29 13.5 52.5t39.5 43.5h-4q-76 0 -129.5 30.5t-78.5 86.5q-12 28 -17.5 61.5
t-5.5 88.5q0 56 5 87.5t18 58.5q25 55 75.5 86t123.5 31q74 0 125.5 -30.5t77.5 -86.5q15 -34 19 -69t4 -114h-296q1 -32 3 -49t7 -29q15 -36 65 -36q30 0 48 16q9 8 13.5 19.5zM180 370q-5 -12 -6.5 -23.5t-2.5 -37.5h143q-1 26 -3 38t-6 23q-17 36 -62 36q-46 0 -63 -36z
" />
    <glyph glyph-name="Ecaron" unicode="&#x11a;" horiz-adv-x="447" 
d="M41 706h381v-139h-219v-136h216v-135h-216v-157h219v-139h-381v706zM316 749h-167l-90 132h129l45 -66l45 66h128z" />
    <glyph glyph-name="ecaron" unicode="&#x11b;" horiz-adv-x="484" 
d="M306.5 139.5q4.5 11.5 5.5 31.5h151q-1 -44 -14 -74.5t-39 -54.5q-29 -26 -71 -40t-90 -14q-76 0 -129.5 30.5t-78.5 86.5q-12 28 -17.5 61.5t-5.5 88.5q0 56 5 87.5t18 58.5q25 55 75.5 86t123.5 31q74 0 125.5 -30.5t77.5 -86.5q15 -34 19 -69t4 -114h-296q1 -32 3 -49
t7 -29q15 -36 65 -36q30 0 48 16q9 8 13.5 19.5zM180 370q-5 -12 -6.5 -23.5t-2.5 -37.5h143q-1 26 -3 38t-6 23q-17 36 -62 36q-46 0 -63 -36zM325 555h-167l-90 151h128l46 -81l46 81h128z" />
    <glyph glyph-name="Gcircumflex" unicode="&#x11c;" horiz-adv-x="609" 
d="M583 381v-54q0 -68 -7.5 -114.5t-24.5 -85.5q-33 -72 -91 -107.5t-146 -35.5q-94 0 -158.5 40.5t-98.5 116.5q-17 37 -24 84.5t-7 127.5t7 127.5t24 84.5q34 76 99 116.5t159 40.5q57 0 104.5 -16.5t82.5 -48.5q36 -33 55 -79.5t21 -109.5h-164q-2 33 -9.5 53.5
t-21.5 33.5q-26 23 -72 23q-35 0 -59.5 -14.5t-37.5 -45.5q-10 -23 -13.5 -56t-3.5 -109t3.5 -109t13.5 -56q14 -31 40 -45.5t64 -14.5q70 0 94 53q6 13 8 29t3 50h-111v121h271zM230 881h167l90 -132h-129l-45 66l-45 -66h-128z" />
    <glyph glyph-name="gcircumflex" unicode="&#x11d;" horiz-adv-x="503" 
d="M470 506v-483q0 -41 -5.5 -71t-16.5 -55q-23 -50 -72.5 -75t-127.5 -25q-114 0 -172 52q-24 21 -36 48.5t-17 64.5h154q3 -24 17 -37q20 -16 55 -16q51 0 65 34q4 8 5.5 19t1.5 30v63q-22 -31 -53 -46.5t-75 -15.5q-54 0 -91.5 24.5t-58.5 70.5q-14 31 -19.5 66.5
t-5.5 100.5t5.5 101t18.5 66q21 46 59.5 71t91.5 25q45 0 76.5 -16.5t54.5 -49.5v54h146zM321 209v89q0 46 -17.5 70t-52.5 24q-23 0 -39 -9.5t-24 -28.5q-6 -13 -8 -33.5t-2 -65.5q0 -48 2 -68.5t8 -34.5q8 -18 24.5 -27.5t38.5 -9.5q70 0 70 94zM165 706h167l90 -151h-129
l-45 82l-46 -82h-128z" />
    <glyph glyph-name="Gbreve" unicode="&#x11e;" horiz-adv-x="609" 
d="M583 381v-54q0 -68 -7.5 -114.5t-24.5 -85.5q-33 -72 -91 -107.5t-146 -35.5q-94 0 -158.5 40.5t-98.5 116.5q-17 37 -24 84.5t-7 127.5t7 127.5t24 84.5q34 76 99 116.5t159 40.5q57 0 104.5 -16.5t82.5 -48.5q36 -33 55 -79.5t21 -109.5h-164q-2 33 -9.5 53.5
t-21.5 33.5q-26 23 -72 23q-35 0 -59.5 -14.5t-37.5 -45.5q-10 -23 -13.5 -56t-3.5 -109t3.5 -109t13.5 -56q14 -31 40 -45.5t64 -14.5q70 0 94 53q6 13 8 29t3 50h-111v121h271zM198 777q-41 35 -45 104h102q4 -30 18.5 -43.5t41.5 -13.5q28 0 42.5 13t20.5 44h96
q-3 -69 -43.5 -104t-115.5 -35q-76 0 -117 35z" />
    <glyph glyph-name="gbreve" unicode="&#x11f;" horiz-adv-x="503" 
d="M470 506v-483q0 -41 -5.5 -71t-16.5 -55q-23 -50 -72.5 -75t-127.5 -25q-114 0 -172 52q-24 21 -36 48.5t-17 64.5h154q3 -24 17 -37q20 -16 55 -16q51 0 65 34q4 8 5.5 19t1.5 30v63q-22 -31 -53 -46.5t-75 -15.5q-54 0 -91.5 24.5t-58.5 70.5q-14 31 -19.5 66.5
t-5.5 100.5t5.5 101t18.5 66q21 46 59.5 71t91.5 25q45 0 76.5 -16.5t54.5 -49.5v54h146zM321 209v89q0 46 -17.5 70t-52.5 24q-23 0 -39 -9.5t-24 -28.5q-6 -13 -8 -33.5t-2 -65.5q0 -48 2 -68.5t8 -34.5q8 -18 24.5 -27.5t38.5 -9.5q70 0 70 94zM127.5 587.5
q-41.5 39.5 -45.5 118.5h105q4 -40 18.5 -57t43.5 -17t43 17t18 57h104q-6 -158 -165 -158q-80 0 -121.5 39.5z" />
    <glyph glyph-name="Gdotaccent" unicode="&#x120;" horiz-adv-x="609" 
d="M583 381v-54q0 -68 -7.5 -114.5t-24.5 -85.5q-33 -72 -91 -107.5t-146 -35.5q-94 0 -158.5 40.5t-98.5 116.5q-17 37 -24 84.5t-7 127.5t7 127.5t24 84.5q34 76 99 116.5t159 40.5q57 0 104.5 -16.5t82.5 -48.5q36 -33 55 -79.5t21 -109.5h-164q-2 33 -9.5 53.5
t-21.5 33.5q-26 23 -72 23q-35 0 -59.5 -14.5t-37.5 -45.5q-10 -23 -13.5 -56t-3.5 -109t3.5 -109t13.5 -56q14 -31 40 -45.5t64 -14.5q70 0 94 53q6 13 8 29t3 50h-111v121h271zM257.5 769.5q-22.5 21.5 -22.5 54.5t22.5 53.5t56.5 20.5t56.5 -20.5t22.5 -53.5t-22.5 -54.5
t-56.5 -21.5t-56.5 21.5z" />
    <glyph glyph-name="gdotaccent" unicode="&#x121;" horiz-adv-x="503" 
d="M470 506v-483q0 -41 -5.5 -71t-16.5 -55q-23 -50 -72.5 -75t-127.5 -25q-114 0 -172 52q-24 21 -36 48.5t-17 64.5h154q3 -24 17 -37q20 -16 55 -16q51 0 65 34q4 8 5.5 19t1.5 30v63q-22 -31 -53 -46.5t-75 -15.5q-54 0 -91.5 24.5t-58.5 70.5q-14 31 -19.5 66.5
t-5.5 100.5t5.5 101t18.5 66q21 46 59.5 71t91.5 25q45 0 76.5 -16.5t54.5 -49.5v54h146zM321 209v89q0 46 -17.5 70t-52.5 24q-23 0 -39 -9.5t-24 -28.5q-6 -13 -8 -33.5t-2 -65.5q0 -48 2 -68.5t8 -34.5q8 -18 24.5 -27.5t38.5 -9.5q70 0 70 94zM190 577.5
q-23 21.5 -23 55.5t23 55.5t58 21.5q22 0 40.5 -10t29 -27.5t10.5 -39.5q0 -34 -22.5 -55.5t-57.5 -21.5t-58 21.5z" />
    <glyph glyph-name="Gcommaaccent" unicode="&#x122;" horiz-adv-x="609" 
d="M583 381v-54q0 -68 -7.5 -114.5t-24.5 -85.5q-33 -72 -91 -107.5t-146 -35.5q-94 0 -158.5 40.5t-98.5 116.5q-17 37 -24 84.5t-7 127.5t7 127.5t24 84.5q34 76 99 116.5t159 40.5q57 0 104.5 -16.5t82.5 -48.5q36 -33 55 -79.5t21 -109.5h-164q-2 33 -9.5 53.5
t-21.5 33.5q-26 23 -72 23q-35 0 -59.5 -14.5t-37.5 -45.5q-10 -23 -13.5 -56t-3.5 -109t3.5 -109t13.5 -56q14 -31 40 -45.5t64 -14.5q70 0 94 53q6 13 8 29t3 50h-111v121h271zM238 -49h152l-43 -141h-143z" />
    <glyph glyph-name="gcommaaccent" unicode="&#x123;" horiz-adv-x="503" 
d="M470 506v-483q0 -41 -5.5 -71t-16.5 -55q-23 -50 -72.5 -75t-127.5 -25q-114 0 -172 52q-24 21 -36 48.5t-17 64.5h154q3 -24 17 -37q20 -16 55 -16q51 0 65 34q4 8 5.5 19t1.5 30v63q-22 -31 -53 -46.5t-75 -15.5q-54 0 -91.5 24.5t-58.5 70.5q-14 31 -19.5 66.5
t-5.5 100.5t5.5 101t18.5 66q21 46 59.5 71t91.5 25q45 0 76.5 -16.5t54.5 -49.5v54h146zM321 209v89q0 46 -17.5 70t-52.5 24q-23 0 -39 -9.5t-24 -28.5q-6 -13 -8 -33.5t-2 -65.5q0 -48 2 -68.5t8 -34.5q8 -18 24.5 -27.5t38.5 -9.5q70 0 70 94zM293 561h-152l43 142h143z
" />
    <glyph glyph-name="Hcircumflex" unicode="&#x124;" horiz-adv-x="594" 
d="M41 706h162v-275h188v275h162v-706h-162v291h-188v-291h-162v706zM214 881h167l90 -132h-129l-45 66l-45 -66h-128z" />
    <glyph glyph-name="hcircumflex" unicode="&#x125;" horiz-adv-x="483" 
d="M416.5 475.5q37.5 -42.5 37.5 -121.5v-354h-150v318q0 39 -14 56t-44 17q-63 0 -63 -75v-316h-150v706h150v-255q22 33 53.5 50t73.5 17q69 0 106.5 -42.5zM161 881h167l90 -132h-129l-45 66l-45 -66h-128z" />
    <glyph glyph-name="Hbar" unicode="&#x126;" horiz-adv-x="594" 
d="M553 706v-706h-162v291h-188v-291h-162v706h162v-94h188v94h162zM391 431v88h-188v-88h188z" />
    <glyph glyph-name="hbar" unicode="&#x127;" horiz-adv-x="483" 
d="M416.5 475.5q37.5 -42.5 37.5 -121.5v-354h-150v318q0 39 -14 56t-44 17q-63 0 -63 -75v-316h-150v564h-32v88h32v54h150v-54h154v-88h-154v-113q22 33 53.5 50t73.5 17q69 0 106.5 -42.5z" />
    <glyph glyph-name="Itilde" unicode="&#x128;" horiz-adv-x="244" 
d="M41 706h162v-706h-162v706zM149 752q-12 5 -28 16q-17 12 -25.5 16.5t-17.5 4.5q-12 0 -18 -10t-8 -31h-72q3 133 87 133q20 0 33 -6.5t28 -18.5q3 -2 11 -7.5t13 -7.5t10 -2q13 0 19 9.5t10 32.5h74q-1 -70 -22.5 -102t-63.5 -32q-18 0 -30 5z" />
    <glyph glyph-name="itilde" unicode="&#x129;" horiz-adv-x="216" 
d="M33 506h150v-506h-150v506zM126.5 563q-13.5 9 -27.5 25q-8 10 -13.5 14.5t-12.5 4.5q-12 0 -16 -11.5t-5 -39.5h-76q1 53 8 86t23.5 49.5t46.5 16.5q23 0 37 -9t27 -26q9 -10 14 -14t12 -4q12 0 16 11.5t5 39.5h76q-1 -53 -8 -86t-23.5 -49.5t-46.5 -16.5q-23 0 -36.5 9
z" />
    <glyph glyph-name="Imacron" unicode="&#x12a;" horiz-adv-x="244" 
d="M41 706h162v-706h-162v706zM0 863h243v-94h-243v94z" />
    <glyph glyph-name="imacron" unicode="&#x12b;" horiz-adv-x="216" 
d="M33 506h150v-506h-150v506zM-7 674h232v-97h-232v97z" />
    <glyph glyph-name="Ibreve" unicode="&#x12c;" horiz-adv-x="244" 
d="M41 706h162v-706h-162v706zM17 778q-36 35 -35 103h98q2 -32 11.5 -44.5t31.5 -12.5q21 0 31 13t11 44h98q0 -69 -35.5 -103.5t-104.5 -34.5q-70 0 -106 35z" />
    <glyph glyph-name="ibreve" unicode="&#x12d;" horiz-adv-x="216" 
d="M33 506h150v-506h-150v506zM-22 706h91q0 -29 4 -45t12.5 -22t22.5 -6q21 0 30.5 15.5t8.5 57.5h92q-1 -80 -33 -119.5t-98 -39.5q-131 0 -130 159z" />
    <glyph glyph-name="Iogonek" unicode="&#x12e;" horiz-adv-x="244" 
d="M204 -107v-84q-28 -12 -62 -12q-48 0 -77 22t-29 62q0 38 18.5 66t51.5 53h-65v706h162v-706q-25 -27 -37.5 -47.5t-12.5 -43.5q0 -11 7 -17.5t17 -6.5q13 0 27 8z" />
    <glyph glyph-name="iogonek" unicode="&#x12f;" horiz-adv-x="216" 
d="M51.5 577q-22.5 21 -22.5 55t22.5 55t57.5 21t57 -21t22 -55t-22 -55t-57 -21t-57.5 21zM139 -109q7 -6 18 -6q13 0 27 8v-84q-29 -12 -62 -12q-48 0 -77 22t-29 62q0 38 18 66.5t51 52.5h-52v506h150v-506q-26 -27 -38.5 -47.5t-12.5 -43.5q0 -12 7 -18z" />
    <glyph glyph-name="Idotaccent" unicode="&#x130;" horiz-adv-x="244" 
d="M41 706h162v-706h-162v706zM65.5 769.5q-22.5 21.5 -22.5 54.5t22.5 53.5t56.5 20.5t56.5 -20.5t22.5 -53.5t-22.5 -54.5t-56.5 -21.5t-56.5 21.5z" />
    <glyph glyph-name="dotlessi" unicode="&#x131;" horiz-adv-x="216" 
d="M33 506h150v-506h-150v506z" />
    <glyph glyph-name="IJ" unicode="&#x132;" horiz-adv-x="539" 
d="M41 706h162v-706h-162v706zM250 0v149q9 -2 28 -2q25 0 39 7t20.5 23.5t6.5 45.5v483h163v-515q0 -99 -46.5 -146.5t-149.5 -47.5q-29 0 -61 3z" />
    <glyph glyph-name="ij" unicode="&#x133;" horiz-adv-x="441" 
d="M51.5 577q-22.5 21 -22.5 55t22.5 55t57.5 21t57 -21t22 -55t-22 -55t-57 -21t-57.5 21zM33 506h150v-506h-150v506zM274.5 577q-22.5 21 -22.5 55t22.5 55t57.5 21t57 -21t22 -55t-22 -55t-57 -21t-57.5 21zM189 -190v130q11 -1 27 -1q22 0 32 10.5t10 34.5v522h149
v-543q0 -82 -37.5 -119t-119.5 -37q-32 0 -61 3z" />
    <glyph glyph-name="Jcircumflex" unicode="&#x134;" horiz-adv-x="295" 
d="M6 0v149q9 -2 28 -2q25 0 39 7t20.5 23.5t6.5 45.5v483h163v-515q0 -99 -46.5 -146.5t-149.5 -47.5q-29 0 -61 3zM101 881h162l76 -132h-121l-35 66l-35 -66h-122z" />
    <glyph glyph-name="jcircumflex" unicode="&#x135;" horiz-adv-x="225" 
d="M-27 -190v130q11 -1 27 -1q22 0 32 10.5t10 34.5v522h149v-543q0 -82 -37.5 -119t-119.5 -37q-32 0 -61 3zM47 706h139l64 -151h-102l-32 81l-33 -81h-102z" />
    <glyph glyph-name="Kcommaaccent" unicode="&#x136;" horiz-adv-x="581" 
d="M393 0l-190 316v-316h-162v706h162v-257l162 257h185l-207 -317l242 -389h-192zM210 -49h152l-43 -141h-143z" />
    <glyph glyph-name="kcommaaccent" unicode="&#x137;" horiz-adv-x="484" 
d="M307 0l-124 211v-211h-150v706h150v-368l110 168h179l-159 -229l179 -277h-185zM165 -49h152l-43 -141h-143z" />
    <glyph glyph-name="kgreenlandic" unicode="&#x138;" horiz-adv-x="484" 
d="M307 0l-124 211v-211h-150v506h150v-168l110 168h179l-159 -229l179 -277h-185z" />
    <glyph glyph-name="Lacute" unicode="&#x139;" horiz-adv-x="354" 
d="M41 706h162v-562h145v-144h-307v706zM119 881h149l-99 -132h-135z" />
    <glyph glyph-name="lacute" unicode="&#x13a;" horiz-adv-x="216" 
d="M33 706h150v-706h-150v706zM110 881h149l-99 -132h-135z" />
    <glyph glyph-name="Lcommaaccent" unicode="&#x13b;" horiz-adv-x="354" 
d="M41 706h162v-562h145v-144h-307v706zM115 -49h152l-43 -141h-143z" />
    <glyph glyph-name="lcommaaccent" unicode="&#x13c;" horiz-adv-x="216" 
d="M33 706h150v-706h-150v706zM33 -49h152l-43 -141h-143z" />
    <glyph glyph-name="Lcaron" unicode="&#x13d;" horiz-adv-x="363" 
d="M41 706h162v-562h145v-144h-307v706zM253 706h118l-35 -166h-103z" />
    <glyph glyph-name="lcaron" unicode="&#x13e;" horiz-adv-x="329" 
d="M33 706h150v-706h-150v706zM221 706h118l-35 -166h-103z" />
    <glyph glyph-name="Ldot" unicode="&#x13f;" horiz-adv-x="441" 
d="M41 706h162v-562h145v-144h-307v706zM279 341.5q-25 23.5 -25 62.5t24.5 62.5t64.5 23.5q39 0 63 -23.5t24 -62.5t-24 -62.5t-63 -23.5t-64 23.5z" />
    <glyph glyph-name="ldot" unicode="&#x140;" horiz-adv-x="406" 
d="M33 706h150v-706h-150v706zM248 307.5q-25 23.5 -25 62.5t24.5 62.5t64.5 23.5q39 0 63 -23.5t24 -62.5t-24 -62.5t-63 -23.5t-64 23.5z" />
    <glyph glyph-name="Lslash" unicode="&#x141;" horiz-adv-x="356" 
d="M350 144v-144h-307v275l-46 -31v123l46 31v308h162v-223l106 72v-124l-106 -72v-215h145z" />
    <glyph glyph-name="lslash" unicode="&#x142;" horiz-adv-x="251" 
d="M249 393l-56 -40v-353h-150v275l-44 -30v121l44 30v310h150v-230l56 39v-122z" />
    <glyph glyph-name="Nacute" unicode="&#x143;" horiz-adv-x="616" 
d="M41 706h156l221 -414v414h157v-706h-155l-222 418v-418h-157v706zM310 881h149l-99 -132h-135z" />
    <glyph glyph-name="nacute" unicode="&#x144;" horiz-adv-x="483" 
d="M416.5 475.5q37.5 -42.5 37.5 -121.5v-354h-150v318q0 39 -14 56t-44 17q-63 0 -63 -75v-316h-150v506h150v-55q22 33 53.5 50t73.5 17q69 0 106.5 -42.5zM242 705h144l-94 -149h-128z" />
    <glyph glyph-name="Ncommaaccent" unicode="&#x145;" horiz-adv-x="616" 
d="M41 706h156l221 -414v414h157v-706h-155l-222 418v-418h-157v706zM234 -49h152l-43 -141h-143z" />
    <glyph glyph-name="ncommaaccent" unicode="&#x146;" horiz-adv-x="483" 
d="M416.5 475.5q37.5 -42.5 37.5 -121.5v-354h-150v318q0 39 -14 56t-44 17q-63 0 -63 -75v-316h-150v506h150v-55q22 33 53.5 50t73.5 17q69 0 106.5 -42.5zM170 -49h152l-43 -141h-143z" />
    <glyph glyph-name="Ncaron" unicode="&#x147;" horiz-adv-x="616" 
d="M41 706h156l221 -414v414h157v-706h-155l-222 418v-418h-157v706zM391 749h-167l-90 132h129l45 -66l45 66h128z" />
    <glyph glyph-name="ncaron" unicode="&#x148;" horiz-adv-x="483" 
d="M416.5 475.5q37.5 -42.5 37.5 -121.5v-354h-150v318q0 39 -14 56t-44 17q-63 0 -63 -75v-316h-150v506h150v-55q22 33 53.5 50t73.5 17q69 0 106.5 -42.5zM328 555h-167l-90 151h128l46 -81l46 81h128z" />
    <glyph glyph-name="napostrophe" unicode="&#x149;" horiz-adv-x="658" 
d="M79 706h152l-98 -274h-114zM590.5 475.5q37.5 -42.5 37.5 -121.5v-354h-150v318q0 39 -14 56t-44 17q-63 0 -63 -75v-316h-150v506h150v-55q22 33 53.5 50t73.5 17q69 0 106.5 -42.5z" />
    <glyph glyph-name="Eng" unicode="&#x14a;" horiz-adv-x="616" 
d="M575 706v-745q0 -81 -38.5 -117.5t-120.5 -36.5q-45 0 -66 2v129q18 -2 25 -2q22 0 33 11.5t11 35.5v25l-221 412v-420h-157v706h156l221 -414v414h157z" />
    <glyph glyph-name="eng" unicode="&#x14b;" horiz-adv-x="483" 
d="M416 475.5q38 -42.5 38 -121.5v-392q0 -81 -38 -118t-119 -37q-42 0 -61 2v130q11 -1 26 -1q22 0 32 10.5t10 34.5v335q0 39 -14 56t-45 17q-62 0 -62 -75v-316h-150v506h150v-55q45 67 125 67q70 0 108 -42.5z" />
    <glyph glyph-name="Omacron" unicode="&#x14c;" horiz-adv-x="628" 
d="M164.5 19q-62.5 35 -95.5 102q-23 40 -33 94t-10 138q0 78 7.5 127t25.5 89q33 74 97.5 113.5t157.5 39.5t157.5 -39.5t97.5 -113.5q18 -40 25.5 -89t7.5 -127t-7.5 -127t-25.5 -89q-33 -74 -97.5 -113.5t-157.5 -39.5q-87 0 -149.5 35zM376 148.5q24 16.5 38 47.5
q10 23 14 55.5t4 101.5q0 70 -3.5 102.5t-13.5 54.5q-14 31 -38.5 47.5t-62.5 16.5t-62.5 -16.5t-38.5 -47.5q-10 -22 -13 -53.5t-3 -103.5q0 -70 3.5 -102.5t13.5 -54.5q14 -31 38 -47.5t62 -16.5t62 16.5zM172 864h286v-95h-286v95z" />
    <glyph glyph-name="omacron" unicode="&#x14d;" horiz-adv-x="491" 
d="M118 19q-52 31 -77 87q-12 28 -17.5 60.5t-5.5 86.5t5.5 86.5t17.5 60.5q25 56 77 87t128 31q75 0 127 -31t77 -87q12 -28 17.5 -60.5t5.5 -86.5t-5.5 -86.5t-17.5 -60.5q-25 -56 -77 -87t-127 -31q-76 0 -128 31zM304 149q5 13 7.5 35.5t2.5 68.5t-2.5 68.5t-7.5 35.5
q-16 35 -58 35q-22 0 -36 -9t-22 -26q-6 -13 -8.5 -35.5t-2.5 -68.5t2.5 -68.5t8.5 -35.5q8 -17 21.5 -25.5t36.5 -8.5q43 0 58 34zM109 674h275v-97h-275v97z" />
    <glyph glyph-name="Obreve" unicode="&#x14e;" horiz-adv-x="628" 
d="M164.5 19q-62.5 35 -95.5 102q-23 40 -33 94t-10 138q0 78 7.5 127t25.5 89q33 74 97.5 113.5t157.5 39.5t157.5 -39.5t97.5 -113.5q18 -40 25.5 -89t7.5 -127t-7.5 -127t-25.5 -89q-33 -74 -97.5 -113.5t-157.5 -39.5q-87 0 -149.5 35zM376 148.5q24 16.5 38 47.5
q10 23 14 55.5t4 101.5q0 70 -3.5 102.5t-13.5 54.5q-14 31 -38.5 47.5t-62.5 16.5t-62.5 -16.5t-38.5 -47.5q-10 -22 -13 -53.5t-3 -103.5q0 -70 3.5 -102.5t13.5 -54.5q14 -31 38 -47.5t62 -16.5t62 16.5zM199 777q-41 35 -45 104h102q4 -30 18.5 -43.5t41.5 -13.5
q28 0 42.5 13t20.5 44h96q-3 -69 -43.5 -104t-115.5 -35q-76 0 -117 35z" />
    <glyph glyph-name="obreve" unicode="&#x14f;" horiz-adv-x="491" 
d="M118 19q-52 31 -77 87q-12 28 -17.5 60.5t-5.5 86.5t5.5 86.5t17.5 60.5q25 56 77 87t128 31q75 0 127 -31t77 -87q12 -28 17.5 -60.5t5.5 -86.5t-5.5 -86.5t-17.5 -60.5q-25 -56 -77 -87t-127 -31q-76 0 -128 31zM304 149q5 13 7.5 35.5t2.5 68.5t-2.5 68.5t-7.5 35.5
q-16 35 -58 35q-22 0 -36 -9t-22 -26q-6 -13 -8.5 -35.5t-2.5 -68.5t2.5 -68.5t8.5 -35.5q8 -17 21.5 -25.5t36.5 -8.5q43 0 58 34zM125.5 587.5q-41.5 39.5 -45.5 118.5h105q4 -40 18.5 -57t43.5 -17t43 17t18 57h104q-6 -158 -165 -158q-80 0 -121.5 39.5z" />
    <glyph glyph-name="Ohungarumlaut" unicode="&#x150;" horiz-adv-x="628" 
d="M164.5 19q-62.5 35 -95.5 102q-23 40 -33 94t-10 138q0 78 7.5 127t25.5 89q33 74 97.5 113.5t157.5 39.5t157.5 -39.5t97.5 -113.5q18 -40 25.5 -89t7.5 -127t-7.5 -127t-25.5 -89q-33 -74 -97.5 -113.5t-157.5 -39.5q-87 0 -149.5 35zM376 148.5q24 16.5 38 47.5
q10 23 14 55.5t4 101.5q0 70 -3.5 102.5t-13.5 54.5q-14 31 -38.5 47.5t-62.5 16.5t-62.5 -16.5t-38.5 -47.5q-10 -22 -13 -53.5t-3 -103.5q0 -70 3.5 -102.5t13.5 -54.5q14 -31 38 -47.5t62 -16.5t62 16.5zM254 881h122l-104 -132h-99zM418 881h123l-104 -132h-100z" />
    <glyph glyph-name="ohungarumlaut" unicode="&#x151;" horiz-adv-x="491" 
d="M118 19q-52 31 -77 87q-12 28 -17.5 60.5t-5.5 86.5t5.5 86.5t17.5 60.5q25 56 77 87t128 31q75 0 127 -31t77 -87q12 -28 17.5 -60.5t5.5 -86.5t-5.5 -86.5t-17.5 -60.5q-25 -56 -77 -87t-127 -31q-76 0 -128 31zM304 149q5 13 7.5 35.5t2.5 68.5t-2.5 68.5t-7.5 35.5
q-16 35 -58 35q-22 0 -36 -9t-22 -26q-6 -13 -8.5 -35.5t-2.5 -68.5t2.5 -68.5t8.5 -35.5q8 -17 21.5 -25.5t36.5 -8.5q43 0 58 34zM187 706h121l-105 -150h-97zM349 706h120l-104 -150h-97z" />
    <glyph glyph-name="OE" unicode="&#x152;" horiz-adv-x="830" 
d="M587 567v-137h216v-134h-216v-157h219v-139h-419q-34 -9 -75 -9q-92 0 -156 37.5t-97 107.5q-18 40 -25.5 89t-7.5 128t7.5 128t25.5 89q33 70 97 107.5t156 37.5q41 0 75 -9h419v-139h-219zM251.5 148q23.5 -16 60.5 -16t60.5 16t37.5 47q10 22 13.5 54t3.5 104
q0 73 -3 104.5t-13 53.5q-15 31 -38.5 47t-60.5 16t-61 -16t-38 -47q-10 -22 -13 -53.5t-3 -104.5q0 -72 3.5 -104t13.5 -54q14 -31 37.5 -47z" />
    <glyph glyph-name="oe" unicode="&#x153;" horiz-adv-x="749" 
d="M570 140.5q3 10.5 4 30.5h154q-1 -42 -12.5 -71.5t-34.5 -52.5q-27 -29 -68.5 -44t-90.5 -15q-91 0 -144 47q-53 -47 -140 -47q-72 0 -122 30.5t-75 86.5q-12 28 -17.5 61t-5.5 87t5.5 87.5t17.5 61.5q25 56 75 86t122 30q87 0 139 -46q51 46 135 46q72 0 121.5 -30.5
t74.5 -84.5q14 -32 18.5 -71.5t4.5 -113.5h-280q1 -33 3 -50.5t7 -29.5q8 -17 21.5 -25t35.5 -8q30 0 43 18q6 7 9 17.5zM482 399q-13 -8 -21 -24q-5 -12 -7 -25.5t-2 -40.5h125q-1 26 -3 40t-6 25q-16 33 -53 33q-20 0 -33 -8zM296 181.5q2 22.5 2 71.5t-2 71.5t-9 36.5
q-12 31 -49 31q-35 0 -49 -31q-6 -14 -8 -35.5t-2 -72.5q0 -50 2 -72.5t8 -35.5q14 -30 49 -30q36 0 49 30q7 14 9 36.5z" />
    <glyph glyph-name="Racute" unicode="&#x154;" horiz-adv-x="537" 
d="M225 298h-22v-298h-162v706h260q73 0 119 -22.5t68 -69.5q9 -20 13 -46t4 -66t-4 -66t-13 -46q-27 -66 -99 -84l160 -306h-175zM203 411h50q61 0 77 33q5 9 6.5 20.5t1.5 33.5q0 21 -1.5 32t-6.5 20q-9 17 -27.5 24t-49.5 7h-50v-170zM260 881h149l-99 -132h-135z" />
    <glyph glyph-name="racute" unicode="&#x155;" horiz-adv-x="335" 
d="M33 506h149v-43q16 28 36 41t47 13q39 0 63 -23.5t24 -63.5q0 -25 -11 -45t-31 -31t-45 -11q-22 0 -39.5 9.5t-26.5 26.5q-10 -5 -13 -15t-3 -35v-329h-150v506zM183 705h144l-94 -149h-128z" />
    <glyph glyph-name="Rcommaaccent" unicode="&#x156;" horiz-adv-x="537" 
d="M225 298h-22v-298h-162v706h260q73 0 119 -22.5t68 -69.5q9 -20 13 -46t4 -66t-4 -66t-13 -46q-27 -66 -99 -84l160 -306h-175zM203 411h50q61 0 77 33q5 9 6.5 20.5t1.5 33.5q0 21 -1.5 32t-6.5 20q-9 17 -27.5 24t-49.5 7h-50v-170zM209 -49h152l-43 -141h-143z" />
    <glyph glyph-name="rcommaaccent" unicode="&#x157;" horiz-adv-x="335" 
d="M33 506h149v-43q16 28 36 41t47 13q39 0 63 -23.5t24 -63.5q0 -25 -11 -45t-31 -31t-45 -11q-22 0 -39.5 9.5t-26.5 26.5q-10 -5 -13 -15t-3 -35v-329h-150v506zM29 -49h152l-43 -141h-143z" />
    <glyph glyph-name="Rcaron" unicode="&#x158;" horiz-adv-x="537" 
d="M225 298h-22v-298h-162v706h260q73 0 119 -22.5t68 -69.5q9 -20 13 -46t4 -66t-4 -66t-13 -46q-27 -66 -99 -84l160 -306h-175zM203 411h50q61 0 77 33q5 9 6.5 20.5t1.5 33.5q0 21 -1.5 32t-6.5 20q-9 17 -27.5 24t-49.5 7h-50v-170zM342 749h-167l-90 132h129l45 -66
l45 66h128z" />
    <glyph glyph-name="rcaron" unicode="&#x159;" horiz-adv-x="335" 
d="M33 506h149v-43q16 28 36 41t47 13q39 0 63 -23.5t24 -63.5q0 -25 -11 -45t-31 -31t-45 -11q-22 0 -39.5 9.5t-26.5 26.5q-10 -5 -13 -15t-3 -35v-329h-150v506zM269 555h-167l-90 151h128l46 -81l46 81h128z" />
    <glyph glyph-name="Sacute" unicode="&#x15a;" horiz-adv-x="529" 
d="M114 15.5q-58 31.5 -82 84.5q-10 22 -14 47.5t-4 66.5h179q0 -27 1.5 -40.5t6.5 -23.5q16 -38 66 -38t65 34q3 8 4.5 17t1.5 24q0 16 -1.5 25t-5.5 18q-7 16 -23 28t-35.5 20t-52.5 19q-29 10 -37 13q-50 19 -86.5 45t-53.5 64q-8 19 -12 41.5t-4 53.5q0 30 4.5 52
t13.5 44q24 53 80 82.5t136 29.5q78 0 131 -27.5t78 -81.5q10 -22 13.5 -45.5t3.5 -67.5h-167q0 27 -1.5 41t-6.5 25q-14 32 -58 32q-22 0 -37 -8.5t-21 -23.5q-3 -7 -4 -14.5t-1 -20.5q0 -12 1 -21.5t5 -17.5q9 -19 32.5 -30.5t70.5 -26.5l35 -11q66 -24 105 -49t58 -66
q9 -20 12.5 -43t3.5 -59q0 -35 -4 -59t-14 -46q-25 -57 -86.5 -87.5t-148.5 -30.5q-89 0 -147 31.5zM252 881h149l-99 -132h-135z" />
    <glyph glyph-name="sacute" unicode="&#x15b;" horiz-adv-x="428" 
d="M97 7.5q-46 22.5 -66 67.5q-8 18 -11.5 39.5t-2.5 52.5h146q0 -20 1.5 -31t4.5 -18q6 -13 16.5 -19.5t27.5 -6.5q30 0 40 21q3 9 3 22q0 19 -4 28q-7 16 -25 25t-55 20q-48 16 -81 36.5t-49 55.5q-6 14 -8.5 29t-2.5 37q0 40 12 68q19 41 62.5 62.5t106.5 21.5
q64 0 107.5 -20.5t61.5 -60.5q8 -16 11 -34t3 -46h-142q0 16 -1.5 25t-4.5 15q-9 22 -36 22t-35 -18q-3 -7 -3 -18q0 -15 4 -22q5 -11 16.5 -19.5t30.5 -15.5t39 -14q38 -14 61 -24t43.5 -27t32.5 -42q6 -14 8.5 -30.5t2.5 -39.5t-3 -40.5t-10 -33.5q-20 -45 -68.5 -67.5
t-117.5 -22.5t-115 22.5zM215 705h144l-94 -149h-128z" />
    <glyph glyph-name="Scircumflex" unicode="&#x15c;" horiz-adv-x="529" 
d="M114 15.5q-58 31.5 -82 84.5q-10 22 -14 47.5t-4 66.5h179q0 -27 1.5 -40.5t6.5 -23.5q16 -38 66 -38t65 34q3 8 4.5 17t1.5 24q0 16 -1.5 25t-5.5 18q-7 16 -23 28t-35.5 20t-52.5 19q-29 10 -37 13q-50 19 -86.5 45t-53.5 64q-8 19 -12 41.5t-4 53.5q0 30 4.5 52
t13.5 44q24 53 80 82.5t136 29.5q78 0 131 -27.5t78 -81.5q10 -22 13.5 -45.5t3.5 -67.5h-167q0 27 -1.5 41t-6.5 25q-14 32 -58 32q-22 0 -37 -8.5t-21 -23.5q-3 -7 -4 -14.5t-1 -20.5q0 -12 1 -21.5t5 -17.5q9 -19 32.5 -30.5t70.5 -26.5l35 -11q66 -24 105 -49t58 -66
q9 -20 12.5 -43t3.5 -59q0 -35 -4 -59t-14 -46q-25 -57 -86.5 -87.5t-148.5 -30.5q-89 0 -147 31.5zM177 881h167l90 -132h-129l-45 66l-45 -66h-128z" />
    <glyph glyph-name="scircumflex" unicode="&#x15d;" horiz-adv-x="428" 
d="M97 7.5q-46 22.5 -66 67.5q-8 18 -11.5 39.5t-2.5 52.5h146q0 -20 1.5 -31t4.5 -18q6 -13 16.5 -19.5t27.5 -6.5q30 0 40 21q3 9 3 22q0 19 -4 28q-7 16 -25 25t-55 20q-48 16 -81 36.5t-49 55.5q-6 14 -8.5 29t-2.5 37q0 40 12 68q19 41 62.5 62.5t106.5 21.5
q64 0 107.5 -20.5t61.5 -60.5q8 -16 11 -34t3 -46h-142q0 16 -1.5 25t-4.5 15q-9 22 -36 22t-35 -18q-3 -7 -3 -18q0 -15 4 -22q5 -11 16.5 -19.5t30.5 -15.5t39 -14q38 -14 61 -24t43.5 -27t32.5 -42q6 -14 8.5 -30.5t2.5 -39.5t-3 -40.5t-10 -33.5q-20 -45 -68.5 -67.5
t-117.5 -22.5t-115 22.5zM135 706h167l90 -151h-129l-45 82l-46 -82h-128z" />
    <glyph glyph-name="Scedilla" unicode="&#x15e;" horiz-adv-x="529" 
d="M510.5 266q3.5 -23 3.5 -59q0 -35 -4 -59t-14 -46q-22 -50 -73 -80t-122 -36l-2 -9h4q42 0 67 -23.5t25 -62.5q0 -53 -36.5 -76t-103.5 -23q-50 0 -92 16l15 70q30 -12 65 -12q24 0 37 6.5t13 22.5q0 15 -13 22t-41 7h-51l14 64q-64 9 -107 38.5t-63 73.5
q-10 22 -14 47.5t-4 66.5h179q0 -27 1.5 -40.5t6.5 -23.5q16 -38 66 -38t65 34q3 8 4.5 17t1.5 24q0 16 -1.5 25t-5.5 18q-7 16 -23 28t-35.5 20t-52.5 19q-29 10 -37 13q-50 19 -86.5 45t-53.5 64q-8 19 -12 41.5t-4 53.5q0 30 4.5 52t13.5 44q24 53 80 82.5t136 29.5
q78 0 131 -27.5t78 -81.5q10 -22 13.5 -45.5t3.5 -67.5h-167q0 27 -1.5 41t-6.5 25q-14 32 -58 32q-22 0 -37 -8.5t-21 -23.5q-3 -7 -4 -14.5t-1 -20.5q0 -12 1 -21.5t5 -17.5q9 -19 32.5 -30.5t70.5 -26.5l35 -11q66 -24 105 -49t58 -66q9 -20 12.5 -43z" />
    <glyph glyph-name="scedilla" unicode="&#x15f;" horiz-adv-x="428" 
d="M408.5 188.5q2.5 -16.5 2.5 -39.5t-3 -40.5t-10 -33.5q-17 -38 -53.5 -60t-89.5 -28l-3 -10h5q42 0 67 -23t25 -62q0 -53 -37 -76t-104 -23q-49 0 -91 16l15 69q30 -12 65 -12q24 0 37 7t13 23q0 14 -13 21t-42 7h-50l14 65q-94 17 -125 86q-8 18 -11.5 39.5t-2.5 52.5
h146q0 -20 1.5 -31t4.5 -18q6 -13 16.5 -19.5t27.5 -6.5q30 0 40 21q3 9 3 22q0 19 -4 28q-7 16 -25 25t-55 20q-48 16 -81 36.5t-49 55.5q-6 14 -8.5 29t-2.5 37q0 40 12 68q19 41 62.5 62.5t106.5 21.5q64 0 107.5 -20.5t61.5 -60.5q8 -16 11 -34t3 -46h-142q0 16 -1.5 25
t-4.5 15q-9 22 -36 22t-35 -18q-3 -7 -3 -18q0 -15 4 -22q5 -11 16.5 -19.5t30.5 -15.5t39 -14q38 -14 61 -24t43.5 -27t32.5 -42q6 -14 8.5 -30.5z" />
    <glyph glyph-name="Scaron" unicode="&#x160;" horiz-adv-x="529" 
d="M114 15.5q-58 31.5 -82 84.5q-10 22 -14 47.5t-4 66.5h179q0 -27 1.5 -40.5t6.5 -23.5q16 -38 66 -38t65 34q3 8 4.5 17t1.5 24q0 16 -1.5 25t-5.5 18q-7 16 -23 28t-35.5 20t-52.5 19q-29 10 -37 13q-50 19 -86.5 45t-53.5 64q-8 19 -12 41.5t-4 53.5q0 30 4.5 52
t13.5 44q24 53 80 82.5t136 29.5q78 0 131 -27.5t78 -81.5q10 -22 13.5 -45.5t3.5 -67.5h-167q0 27 -1.5 41t-6.5 25q-14 32 -58 32q-22 0 -37 -8.5t-21 -23.5q-3 -7 -4 -14.5t-1 -20.5q0 -12 1 -21.5t5 -17.5q9 -19 32.5 -30.5t70.5 -26.5l35 -11q66 -24 105 -49t58 -66
q9 -20 12.5 -43t3.5 -59q0 -35 -4 -59t-14 -46q-25 -57 -86.5 -87.5t-148.5 -30.5q-89 0 -147 31.5zM342 749h-167l-90 132h129l45 -66l45 66h128z" />
    <glyph glyph-name="scaron" unicode="&#x161;" horiz-adv-x="428" 
d="M97 7.5q-46 22.5 -66 67.5q-8 18 -11.5 39.5t-2.5 52.5h146q0 -20 1.5 -31t4.5 -18q6 -13 16.5 -19.5t27.5 -6.5q30 0 40 21q3 9 3 22q0 19 -4 28q-7 16 -25 25t-55 20q-48 16 -81 36.5t-49 55.5q-6 14 -8.5 29t-2.5 37q0 40 12 68q19 41 62.5 62.5t106.5 21.5
q64 0 107.5 -20.5t61.5 -60.5q8 -16 11 -34t3 -46h-142q0 16 -1.5 25t-4.5 15q-9 22 -36 22t-35 -18q-3 -7 -3 -18q0 -15 4 -22q5 -11 16.5 -19.5t30.5 -15.5t39 -14q38 -14 61 -24t43.5 -27t32.5 -42q6 -14 8.5 -30.5t2.5 -39.5t-3 -40.5t-10 -33.5q-20 -45 -68.5 -67.5
t-117.5 -22.5t-115 22.5zM300 555h-167l-90 151h128l46 -81l46 81h128z" />
    <glyph glyph-name="uni0162" unicode="&#x162;" horiz-adv-x="412" 
d="M249 0l-5 -22h5q42 0 67 -23.5t25 -62.5q0 -53 -37 -75.5t-104 -22.5q-53 0 -92 15l15 70q32 -12 65 -12q25 0 38 6.5t13 22.5q0 15 -13.5 22t-41.5 7h-51l18 75h-26v567h-119v139h400v-139h-119v-567h-38z" />
    <glyph glyph-name="uni0163" unicode="&#x163;" horiz-adv-x="318" 
d="M303 -42q25 -23 25 -62q0 -53 -37 -76t-104 -23q-53 0 -91 16l15 69q30 -12 64 -12q25 0 38 6.5t13 22.5q0 15 -13.5 22t-41.5 7h-50l17 76q-38 13 -55.5 47t-17.5 97v234h-56v124h56v116h149v-116h92v-124h-92v-208q0 -32 11.5 -45t38.5 -13q23 0 42 5v-119
q-34 -7 -72 -9l-3 -12h5q42 0 67 -23z" />
    <glyph glyph-name="Tcaron" unicode="&#x164;" horiz-adv-x="412" 
d="M125 567h-119v139h400v-139h-119v-567h-162v567zM289 749h-167l-90 132h129l45 -66l45 66h128z" />
    <glyph glyph-name="tcaron" unicode="&#x165;" horiz-adv-x="370" 
d="M128 7.5q-32 14.5 -47.5 48t-15.5 92.5v234h-56v124h56v116h149v-116h92v-124h-92v-208q0 -32 11.5 -45t38.5 -13q23 0 42 5v-119q-43 -9 -91 -9q-55 0 -87 14.5zM256 706h118l-35 -166h-103z" />
    <glyph glyph-name="Tbar" unicode="&#x166;" horiz-adv-x="412" 
d="M287 567v-141h90v-102h-90v-324h-162v324h-92v102h92v141h-119v139h400v-139h-119z" />
    <glyph glyph-name="tbar" unicode="&#x167;" horiz-adv-x="318" 
d="M214 382v-70h92v-97h-92v-41q0 -32 11.5 -45t38.5 -13q23 0 42 5v-119q-43 -9 -91 -9q-55 0 -87 14.5t-47.5 48t-15.5 92.5v67h-57v97h57v70h-56v124h56v116h149v-116h92v-124h-92z" />
    <glyph glyph-name="Utilde" unicode="&#x168;" horiz-adv-x="565" 
d="M138.5 8.5q-54.5 24.5 -80.5 75t-26 130.5v492h163v-483q0 -96 86 -96q89 0 89 96v483h163v-492q0 -80 -26.5 -130.5t-82 -75t-143.5 -24.5t-142.5 24.5zM320 752q-18 6 -39 16q-7 3 -19.5 9.5t-21.5 9.5t-17 3q-30 0 -33 -43h-79q2 68 25.5 101.5t73.5 33.5
q23 0 39.5 -6.5t39.5 -20.5q15 -9 26 -13t23 -4q16 0 23.5 10t12.5 33h81q-3 -135 -97 -135q-20 0 -38 6z" />
    <glyph glyph-name="utilde" unicode="&#x169;" horiz-adv-x="483" 
d="M450 506v-506h-150v55q-22 -33 -53.5 -50t-73.5 -17q-69 0 -106.5 42.5t-37.5 121.5v354h150v-318q0 -39 14 -56t44 -17q31 0 47 18t16 57v316h150zM264 561q-18 7 -36 20q-20 13 -30.5 18.5t-21.5 5.5q-15 0 -21.5 -12t-8.5 -37h-82q2 78 24 115t69 37q22 0 39.5 -7.5
t37.5 -20.5q19 -12 30.5 -17.5t22.5 -5.5q15 0 21.5 11.5t7.5 37.5h83q-2 -78 -24 -115t-70 -37q-23 0 -41 7z" />
    <glyph glyph-name="Umacron" unicode="&#x16a;" horiz-adv-x="565" 
d="M138.5 8.5q-54.5 24.5 -80.5 75t-26 130.5v492h163v-483q0 -96 86 -96q89 0 89 96v483h163v-492q0 -80 -26.5 -130.5t-82 -75t-143.5 -24.5t-142.5 24.5zM140 864h286v-95h-286v95z" />
    <glyph glyph-name="umacron" unicode="&#x16b;" horiz-adv-x="483" 
d="M450 506v-506h-150v55q-22 -33 -53.5 -50t-73.5 -17q-69 0 -106.5 42.5t-37.5 121.5v354h150v-318q0 -39 14 -56t44 -17q31 0 47 18t16 57v316h150zM94 674h275v-97h-275v97z" />
    <glyph glyph-name="Ubreve" unicode="&#x16c;" horiz-adv-x="565" 
d="M138.5 8.5q-54.5 24.5 -80.5 75t-26 130.5v492h163v-483q0 -96 86 -96q89 0 89 96v483h163v-492q0 -80 -26.5 -130.5t-82 -75t-143.5 -24.5t-142.5 24.5zM168 777q-41 35 -45 104h102q4 -30 18.5 -43.5t41.5 -13.5q28 0 42.5 13t20.5 44h96q-3 -69 -43.5 -104t-115.5 -35
q-76 0 -117 35z" />
    <glyph glyph-name="ubreve" unicode="&#x16d;" horiz-adv-x="483" 
d="M450 506v-506h-150v55q-22 -33 -53.5 -50t-73.5 -17q-69 0 -106.5 42.5t-37.5 121.5v354h150v-318q0 -39 14 -56t44 -17q31 0 47 18t16 57v316h150zM111.5 587.5q-41.5 39.5 -45.5 118.5h105q4 -40 18.5 -57t43.5 -17t43 17t18 57h104q-6 -158 -165 -158
q-80 0 -121.5 39.5z" />
    <glyph glyph-name="Uring" unicode="&#x16e;" horiz-adv-x="565" 
d="M138.5 8.5q-54.5 24.5 -80.5 75t-26 130.5v492h163v-483q0 -96 86 -96q89 0 89 96v483h163v-492q0 -80 -26.5 -130.5t-82 -75t-143.5 -24.5t-142.5 24.5zM216.5 741.5q-28.5 14.5 -44 40.5t-15.5 60q0 35 15.5 61t44 40t65.5 14q38 0 67 -14.5t44.5 -40.5t15.5 -60
t-16 -60t-44.5 -40.5t-66.5 -14.5q-37 0 -65.5 14.5zM315 811q12 12 12 31q0 20 -12 32t-33 12q-19 0 -31 -12t-12 -32q0 -19 12 -31t31 -12q21 0 33 12z" />
    <glyph glyph-name="uring" unicode="&#x16f;" horiz-adv-x="483" 
d="M450 506v-506h-150v55q-22 -33 -53.5 -50t-73.5 -17q-69 0 -106.5 42.5t-37.5 121.5v354h150v-318q0 -39 14 -56t44 -17q31 0 47 18t16 57v316h150zM165.5 559.5q-28.5 14.5 -44 40.5t-15.5 60q0 35 15.5 61t44 40t65.5 14q38 0 67 -14.5t44.5 -40.5t15.5 -60t-16 -60
t-44.5 -40.5t-66.5 -14.5q-37 0 -65.5 14.5zM264 629q12 12 12 31q0 20 -12 32t-33 12q-19 0 -31 -12t-12 -32q0 -19 12 -31t31 -12q21 0 33 12z" />
    <glyph glyph-name="Uhungarumlaut" unicode="&#x170;" horiz-adv-x="565" 
d="M138.5 8.5q-54.5 24.5 -80.5 75t-26 130.5v492h163v-483q0 -96 86 -96q89 0 89 96v483h163v-492q0 -80 -26.5 -130.5t-82 -75t-143.5 -24.5t-142.5 24.5zM223 881h122l-104 -132h-99zM387 881h123l-104 -132h-100z" />
    <glyph glyph-name="uhungarumlaut" unicode="&#x171;" horiz-adv-x="483" 
d="M450 506v-506h-150v55q-22 -33 -53.5 -50t-73.5 -17q-69 0 -106.5 42.5t-37.5 121.5v354h150v-318q0 -39 14 -56t44 -17q31 0 47 18t16 57v316h150zM172 706h121l-105 -150h-97zM334 706h120l-104 -150h-97z" />
    <glyph glyph-name="Uogonek" unicode="&#x172;" horiz-adv-x="565" 
d="M533 706v-492q0 -53 -10.5 -90.5t-31 -64t-52.5 -49.5q-34 -26 -51 -46t-17 -43q0 -17 9 -26.5t24 -9.5q18 0 36 8v-84q-33 -12 -71 -12q-53 0 -84 24.5t-31 70.5q0 28 12.5 50.5t35.5 41.5h-21q-88 0 -142.5 24.5t-80.5 75t-26 130.5v492h163v-483q0 -96 86 -96
q89 0 89 96v483h163z" />
    <glyph glyph-name="uogonek" unicode="&#x173;" horiz-adv-x="483" 
d="M451 -107v-83q-32 -13 -71 -13q-53 0 -84.5 23.5t-31.5 66.5q0 37 23 64t64 49h-51v55q-22 -33 -53.5 -50t-73.5 -17q-69 0 -106.5 42.5t-37.5 121.5v354h150v-318q0 -39 14 -56t44 -17q31 0 47 18t16 57v316h150v-506q-35 -26 -52 -44.5t-17 -39.5q0 -15 9.5 -23
t24.5 -8q17 0 36 8z" />
    <glyph glyph-name="Wcircumflex" unicode="&#x174;" horiz-adv-x="818" 
d="M819 706l-157 -706h-168l-84 449l-85 -449h-166l-160 706h158l89 -449l82 449h165l81 -446l87 446h158zM327 881h167l90 -132h-129l-45 66l-45 -66h-128z" />
    <glyph glyph-name="wcircumflex" unicode="&#x175;" horiz-adv-x="733" 
d="M736 507l-152 -507h-150l-68 292l-68 -292h-152l-150 507h156l67 -295l76 295h140l76 -294l68 294h157zM282 706h167l90 -151h-129l-45 82l-46 -82h-128z" />
    <glyph glyph-name="Ycircumflex" unicode="&#x176;" horiz-adv-x="531" 
d="M184 297l-185 409h170l97 -242l96 242h169l-184 -409v-297h-163v297zM185 881h167l90 -132h-129l-45 66l-45 -66h-128z" />
    <glyph glyph-name="ycircumflex" unicode="&#x177;" horiz-adv-x="470" 
d="M473 506l-167 -506l-66 -191h-149l66 193l-161 504h162l76 -331l82 331h157zM154 706h167l90 -151h-129l-45 82l-46 -82h-128z" />
    <glyph glyph-name="Ydieresis" unicode="&#x178;" horiz-adv-x="531" 
d="M184 297l-185 409h170l97 -242l96 242h169l-184 -409v-297h-163v297zM117 768q-21 20 -21 51t21 51t53 20t52.5 -20t20.5 -51t-20.5 -51t-52.5 -20t-53 20zM316 768q-21 20 -21 51t21 51t53 20t53 -20t21 -51t-21 -51t-53 -20t-53 20z" />
    <glyph glyph-name="Zacute" unicode="&#x179;" horiz-adv-x="497" 
d="M237 568h-218v138h453l-231 -568h244v-138h-481zM245 881h149l-99 -132h-135z" />
    <glyph glyph-name="zacute" unicode="&#x17a;" horiz-adv-x="414" 
d="M222 124h183v-124h-408l201 383h-182v123h399zM209 705h144l-94 -149h-128z" />
    <glyph glyph-name="Zdotaccent" unicode="&#x17b;" horiz-adv-x="497" 
d="M237 568h-218v138h453l-231 -568h244v-138h-481zM186.5 769.5q-22.5 21.5 -22.5 54.5t22.5 53.5t56.5 20.5t56.5 -20.5t22.5 -53.5t-22.5 -54.5t-56.5 -21.5t-56.5 21.5z" />
    <glyph glyph-name="zdotaccent" unicode="&#x17c;" horiz-adv-x="414" 
d="M222 124h183v-124h-408l201 383h-182v123h399zM154 577.5q-23 21.5 -23 55.5t23 55.5t58 21.5q22 0 40.5 -10t29 -27.5t10.5 -39.5q0 -34 -22.5 -55.5t-57.5 -21.5t-58 21.5z" />
    <glyph glyph-name="Zcaron" unicode="&#x17d;" horiz-adv-x="497" 
d="M237 568h-218v138h453l-231 -568h244v-138h-481zM327 749h-167l-90 132h129l45 -66l45 66h128z" />
    <glyph glyph-name="zcaron" unicode="&#x17e;" horiz-adv-x="414" 
d="M222 124h183v-124h-408l201 383h-182v123h399zM294 555h-167l-90 151h128l46 -81l46 81h128z" />
    <glyph glyph-name="Schwa" unicode="&#x18f;" horiz-adv-x="609" 
d="M576 480.5q7 -47.5 7 -127.5t-7 -127.5t-24 -84.5q-34 -76 -99 -116.5t-158 -40.5q-88 0 -146 35.5t-91 107.5q-17 39 -24.5 85.5t-7.5 112.5v56h386q-1 61 -4.5 88.5t-12.5 48.5q-14 31 -38 45.5t-59 14.5q-48 0 -72 -24q-14 -12 -21.5 -32t-9.5 -56h-164q2 64 20.5 110
t54.5 79q34 33 81.5 50t106.5 17q94 0 158.5 -40.5t99.5 -116.5q17 -37 24 -84.5zM355 142.5q26 14.5 40 45.5q6 14 9.5 30t5.5 42h-224q1 -34 3 -50t8 -29q24 -53 94 -53q38 0 64 14.5z" />
    <glyph glyph-name="florin" unicode="&#x192;" horiz-adv-x="350" 
d="M9 0v123q18 -5 36 -5q56 0 56 56v193h-88v77h88v118q0 56 18.5 91t56.5 51t100 16q37 0 65 -6v-123q-18 5 -38 5q-28 0 -40 -14t-12 -45v-93h87v-77h-87v-215q0 -56 -18.5 -91t-57.5 -51t-101 -16q-36 0 -65 6z" />
    <glyph glyph-name="Aringacute" unicode="&#x1fa;" horiz-adv-x="600" 
d="M406 125h-212l-29 -125h-166l177 706h249l176 -706h-166zM377 253l-76 329h-2l-76 -329h154zM233.5 741.5q-28.5 14.5 -44 40.5t-15.5 60q0 35 15.5 61t44 40t65.5 14q38 0 67 -14.5t44.5 -40.5t15.5 -60t-16 -60t-44.5 -40.5t-66.5 -14.5q-37 0 -65.5 14.5zM332 811
q12 12 12 31q0 20 -12 32t-33 12q-19 0 -31 -12t-12 -32q0 -19 12 -31t31 -12q21 0 33 12zM302 1132h149l-99 -132h-135z" />
    <glyph glyph-name="aringacute" unicode="&#x1fb;" horiz-adv-x="477" 
d="M443.5 375.5q4.5 -29.5 4.5 -71.5v-304h-150v54q-21 -31 -55 -48.5t-81 -17.5q-50 0 -84.5 18.5t-50.5 53.5q-8 16 -11 34.5t-3 48.5t3 48.5t10 33.5q21 46 73 65t139 19h60v9q0 33 -1 44.5t-6 20.5q-12 26 -52 26q-23 0 -35.5 -6.5t-18.5 -19.5q-3 -7 -4 -15.5t-1 -21.5
h-151q0 27 3 45t10 34q21 46 71 69.5t126 23.5q77 0 123 -22t67 -68q10 -23 14.5 -52.5zM266 110.5q15 8.5 23 25.5q5 11 7 25t2 50v7h-46q-32 0 -51.5 -5.5t-25.5 -20.5q-3 -5 -4 -12.5t-1 -19.5q0 -13 1 -20.5t4 -13.5q11 -24 51 -24q25 0 40 8.5zM176.5 559.5
q-28.5 14.5 -44 40.5t-15.5 60q0 35 15.5 61t44 40t65.5 14q38 0 67 -14.5t44.5 -40.5t15.5 -60t-16 -60t-44.5 -40.5t-66.5 -14.5q-37 0 -65.5 14.5zM275 629q12 12 12 31q0 20 -12 32t-33 12q-19 0 -31 -12t-12 -32q0 -19 12 -31t31 -12q21 0 33 12zM240 974h144l-94 -149
h-128z" />
    <glyph glyph-name="AEacute" unicode="&#x1fc;" horiz-adv-x="708" 
d="M481 567l12 -136h188v-135h-176l14 -157h165v-139h-315l-10 125h-159l-34 -125h-167l212 706h473v-139h-203zM350 252l-25 322h-2l-88 -322h115zM407 881h149l-99 -132h-135z" />
    <glyph glyph-name="aeacute" unicode="&#x1fd;" horiz-adv-x="745" 
d="M565 137q4 12 5 34h154q-1 -45 -14 -76.5t-38 -54.5q-28 -25 -68.5 -38.5t-86.5 -13.5q-115 0 -170 75q-29 -37 -69 -56t-98 -19t-97 18.5t-56 56.5q-8 16 -11 34.5t-3 47.5t3 47t10 33q20 46 73 65t139 19h60v7q0 33 -1.5 45t-5.5 22q-12 26 -52 26q-23 0 -35.5 -6.5
t-18.5 -19.5q-2 -7 -3.5 -15t-1.5 -22h-151q0 27 3 45t10 34q21 46 71 69.5t126 23.5q52 0 86 -9t57 -29q49 38 126 38q72 0 121.5 -30.5t74.5 -84.5q14 -32 18 -70.5t4 -114.5h-279q1 -33 3 -51t7 -30q8 -17 21.5 -25t35.5 -8q23 0 38 13q9 8 13 20zM457 374
q-5 -12 -6.5 -24.5t-2.5 -40.5h125q-1 25 -3 39t-6 25q-16 33 -53 33q-38 0 -54 -32zM298 218h-46q-34 0 -52.5 -5.5t-24.5 -20.5q-3 -5 -4 -12.5t-1 -19.5q0 -14 1.5 -21t3.5 -13q6 -13 19 -18.5t33 -5.5q24 0 39.5 8t22.5 24q5 12 7 26.5t2 50.5v7zM376 705h144l-94 -149
h-128z" />
    <glyph glyph-name="Oslashacute" unicode="&#x1fe;" horiz-adv-x="628" 
d="M569 569q18 -40 25.5 -89t7.5 -127t-7.5 -127t-25.5 -89q-33 -74 -97.5 -113.5t-157.5 -39.5q-64 0 -115 19t-86 56l-49 -59h-81l92 110l-6 11q-23 40 -33 94t-10 138q0 78 7.5 127t25.5 89q33 74 97.5 113.5t157.5 39.5q125 0 199 -72l47 56h81l-89 -105q10 -17 17 -32z
M200 456.5q-3 -31.5 -3 -103.5q0 -63 3 -99l206 273q-30 47 -92 47q-38 0 -62.5 -16.5t-38.5 -47.5q-10 -22 -13 -53.5zM428 251.5q4 32.5 4 101.5q0 74 -4 106l-208 -274q29 -53 94 -53q38 0 62 16.5t38 47.5q10 23 14 55.5zM317 881h149l-99 -132h-135z" />
    <glyph glyph-name="oslashacute" unicode="&#x1ff;" horiz-adv-x="491" 
d="M450 400q12 -28 17.5 -60.5t5.5 -86.5t-5.5 -86.5t-17.5 -60.5q-25 -56 -77 -87t-127 -31q-85 0 -141 39l-23 -27h-70l53 65q-15 22 -24 41q-12 28 -17.5 60.5t-5.5 86.5t5.5 86.5t17.5 60.5q25 56 77 87t128 31q81 0 138 -38l22 27h70l-52 -65q15 -17 26 -42z
M179.5 321.5q-2.5 -22.5 -2.5 -68.5q0 -39 1 -53l121 167q-17 25 -53 25q-22 0 -36 -9t-22 -26q-6 -13 -8.5 -35.5zM311.5 184.5q2.5 22.5 2.5 68.5q0 39 -1 52l-121 -164q15 -26 54 -26q43 0 58 34q5 13 7.5 35.5zM244 705h144l-94 -149h-128z" />
    <glyph glyph-name="Scommaaccent" unicode="&#x218;" horiz-adv-x="529" 
d="M114 15.5q-58 31.5 -82 84.5q-10 22 -14 47.5t-4 66.5h179q0 -27 1.5 -40.5t6.5 -23.5q16 -38 66 -38t65 34q3 8 4.5 17t1.5 24q0 16 -1.5 25t-5.5 18q-7 16 -23 28t-35.5 20t-52.5 19q-29 10 -37 13q-50 19 -86.5 45t-53.5 64q-8 19 -12 41.5t-4 53.5q0 30 4.5 52
t13.5 44q24 53 80 82.5t136 29.5q78 0 131 -27.5t78 -81.5q10 -22 13.5 -45.5t3.5 -67.5h-167q0 27 -1.5 41t-6.5 25q-14 32 -58 32q-22 0 -37 -8.5t-21 -23.5q-3 -7 -4 -14.5t-1 -20.5q0 -12 1 -21.5t5 -17.5q9 -19 32.5 -30.5t70.5 -26.5l35 -11q66 -24 105 -49t58 -66
q9 -20 12.5 -43t3.5 -59q0 -35 -4 -59t-14 -46q-25 -57 -86.5 -87.5t-148.5 -30.5q-89 0 -147 31.5zM193 -50h152l-43 -141h-143z" />
    <glyph glyph-name="scommaaccent" unicode="&#x219;" horiz-adv-x="428" 
d="M97 7.5q-46 22.5 -66 67.5q-8 18 -11.5 39.5t-2.5 52.5h146q0 -20 1.5 -31t4.5 -18q6 -13 16.5 -19.5t27.5 -6.5q30 0 40 21q3 9 3 22q0 19 -4 28q-7 16 -25 25t-55 20q-48 16 -81 36.5t-49 55.5q-6 14 -8.5 29t-2.5 37q0 40 12 68q19 41 62.5 62.5t106.5 21.5
q64 0 107.5 -20.5t61.5 -60.5q8 -16 11 -34t3 -46h-142q0 16 -1.5 25t-4.5 15q-9 22 -36 22t-35 -18q-3 -7 -3 -18q0 -15 4 -22q5 -11 16.5 -19.5t30.5 -15.5t39 -14q38 -14 61 -24t43.5 -27t32.5 -42q6 -14 8.5 -30.5t2.5 -39.5t-3 -40.5t-10 -33.5q-20 -45 -68.5 -67.5
t-117.5 -22.5t-115 22.5zM141 -50h152l-43 -141h-143z" />
    <glyph glyph-name="uni021A" unicode="&#x21a;" horiz-adv-x="412" 
d="M125 567h-119v139h400v-139h-119v-567h-162v567zM132 -49h152l-43 -141h-143z" />
    <glyph glyph-name="uni021B" unicode="&#x21b;" horiz-adv-x="318" 
d="M128 7.5q-32 14.5 -47.5 48t-15.5 92.5v234h-56v124h56v116h149v-116h92v-124h-92v-208q0 -32 11.5 -45t38.5 -13q23 0 42 5v-119q-43 -9 -91 -9q-55 0 -87 14.5zM120 -46h152l-43 -141h-143z" />
    <glyph glyph-name="dotlessj" unicode="&#x237;" horiz-adv-x="225" 
d="M-27 -190v130q11 -1 27 -1q22 0 32 10.5t10 34.5v522h149v-543q0 -82 -37.5 -119t-119.5 -37q-32 0 -61 3z" />
    <glyph glyph-name="schwa" unicode="&#x259;" horiz-adv-x="484" 
d="M461 339.5q5 -33.5 5 -88.5t-5 -86.5t-17 -59.5q-25 -56 -76 -86.5t-124 -30.5t-125 30.5t-78 86.5q-15 34 -19 69t-4 114h296q-1 32 -3 49t-7 29q-8 18 -23.5 27t-41.5 9q-30 0 -48 -16q-9 -8 -13.5 -19.5t-5.5 -31.5h-151q1 44 14 74.5t39 54.5q29 26 71 40t90 14
q76 0 129.5 -30.5t79.5 -86.5q12 -28 17 -61.5zM304 136q5 12 7 23.5t3 37.5h-144q1 -27 3 -38.5t7 -22.5q16 -36 62 -36t62 36z" />
    <glyph glyph-name="circumflex" unicode="&#x2c6;" horiz-adv-x="448" 
d="M141 706h167l90 -151h-129l-45 82l-46 -82h-128z" />
    <glyph glyph-name="caron" unicode="&#x2c7;" horiz-adv-x="448" 
d="M307 555h-167l-90 151h128l46 -81l46 81h128z" />
    <glyph glyph-name="uni02C9" unicode="&#x2c9;" horiz-adv-x="375" 
d="M50 674h275v-97h-275v97z" />
    <glyph glyph-name="breve" unicode="&#x2d8;" horiz-adv-x="432" 
d="M95.5 587.5q-41.5 39.5 -45.5 118.5h105q4 -40 18.5 -57t43.5 -17t43 17t18 57h104q-6 -158 -165 -158q-80 0 -121.5 39.5z" />
    <glyph glyph-name="dotaccent" unicode="&#x2d9;" horiz-adv-x="261" 
d="M73 577.5q-23 21.5 -23 55.5t23 55.5t58 21.5q22 0 40.5 -10t29 -27.5t10.5 -39.5q0 -34 -22.5 -55.5t-57.5 -21.5t-58 21.5z" />
    <glyph glyph-name="ring" unicode="&#x2da;" horiz-adv-x="352" 
d="M109.5 559.5q-28.5 14.5 -44 40.5t-15.5 60q0 35 15.5 61t44 40t65.5 14q38 0 67 -14.5t44.5 -40.5t15.5 -60t-16 -60t-44.5 -40.5t-66.5 -14.5q-37 0 -65.5 14.5zM208 629q12 12 12 31q0 20 -12 32t-33 12q-19 0 -31 -12t-12 -32q0 -19 12 -31t31 -12q21 0 33 12z" />
    <glyph glyph-name="ogonek" unicode="&#x2db;" horiz-adv-x="288" 
d="M81.5 -179.5q-31.5 23.5 -31.5 66.5q0 37 24 65t67 50l95 -2q-34 -25 -51.5 -44t-17.5 -40q0 -15 9.5 -23t23.5 -8q18 0 36 8v-83q-30 -13 -71 -13q-52 0 -83.5 23.5z" />
    <glyph glyph-name="tilde" unicode="&#x2dc;" horiz-adv-x="435" 
d="M250 561q-18 7 -36 20q-20 13 -30.5 18.5t-21.5 5.5q-15 0 -21.5 -12t-8.5 -37h-82q2 78 24 115t69 37q22 0 39.5 -7.5t37.5 -20.5q19 -12 30.5 -17.5t22.5 -5.5q15 0 21.5 11.5t7.5 37.5h83q-2 -78 -24 -115t-70 -37q-23 0 -41 7z" />
    <glyph glyph-name="hungarumlaut" unicode="&#x2dd;" horiz-adv-x="463" 
d="M131 706h121l-105 -150h-97zM293 706h120l-104 -150h-97z" />
    <glyph glyph-name="gravecomb" unicode="&#x300;" 
d="M-178 556l-94 149h144l78 -149h-128z" />
    <glyph glyph-name="acutecomb" unicode="&#x301;" 
d="M-194 705h144l-94 -149h-128z" />
    <glyph glyph-name="circumflexcomb" unicode="&#x302;" 
d="M-307 706h167l90 -151h-129l-45 82l-46 -82h-128z" />
    <glyph glyph-name="tildecomb" unicode="&#x303;" 
d="M-185 561q-18 7 -36 20q-20 13 -30.5 18.5t-21.5 5.5q-15 0 -21.5 -12t-8.5 -37h-82q2 78 24 115t69 37q22 0 39.5 -7.5t37.5 -20.5q19 -12 30.5 -17.5t22.5 -5.5q15 0 21.5 11.5t7.5 37.5h83q-2 -78 -24 -115t-70 -37q-23 0 -41 7z" />
    <glyph glyph-name="macroncomb" unicode="&#x304;" 
d="M-325 674h275v-97h-275v97z" />
    <glyph glyph-name="brevecomb" unicode="&#x306;" 
d="M-336.5 587.5q-41.5 39.5 -45.5 118.5h105q4 -40 18.5 -57t43.5 -17t43 17t18 57h104q-6 -158 -165 -158q-80 0 -121.5 39.5z" />
    <glyph glyph-name="dotaccentcomb" unicode="&#x307;" 
d="M-188 577.5q-23 21.5 -23 55.5t23 55.5t58 21.5q22 0 40.5 -10t29 -27.5t10.5 -39.5q0 -34 -22.5 -55.5t-57.5 -21.5t-58 21.5z" />
    <glyph glyph-name="dieresiscomb" unicode="&#x308;" 
d="M-371.5 575.5q-21.5 20.5 -21.5 52.5t21.5 52.5t54.5 20.5t54.5 -20.5t21.5 -52.5t-21.5 -52.5t-54.5 -20.5t-54.5 20.5zM-165 563.5q-17 9.5 -27 26.5t-10 37q0 32 21.5 53t54.5 21q21 0 38.5 -9.5t27.5 -26.5t10 -38q0 -20 -10 -37t-27.5 -26.5t-38.5 -9.5
q-22 0 -39 9.5z" />
    <glyph glyph-name="ringcomb" unicode="&#x30a;" 
d="M-242.5 559.5q-28.5 14.5 -44 40.5t-15.5 60q0 35 15.5 61t44 40t65.5 14q38 0 67 -14.5t44.5 -40.5t15.5 -60t-16 -60t-44.5 -40.5t-66.5 -14.5q-37 0 -65.5 14.5zM-144 629q12 12 12 31q0 20 -12 32t-33 12q-19 0 -31 -12t-12 -32q0 -19 12 -31t31 -12q21 0 33 12z" />
    <glyph glyph-name="hungarumlautcomb" unicode="&#x30b;" 
d="M-332 706h121l-105 -150h-97zM-170 706h120l-104 -150h-97z" />
    <glyph glyph-name="caroncomb" unicode="&#x30c;" 
d="M-141 555h-167l-90 151h128l46 -81l46 81h128z" />
    <glyph glyph-name="commaturnedabovecomb" unicode="&#x312;" 
d="M-84 561h-152l43 142h143z" />
    <glyph glyph-name="commaaccent" unicode="&#x326;" 
d="M-202 -49h152l-43 -141h-143z" />
    <glyph glyph-name="cedillacomb" unicode="&#x327;" 
d="M-75 -45.5q25 -23.5 25 -62.5q0 -53 -36.5 -75.5t-103.5 -22.5q-53 0 -92 15l15 70q30 -12 65 -12q24 0 37 6.5t13 22.5q0 15 -13 22t-41 7h-51l21 94h99l-9 -41h4q42 0 67 -23.5z" />
    <glyph glyph-name="ogonekcomb" unicode="&#x328;" 
d="M-206.5 -179.5q-31.5 23.5 -31.5 66.5q0 37 24 65t67 50l95 -2q-34 -25 -51.5 -44t-17.5 -40q0 -15 9.5 -23t23.5 -8q18 0 36 8v-83q-30 -13 -71 -13q-52 0 -83.5 23.5z" />
    <glyph glyph-name="uni0335" unicode="&#x335;" 
d="M-347 386h297v-96h-297v96z" />
    <glyph glyph-name="uni0336" unicode="&#x336;" 
d="M-289 675h289v-92h-289v92z" />
    <glyph glyph-name="uni0337" unicode="&#x337;" 
d="M0 515v-122l-125 -90v26l-125 -84v121l125 86v-24z" />
    <glyph glyph-name="uni0338" unicode="&#x338;" 
d="M-386 145l3 -6l196 270l-1 2l78 96h70l-123 -154l-2 4l-197 -267l1 -2l-73 -88h-70z" />
    <glyph glyph-name="uni0394" unicode="&#x394;" horiz-adv-x="600" 
d="M601 0h-602l177 706h249zM405 129l-104 452h-2l-104 -452h210z" />
    <glyph glyph-name="uni03A9" unicode="&#x3a9;" horiz-adv-x="612" 
d="M455 123h119v-123h-238v264q49 8 73 58q8 18 11 40t3 67q0 50 -3 72t-10 38q-28 61 -104 61t-104 -61q-7 -16 -10 -38t-3 -72q0 -45 3 -67t11 -40q10 -23 28.5 -38.5t44.5 -19.5v-264h-238v123h118v43q-75 34 -106 106q-14 29 -19 62.5t-5 94.5q0 64 5 98.5t18 62.5
q29 64 95 98t162 34q97 0 162.5 -33.5t94.5 -97.5q13 -29 18 -63.5t5 -98.5q0 -60 -5.5 -94t-18.5 -63q-34 -74 -107 -106v-43z" />
    <glyph glyph-name="uni03BC" unicode="&#x3bc;" horiz-adv-x="487" 
d="M454 506v-506h-147v61q-18 -35 -46 -53.5t-64 -18.5q-9 0 -25 2q10 -57 10 -128v-54h-149v697h150v-316q0 -40 13.5 -57t43.5 -17q32 0 48 18.5t16 57.5v314h150z" />
    <glyph glyph-name="pi" unicode="&#x3c0;" horiz-adv-x="620" 
d="M431.5 7.5q-32.5 14.5 -48 48t-15.5 91.5v235h-115v-382h-150v382h-66v124h547v-124h-66v-209q0 -32 11 -44.5t37 -12.5q12 0 18 1v-119q-27 -5 -66 -5q-54 0 -86.5 14.5z" />
    <glyph glyph-name="Wgrave" unicode="&#x1e80;" horiz-adv-x="818" 
d="M819 706l-157 -706h-168l-84 449l-85 -449h-166l-160 706h158l89 -449l82 449h165l81 -446l87 446h158zM360 749l-100 132h149l85 -132h-134z" />
    <glyph glyph-name="wgrave" unicode="&#x1e81;" horiz-adv-x="733" 
d="M736 507l-152 -507h-150l-68 292l-68 -292h-152l-150 507h156l67 -295l76 295h140l76 -294l68 294h157zM318 556l-94 149h144l78 -149h-128z" />
    <glyph glyph-name="Wacute" unicode="&#x1e82;" horiz-adv-x="818" 
d="M819 706l-157 -706h-168l-84 449l-85 -449h-166l-160 706h158l89 -449l82 449h165l81 -446l87 446h158zM412 881h149l-99 -132h-135z" />
    <glyph glyph-name="wacute" unicode="&#x1e83;" horiz-adv-x="733" 
d="M736 507l-152 -507h-150l-68 292l-68 -292h-152l-150 507h156l67 -295l76 295h140l76 -294l68 294h157zM363 705h144l-94 -149h-128z" />
    <glyph glyph-name="Wdieresis" unicode="&#x1e84;" horiz-adv-x="818" 
d="M819 706l-157 -706h-168l-84 449l-85 -449h-166l-160 706h158l89 -449l82 449h165l81 -446l87 446h158zM259 768q-21 20 -21 51t21 51t53 20t52.5 -20t20.5 -51t-20.5 -51t-52.5 -20t-53 20zM458 768q-21 20 -21 51t21 51t53 20t53 -20t21 -51t-21 -51t-53 -20t-53 20z
" />
    <glyph glyph-name="wdieresis" unicode="&#x1e85;" horiz-adv-x="733" 
d="M736 507l-152 -507h-150l-68 292l-68 -292h-152l-150 507h156l67 -295l76 295h140l76 -294l68 294h157zM214.5 575.5q-21.5 20.5 -21.5 52.5t21.5 52.5t54.5 20.5t54.5 -20.5t21.5 -52.5t-21.5 -52.5t-54.5 -20.5t-54.5 20.5zM421 563.5q-17 9.5 -27 26.5t-10 37
q0 32 21.5 53t54.5 21q21 0 38.5 -9.5t27.5 -26.5t10 -38q0 -20 -10 -37t-27.5 -26.5t-38.5 -9.5q-22 0 -39 9.5z" />
    <glyph glyph-name="Germandbls" unicode="&#x1e9e;" horiz-adv-x="577" 
d="M549.5 289q4.5 -25 4.5 -65q0 -43 -4.5 -69.5t-14.5 -48.5q-24 -53 -75.5 -81t-129.5 -28q-44 0 -79 6v134q11 -3 39 -3q70 0 89 41q3 9 4.5 20.5t1.5 33.5q0 25 -1.5 38t-5.5 22q-9 20 -29.5 31t-50.5 11q-15 0 -22 -1v2l74 235h-147v-567h-162v706h498v-4l-88 -284
q60 -25 85 -82q9 -22 13.5 -47z" />
    <glyph glyph-name="Ygrave" unicode="&#x1ef2;" horiz-adv-x="531" 
d="M184 297l-185 409h170l97 -242l96 242h169l-184 -409v-297h-163v297zM218 749l-100 132h149l85 -132h-134z" />
    <glyph glyph-name="ygrave" unicode="&#x1ef3;" horiz-adv-x="470" 
d="M473 506l-167 -506l-66 -191h-149l66 193l-161 504h162l76 -331l82 331h157zM189 556l-94 149h144l78 -149h-128z" />
    <glyph glyph-name="uni2009" unicode="&#x2009;" horiz-adv-x="62" 
 />
    <glyph glyph-name="uni2011" unicode="&#x2011;" horiz-adv-x="339" 
d="M37 363h265v-128h-265v128z" />
    <glyph glyph-name="endash" unicode="&#x2013;" horiz-adv-x="408" 
d="M37 364h335v-127h-335v127z" />
    <glyph glyph-name="emdash" unicode="&#x2014;" horiz-adv-x="813" 
d="M37 364h740v-127h-740v127z" />
    <glyph glyph-name="quoteleft" unicode="&#x2018;" horiz-adv-x="251" 
d="M172 432h-153l98 274h114z" />
    <glyph glyph-name="quoteright" unicode="&#x2019;" horiz-adv-x="251" 
d="M79 706h152l-98 -274h-114z" />
    <glyph glyph-name="quotesinglbase" unicode="&#x201a;" horiz-adv-x="251" 
d="M79 146h152l-98 -274h-114z" />
    <glyph glyph-name="quotedblleft" unicode="&#x201c;" horiz-adv-x="441" 
d="M172 432h-153l98 274h114zM362 432h-152l98 274h113z" />
    <glyph glyph-name="quotedblright" unicode="&#x201d;" horiz-adv-x="441" 
d="M269 706h152l-98 -274h-114zM79 706h152l-98 -274h-114z" />
    <glyph glyph-name="quotedblbase" unicode="&#x201e;" horiz-adv-x="441" 
d="M269 146h152l-98 -274h-114zM79 146h152l-98 -274h-114z" />
    <glyph glyph-name="dagger" unicode="&#x2020;" horiz-adv-x="364" 
d="M351 421h-93v-421h-152v421h-94v137h94v148h152v-148h93v-137z" />
    <glyph glyph-name="daggerdbl" unicode="&#x2021;" horiz-adv-x="364" 
d="M258 433v-160h93v-138h-93v-135h-152v135h-94v138h94v160h-94v138h94v135h152v-135h93v-138h-93z" />
    <glyph glyph-name="bullet" unicode="&#x2022;" horiz-adv-x="445" 
d="M150 239q-32 18 -50 50t-18 74q0 43 17.5 74t49.5 48t75 17q41 0 72 -17t48.5 -48.5t17.5 -73.5t-17.5 -74t-48.5 -50t-72 -18q-42 0 -74 18z" />
    <glyph glyph-name="ellipsis" unicode="&#x2026;" horiz-adv-x="799" 
d="M336 7.5q-25 23.5 -25 62.5t24.5 62.5t64.5 23.5q39 0 63 -23.5t24 -62.5t-24 -62.5t-63 -23.5t-64 23.5zM585 7.5q-25 23.5 -25 62.5t24.5 62.5t64.5 23.5q39 0 63 -23.5t24 -62.5t-24 -62.5t-63 -23.5t-64 23.5zM88 7.5q-25 23.5 -25 62.5t24.5 62.5t64.5 23.5
q39 0 63 -23.5t24 -62.5t-24 -62.5t-63 -23.5t-64 23.5z" />
    <glyph glyph-name="perthousand" unicode="&#x2030;" horiz-adv-x="873" 
d="M71 424q-29 15 -42 45q-8 19 -11.5 39t-3.5 53t3.5 53.5t11.5 38.5q13 30 42.5 45.5t70.5 15.5q42 0 70 -15.5t42 -45.5q9 -18 12.5 -38t3.5 -54q0 -33 -3.5 -53t-12.5 -39q-27 -60 -112 -60q-42 0 -71 15zM452 706h99l-414 -706h-99zM159.5 495.5q7.5 4.5 10.5 11.5
t4 19.5t1 34.5q0 21 -1 34.5t-4 20.5q-4 8 -10.5 11.5t-17.5 3.5t-17.5 -3.5t-10.5 -11.5q-3 -7 -4 -20.5t-1 -34.5q0 -22 1 -34.5t4 -19.5t10 -11.5t18 -4.5q10 0 17.5 4.5zM377 8.5q-29 15.5 -43 45.5q-8 18 -11.5 38.5t-3.5 53.5t3.5 53t11.5 39q14 30 43 45t71 15
t70.5 -15t41.5 -45q9 -19 12.5 -38.5t3.5 -53.5t-3.5 -54t-12.5 -38q-13 -30 -41.5 -45.5t-70.5 -15.5t-71 15.5zM660 8.5q-29 15.5 -42 45.5q-8 18 -11.5 38.5t-3.5 53.5t3.5 53t11.5 39q13 30 42 45t71 15q85 0 112 -60q9 -19 12.5 -38.5t3.5 -53.5t-3.5 -54t-12.5 -38
q-27 -61 -112 -61q-42 0 -71 15.5zM465.5 80q7.5 4 10.5 11t4 19.5t1 35.5q0 20 -1 33.5t-4 20.5q-4 8 -10.5 11.5t-17.5 3.5q-22 0 -28 -15q-3 -7 -4 -20.5t-1 -33.5q0 -23 1 -35.5t4 -19.5q7 -15 28 -15q10 0 17.5 4zM748.5 80q7.5 4 10.5 11t4 19.5t1 35.5q0 20 -1 33.5
t-4 20.5q-4 8 -10.5 11.5t-17.5 3.5t-17.5 -3.5t-10.5 -11.5q-3 -7 -4 -20.5t-1 -33.5q0 -23 1 -35.5t4 -19.5q7 -15 28 -15q10 0 17.5 4z" />
    <glyph glyph-name="guilsinglleft" unicode="&#x2039;" horiz-adv-x="291" 
d="M10 294l123 164h147l-123 -164l123 -164h-147z" />
    <glyph glyph-name="guilsinglright" unicode="&#x203a;" horiz-adv-x="291" 
d="M10 130l124 164l-124 164h148l123 -164l-123 -164h-148z" />
    <glyph glyph-name="fraction" unicode="&#x2044;" horiz-adv-x="180" 
d="M230 706h89l-370 -706h-88z" />
    <glyph glyph-name="zero.superior" unicode="&#x2070;" horiz-adv-x="364" 
d="M94.5 448q-35.5 19 -53.5 59q-10 24 -14.5 51.5t-4.5 73.5t4.5 73.5t14.5 51.5q18 40 53.5 59t87.5 19t87.5 -19t53.5 -59q10 -24 14.5 -51.5t4.5 -73.5t-4.5 -73.5t-14.5 -51.5q-18 -40 -53.5 -59t-87.5 -19t-87.5 19zM203 533.5q8 4.5 13 13.5q4 8 5 23t1 62t-1 62
t-5 23q-5 9 -13 13.5t-21 4.5t-21 -4.5t-13 -13.5q-4 -8 -5 -23t-1 -62t1 -62t5 -23q5 -9 13 -13.5t21 -4.5t21 4.5z" />
    <glyph glyph-name="four.superior" unicode="&#x2074;" horiz-adv-x="368" 
d="M199 507h-209v2l121 317h197v-222h51v-97h-51v-69h-109v69zM199 604v184l-61 -184h61z" />
    <glyph glyph-name="five.superior" unicode="&#x2075;" horiz-adv-x="338" 
d="M80.5 446q-36.5 17 -53.5 54q-13 31 -13 76l109 -1q0 -12 1 -20.5t4 -15.5q9 -20 38 -20q25 0 34 18q2 4 3 11t1 17q0 12 -1.5 18.5t-4.5 12.5q-11 16 -33 22.5t-65 6.5q-38 0 -71 -5l33 206h241l-13 -87h-134l-7 -48q17 5 49 5q42 0 71 -15.5t42 -43.5q6 -14 8.5 -29
t2.5 -39q0 -25 -2.5 -40t-8.5 -28q-16 -36 -53 -54t-90 -18q-51 0 -87.5 17z" />
    <glyph glyph-name="six.superior" unicode="&#x2076;" horiz-adv-x="365" 
d="M342 606.5q2 -12.5 2 -35.5q0 -25 -3 -39t-9 -28q-16 -37 -54 -56t-92 -19q-112 0 -149 82q-9 21 -13 46.5t-4 73.5t4 74t14 49q37 81 150 81q37 0 63.5 -9t46.5 -28q15 -15 23 -35t12 -48h-106q-1 9 -3 15t-6 10q-5 5 -12 7.5t-17 2.5q-32 0 -44 -28q-4 -9 -6 -22.5
t-2 -39.5q28 30 85 30q40 0 70 -14.5t42 -43.5q6 -13 8 -25.5zM219.5 544q0.5 7 0.5 18q0 12 -1 19t-3 12q-8 17 -32 17q-11 0 -19.5 -4.5t-12.5 -12.5q-2 -5 -3.5 -12t-1.5 -19q0 -10 1 -16.5t3 -11.5q9 -18 33 -18q13 0 21 4t12 13q2 4 2.5 11z" />
    <glyph glyph-name="seven.superior" unicode="&#x2077;" horiz-adv-x="318" 
d="M149 724h-132v102h302l-154 -388h-128z" />
    <glyph glyph-name="eight.superior" unicode="&#x2078;" horiz-adv-x="347" 
d="M326.5 584q1.5 -11 1.5 -31t-2 -33t-7 -24q-15 -34 -53 -50.5t-92 -16.5q-55 0 -93 16.5t-53 50.5q-5 10 -7 23t-2 34q0 20 1.5 31t6.5 21q15 33 57 44q-19 6 -32.5 17.5t-20.5 25.5q-7 15 -7 42q0 12 2 21t6 18q13 29 51 45.5t91 16.5t90.5 -16.5t50.5 -45.5
q4 -10 6 -18.5t2 -20.5q0 -24 -8 -42q-7 -14 -20.5 -25.5t-32.5 -17.5q43 -11 58 -44q5 -10 6.5 -21zM137 724q0 -8 1 -13.5t3 -8.5q7 -17 33 -17q25 0 33 17q2 3 2 8.5v13.5q0 15 -3 22q-6 15 -32 15q-27 0 -34 -16q-3 -6 -3 -21zM212 541q1 6 1 16q0 11 -1 17t-3 10
q-4 9 -13 14t-22 5q-28 0 -36 -19q-2 -4 -3 -10t-1 -17q0 -10 1 -16t3 -10q8 -19 36 -19q27 0 35 19q2 4 3 10z" />
    <glyph glyph-name="nine.superior" unicode="&#x2079;" horiz-adv-x="365" 
d="M341.5 706.5q3.5 -25.5 3.5 -73.5t-4 -74t-14 -49q-18 -41 -55.5 -61t-93.5 -20q-37 0 -64 9t-47 28q-14 15 -22 35t-13 48h107q1 -9 3 -15t6 -10q9 -10 29 -10q31 0 44 28q4 8 5.5 21.5t1.5 39.5q-27 -29 -85 -29q-39 0 -69 14.5t-43 43.5q-5 12 -7 24.5t-2 36.5
q0 25 2.5 39.5t8.5 27.5q17 37 55 56t92 19q112 0 149 -82q9 -21 12.5 -46.5zM217 683.5q1 7.5 1 18.5q0 10 -1 16.5t-3 11.5q-8 18 -33 18t-32 -17q-2 -5 -3 -11.5t-1 -17.5q0 -13 1 -19.5t3 -11.5q9 -17 32 -17q24 0 33 17q2 5 3 12.5z" />
    <glyph glyph-name="uni207A" unicode="&#x207a;" horiz-adv-x="311" 
d="M289 591h-93v-85h-82v85h-92v83h92v86h83v-86h92v-83z" />
    <glyph glyph-name="uni207B" unicode="&#x207b;" horiz-adv-x="311" 
d="M22 674h267v-83h-267v83z" />
    <glyph glyph-name="uni207C" unicode="&#x207c;" horiz-adv-x="305" 
d="M22 720h261v-70h-261v70zM22 616h261v-71h-261v71z" />
    <glyph glyph-name="uni207D" unicode="&#x207d;" horiz-adv-x="205" 
d="M51.5 490.5q-17.5 62.5 -17.5 141.5q0 80 17.5 141.5t54.5 128.5h91q-34 -66 -52 -130.5t-18 -139.5q0 -74 18 -138.5t52 -131.5h-91q-37 66 -54.5 128.5z" />
    <glyph glyph-name="uni207E" unicode="&#x207e;" horiz-adv-x="205" 
d="M7 362q35 67 53 131.5t18 138.5q0 75 -18 139.5t-53 130.5h92q37 -67 54.5 -128.5t17.5 -141.5q0 -79 -17.5 -141.5t-54.5 -128.5h-92z" />
    <glyph glyph-name="n.superior" unicode="&#x207f;" horiz-adv-x="341" 
d="M296.5 686.5q26.5 -29.5 26.5 -83.5v-250h-114v223q0 22 -8 33.5t-27 11.5t-29 -12.5t-10 -35.5v-220h-114v355h114v-34q32 42 86 42q49 0 75.5 -29.5z" />
    <glyph glyph-name="zero.inferior" unicode="&#x2080;" horiz-adv-x="364" 
d="M94.5 -110q-35.5 19 -53.5 59q-10 24 -14.5 51.5t-4.5 73.5t4.5 73.5t14.5 51.5q18 40 53.5 59t87.5 19t87.5 -19t53.5 -59q10 -24 14.5 -51.5t4.5 -73.5t-4.5 -73.5t-14.5 -51.5q-18 -40 -53.5 -59t-87.5 -19t-87.5 19zM203 -24.5q8 4.5 13 13.5q4 8 5 23t1 62t-1 62
t-5 23q-5 9 -13 13.5t-21 4.5t-21 -4.5t-13 -13.5q-4 -8 -5 -23t-1 -62t1 -62t5 -23q5 -9 13 -13.5t21 -4.5t21 4.5z" />
    <glyph glyph-name="one.inferior" unicode="&#x2081;" horiz-adv-x="223" 
d="M66 164h-61l18 104h162v-388h-119v284z" />
    <glyph glyph-name="two.inferior" unicode="&#x2082;" horiz-adv-x="322" 
d="M1 -115l155 193q22 28 30 42t8 30t-3 20q-5 8 -12 12t-19 4q-26 0 -34 -18q-3 -6 -4 -12t-1 -15h-111q0 23 3 38t10 30q30 69 137 69q50 0 85.5 -16.5t50.5 -49.5q10 -23 10 -55q0 -29 -7.5 -50.5t-26.5 -43.5q-28 -35 -74 -81h110v-102h-307v5z" />
    <glyph glyph-name="three.inferior" unicode="&#x2083;" horiz-adv-x="328" 
d="M307 22.5q2 -11.5 2 -30.5q0 -21 -2 -33t-7 -22q-15 -33 -51.5 -50t-90.5 -17q-103 0 -133 65q-7 15 -10 35t-3 52l102 -1q0 -14 1 -25t5 -17q8 -18 35 -18q26 0 34 16q4 8 4 26q0 8 -1 14t-3 10q-4 9 -14.5 12.5t-30.5 3.5h-11v74h11q34 0 42 17q3 8 3 20q0 13 -3 19
q-6 14 -29 14q-25 0 -33 -17q-2 -5 -3 -11t-1 -17h-103q0 22 2.5 37t7.5 28q17 36 52.5 53.5t84.5 17.5q47 0 81.5 -16.5t48.5 -47.5q8 -19 8 -50q0 -13 -1.5 -22t-5.5 -17q-12 -27 -48 -41q41 -11 54 -40q4 -10 6 -21.5z" />
    <glyph glyph-name="four.inferior" unicode="&#x2084;" horiz-adv-x="368" 
d="M199 -51h-209v2l121 317h197v-222h51v-97h-51v-69h-109v69zM199 46v184l-61 -184h61z" />
    <glyph glyph-name="five.inferior" unicode="&#x2085;" horiz-adv-x="338" 
d="M80.5 -112q-36.5 17 -53.5 54q-13 31 -13 76l109 -1q0 -12 1 -20.5t4 -15.5q9 -20 38 -20q25 0 34 18q2 4 3 11t1 17q0 12 -1.5 18.5t-4.5 12.5q-11 16 -33 22.5t-65 6.5q-38 0 -71 -5l33 206h241l-13 -87h-134l-7 -48q17 5 49 5q42 0 71 -15.5t42 -43.5q6 -14 8.5 -29
t2.5 -39q0 -25 -2.5 -40t-8.5 -28q-16 -36 -53 -54t-90 -18q-51 0 -87.5 17z" />
    <glyph glyph-name="six.inferior" unicode="&#x2086;" horiz-adv-x="365" 
d="M342 48.5q2 -12.5 2 -35.5q0 -25 -3 -39t-9 -28q-16 -37 -54 -56t-92 -19q-112 0 -149 82q-9 21 -13 46.5t-4 73.5t4 74t14 49q37 81 150 81q37 0 63.5 -9t46.5 -28q15 -15 23 -35t12 -48h-106q-1 9 -3 15t-6 10q-5 5 -12 7.5t-17 2.5q-32 0 -44 -28q-4 -9 -6 -22.5
t-2 -39.5q28 30 85 30q40 0 70 -14.5t42 -43.5q6 -13 8 -25.5zM219.5 -14q0.5 7 0.5 18q0 12 -1 19t-3 12q-8 17 -32 17q-11 0 -19.5 -4.5t-12.5 -12.5q-2 -5 -3.5 -12t-1.5 -19q0 -10 1 -16.5t3 -11.5q9 -18 33 -18q13 0 21 4t12 13q2 4 2.5 11z" />
    <glyph glyph-name="seven.inferior" unicode="&#x2087;" horiz-adv-x="318" 
d="M149 166h-132v102h302l-154 -388h-128z" />
    <glyph glyph-name="eight.inferior" unicode="&#x2088;" horiz-adv-x="347" 
d="M326.5 26q1.5 -11 1.5 -31t-2 -33t-7 -24q-15 -34 -53 -50.5t-92 -16.5q-55 0 -93 16.5t-53 50.5q-5 10 -7 23t-2 34q0 20 1.5 31t6.5 21q15 33 57 44q-19 6 -32.5 17.5t-20.5 25.5q-7 15 -7 42q0 12 2 21t6 18q13 29 51 45.5t91 16.5t90.5 -16.5t50.5 -45.5
q4 -10 6 -18.5t2 -20.5q0 -24 -8 -42q-7 -14 -20.5 -25.5t-32.5 -17.5q43 -11 58 -44q5 -10 6.5 -21zM137 166q0 -8 1 -13.5t3 -8.5q7 -17 33 -17q25 0 33 17q2 3 2 8.5v13.5q0 15 -3 22q-6 15 -32 15q-27 0 -34 -16q-3 -6 -3 -21zM212 -17q1 6 1 16q0 11 -1 17t-3 10
q-4 9 -13 14t-22 5q-28 0 -36 -19q-2 -4 -3 -10t-1 -17q0 -10 1 -16t3 -10q8 -19 36 -19q27 0 35 19q2 4 3 10z" />
    <glyph glyph-name="nine.inferior" unicode="&#x2089;" horiz-adv-x="365" 
d="M341.5 148.5q3.5 -25.5 3.5 -73.5t-4 -74t-14 -49q-18 -41 -55.5 -61t-93.5 -20q-37 0 -64 9t-47 28q-14 15 -22 35t-13 48h107q1 -9 3 -15t6 -10q9 -10 29 -10q31 0 44 28q4 8 5.5 21.5t1.5 39.5q-27 -29 -85 -29q-39 0 -69 14.5t-43 43.5q-5 12 -7 24.5t-2 36.5
q0 25 2.5 39.5t8.5 27.5q17 37 55 56t92 19q112 0 149 -82q9 -21 12.5 -46.5zM217 125.5q1 7.5 1 18.5q0 10 -1 16.5t-3 11.5q-8 18 -33 18t-32 -17q-2 -5 -3 -11.5t-1 -17.5q0 -13 1 -19.5t3 -11.5q9 -17 32 -17q24 0 33 17q2 5 3 12.5z" />
    <glyph glyph-name="uni208A" unicode="&#x208a;" horiz-adv-x="310" 
d="M289 33h-93v-85h-82v85h-92v83h92v86h83v-86h92v-83z" />
    <glyph glyph-name="uni208B" unicode="&#x208b;" horiz-adv-x="311" 
d="M22 116h267v-83h-267v83z" />
    <glyph glyph-name="uni208C" unicode="&#x208c;" horiz-adv-x="305" 
d="M22 162h261v-70h-261v70zM22 58h261v-71h-261v71z" />
    <glyph glyph-name="uni208D" unicode="&#x208d;" horiz-adv-x="205" 
d="M51.5 -67.5q-17.5 62.5 -17.5 141.5q0 80 17.5 141.5t54.5 128.5h91q-34 -66 -52 -130.5t-18 -139.5q0 -74 18 -138.5t52 -131.5h-91q-37 66 -54.5 128.5z" />
    <glyph glyph-name="uni208E" unicode="&#x208e;" horiz-adv-x="205" 
d="M7 -196q35 67 53 131.5t18 138.5q0 75 -18 139.5t-53 130.5h92q37 -67 54.5 -128.5t17.5 -141.5q0 -79 -17.5 -141.5t-54.5 -128.5h-92z" />
    <glyph glyph-name="uni2099" unicode="&#x2099;" horiz-adv-x="341" 
d="M296.5 151.5q26.5 -29.5 26.5 -83.5v-250h-114v223q0 22 -8 33.5t-27 11.5t-29 -12.5t-10 -35.5v-220h-114v355h114v-34q32 42 86 42q49 0 75.5 -29.5z" />
    <glyph glyph-name="Euro" unicode="&#x20ac;" horiz-adv-x="644" 
d="M621 247q-1 -126 -77 -195q-35 -33 -84 -50.5t-106 -17.5q-92 0 -157.5 40t-100.5 116q-12 28 -19 58t-10 69h-46v70h43v16v24h-43v70h47q3 37 10 65t19 55q33 74 97.5 114.5t159.5 40.5q56 0 103 -17t82 -49q39 -35 58.5 -85t21.5 -117h-172q0 39 -7.5 61t-23.5 36
q-13 12 -29.5 18t-40.5 6q-67 0 -93 -59q-6 -13 -9.5 -28.5t-5.5 -40.5h160v-70h-162v-23v-17h162v-70h-160q1 -28 5 -46t10 -32q26 -58 94 -58q45 0 72 24q14 14 21.5 35t8.5 57h172z" />
    <glyph glyph-name="uni20B9" unicode="&#x20b9;" horiz-adv-x="559" 
d="M548 629h-133q12 -13 22 -35q14 -34 17 -83h94v-76h-94q-1 -51 -16 -85q-36 -79 -135 -91l181 -259h-182l-240 356h145q32 0 51.5 9.5t28.5 30.5q4 7 5.5 16.5t2.5 22.5h-262v76h262q-3 21 -8 33q-9 22 -27.5 32t-48.5 10h-178v120h515v-77z" />
    <glyph glyph-name="uni20BA" unicode="&#x20ba;" horiz-adv-x="537" 
d="M525 307q0 -72 -6.5 -115t-21.5 -76q-26 -58 -80 -87t-141 -29h-197v259l-58 -27v82l58 27v46l-58 -27v81l58 27v238h161v-171l146 67v-81l-146 -68v-45l146 68v-82l-146 -68v-188h22q39 0 63 12.5t36 37.5q8 17 10.5 42t2.5 77h151z" />
    <glyph glyph-name="uni20BC" unicode="&#x20bc;" horiz-adv-x="751" 
d="M704.5 444q5.5 -35 5.5 -96v-348h-162v353q0 44 -2.5 65.5t-10.5 38.5q-22 47 -78 47v-504h-163v504q-56 0 -78 -47q-8 -17 -10.5 -38.5t-2.5 -65.5v-353h-162v348q0 60 5.5 95.5t18.5 65.5q28 63 84.5 93t144.5 30v74h163v-74q88 0 144 -30t84 -93q14 -30 19.5 -65z" />
    <glyph glyph-name="uni2113" unicode="&#x2113;" horiz-adv-x="450" 
d="M232.5 132.5q23.5 -17.5 71.5 -17.5q46 0 90 16v-120q-28 -9 -60 -14t-64 -5q-205 0 -217 185q-14 -1 -43 -1v108q29 0 42 1v191q0 85 19 137t60 77t108 25q68 0 109.5 -23t60.5 -71.5t19 -125.5q0 -87 -22.5 -147.5t-72 -98.5t-130.5 -56q6 -43 29.5 -60.5zM201 308
q30 14 47 37.5t23.5 59.5t6.5 90q0 48 -4.5 72.5t-13 33t-22.5 8.5q-20 0 -28.5 -17.5t-8.5 -63.5v-220z" />
    <glyph glyph-name="uni2117" unicode="&#x2117;" horiz-adv-x="686" 
d="M167.5 30.5q-72.5 46.5 -109.5 127.5q-17 37 -24.5 85t-7.5 110t7.5 110t24.5 85q37 81 111 127.5t175 46.5q99 0 172.5 -45t110.5 -126q17 -38 25 -87t8 -111q0 -64 -7.5 -111t-24.5 -85q-37 -81 -109.5 -127t-175.5 -46t-175.5 46.5zM483 81q57 38 87 106
q13 29 18.5 68.5t5.5 94.5q0 116 -26 175q-30 67 -87 102.5t-136 35.5q-82 0 -141 -37.5t-89 -105.5q-24 -53 -24 -166q0 -57 6 -97.5t20 -69.5q30 -69 86.5 -106.5t139.5 -37.5t140 38zM200 590h182q95 0 124 -65q7 -15 10 -33.5t3 -47.5t-3 -47.5t-10 -33.5
q-29 -65 -124 -65h-60v-181h-122v473zM352 391q14 0 23 4t14 15q5 10 5 34q0 15 -1 22t-4 13q-5 10 -14 14t-23 4h-30v-106h30z" />
    <glyph glyph-name="trademark" unicode="&#x2122;" horiz-adv-x="597" 
d="M57 625h-53v81h203v-81h-53v-229h-97v229zM225 706h116l59 -171l59 171h114v-310h-90v170l-61 -170h-45l-61 170v-170h-91v310z" />
    <glyph glyph-name="Omega" unicode="&#x2126;" horiz-adv-x="612" 
d="M455 123h119v-123h-238v264q49 8 73 58q8 18 11 40t3 67q0 50 -3 72t-10 38q-28 61 -104 61t-104 -61q-7 -16 -10 -38t-3 -72q0 -45 3 -67t11 -40q10 -23 28.5 -38.5t44.5 -19.5v-264h-238v123h118v43q-75 34 -106 106q-14 29 -19 62.5t-5 94.5q0 64 5 98.5t18 62.5
q29 64 95 98t162 34q97 0 162.5 -33.5t94.5 -97.5q13 -29 18 -63.5t5 -98.5q0 -60 -5.5 -94t-18.5 -63q-34 -74 -107 -106v-43z" />
    <glyph glyph-name="estimated" unicode="&#x212e;" horiz-adv-x="833" 
d="M230 32.5q-87 43.5 -139.5 121.5t-52.5 176q0 96 51 174t138 122.5t190 44.5q102 0 188.5 -45t138 -124.5t51.5 -177.5h-608q-6 0 -8 -2.5t-2 -8.5v-197q47 -51 110 -78.5t130 -27.5q73 0 139 32.5t113 88.5h57q-56 -68 -138 -105t-171 -37q-100 0 -187 43.5zM648 347
q5 0 7 2.5t2 8.5v184q-44 51 -108 79.5t-132 28.5q-70 0 -133 -28.5t-107 -78.5v-185q0 -6 2 -8.5t8 -2.5h461z" />
    <glyph glyph-name="partialdiff" unicode="&#x2202;" horiz-adv-x="564" 
d="M529.5 499.5q7.5 -51.5 7.5 -132.5q0 -91 -8.5 -144.5t-27.5 -95.5q-31 -69 -90.5 -106t-145.5 -37q-80 0 -137 31.5t-84 90.5q-11 25 -16 55t-5 81q0 49 4.5 77t14.5 51q22 48 66.5 73t108.5 25q52 0 91.5 -18.5t62.5 -53.5q0 55 -4.5 89.5t-14.5 56.5q-22 53 -81 53
q-36 0 -56 -20q-7 -8 -11.5 -20t-7.5 -30h-158q12 87 56 133q65 64 184 64q167 0 227 -132q17 -39 24.5 -90.5zM353 189.5q2 15.5 2 43.5q0 30 -2.5 45t-7.5 28q-9 21 -28 33t-45 12q-25 0 -43.5 -11.5t-27.5 -31.5q-5 -12 -7 -27.5t-2 -46.5t2 -46.5t7 -26.5
q9 -21 27.5 -32t44.5 -11q53 0 73 45q5 11 7 26.5z" />
    <glyph glyph-name="Delta" unicode="&#x2206;" horiz-adv-x="600" 
d="M601 0h-602l177 706h249zM405 129l-104 452h-2l-104 -452h210z" />
    <glyph glyph-name="product" unicode="&#x220f;" horiz-adv-x="595" 
d="M41 706h514v-897h-164v753h-186v-753h-164v897z" />
    <glyph glyph-name="summation" unicode="&#x2211;" horiz-adv-x="479" 
d="M201 283l-178 423h442v-139h-204l117 -284l-133 -335h232v-139h-465z" />
    <glyph glyph-name="minus" unicode="&#x2212;" horiz-adv-x="505" 
d="M37 357h432v-116h-432v116z" />
    <glyph glyph-name="uni2215" unicode="&#x2215;" horiz-adv-x="505" 
d="M314 706h134l-258 -706h-132z" />
    <glyph glyph-name="uni2219" unicode="&#x2219;" horiz-adv-x="505" 
d="M208 215.5q-23 12.5 -36 35t-13 51.5q0 45 28 72t74 27q45 0 72.5 -27t27.5 -72q0 -29 -12.5 -51.5t-35 -35t-52.5 -12.5t-53 12.5z" />
    <glyph glyph-name="radical" unicode="&#x221a;" horiz-adv-x="649" 
d="M650 706l-253 -897h-171l-135 429l-81 -24v146l196 49l107 -402l173 699h164z" />
    <glyph glyph-name="infinity" unicode="&#x221e;" horiz-adv-x="719" 
d="M696 328q5 -27 5 -74t-5 -74t-16 -51q-21 -46 -61 -71t-96 -25q-57 0 -96.5 26t-67.5 75q-28 -49 -67 -75t-96 -26q-56 0 -97 25.5t-61 70.5q-11 23 -15.5 50t-4.5 75t4.5 75t15.5 50q20 46 61 71.5t97 25.5q57 0 96 -26t67 -76q28 49 67.5 75.5t96.5 26.5q56 0 96 -25.5
t61 -71.5q11 -24 16 -51zM254 185.5q18 21.5 34 68.5q-16 47 -34 68.5t-43 21.5q-32 0 -44 -28q-4 -8 -5.5 -20.5t-1.5 -41.5t1.5 -41.5t5.5 -19.5q6 -14 17.5 -21.5t26.5 -7.5q25 0 43 21.5zM557.5 212.5q1.5 12.5 1.5 41.5q0 30 -1.5 42t-6.5 20q-5 13 -16.5 20.5
t-26.5 7.5q-26 0 -43.5 -21t-34.5 -69q17 -48 34.5 -69t43.5 -21q15 0 26.5 7.5t16.5 21.5q5 7 6.5 19.5z" />
    <glyph glyph-name="integral" unicode="&#x222b;" horiz-adv-x="357" 
d="M0 -191l24 128l26 -1q43 0 44 45l36 572q5 81 44 119.5t121 38.5q30 0 62 -5l-25 -131q-10 2 -16 2q-36 0 -39 -46l-37 -572q-5 -80 -43.5 -117.5t-120.5 -37.5q-46 0 -76 5z" />
    <glyph glyph-name="approxequal" unicode="&#x2248;" horiz-adv-x="505" 
d="M290 321.5q-20 7.5 -47 22.5q-19 10 -30 14.5t-24 4.5q-17 0 -25 -11.5t-10 -35.5h-97q3 77 29.5 116t81.5 39q27 0 48 -7.5t47 -21.5q17 -10 28.5 -14.5t24.5 -4.5q17 0 24.5 11.5t9.5 34.5h99q-4 -78 -30.5 -116.5t-81.5 -38.5q-27 0 -47 7.5zM290 133.5
q-20 7.5 -47 22.5q-19 10 -30 14.5t-24 4.5q-17 0 -25 -11.5t-10 -35.5h-97q3 78 29.5 117t81.5 39q27 0 47 -7.5t48 -22.5q19 -11 29.5 -15.5t23.5 -4.5q17 0 24.5 11.5t9.5 35.5h99q-4 -78 -30.5 -116.5t-81.5 -38.5q-27 0 -47 7.5z" />
    <glyph glyph-name="notequal" unicode="&#x2260;" horiz-adv-x="505" 
d="M318 335l-44 -72h195v-116h-259l-59 -97h-77l59 97h-96v116h160l45 72h-205v116h268l59 97h77l-59 -97h87v-116h-151z" />
    <glyph glyph-name="lessequal" unicode="&#x2264;" horiz-adv-x="505" 
d="M466 419l-342 -55l342 -55v-119l-432 85v178l432 85v-119zM34 171h432v-118h-432v118z" />
    <glyph glyph-name="greaterequal" unicode="&#x2265;" horiz-adv-x="505" 
d="M469 453v-178l-432 -85v119l342 55l-342 55v119zM37 171h432v-118h-432v118z" />
    <glyph glyph-name="lozenge" unicode="&#x25ca;" horiz-adv-x="503" 
d="M13 258l153 448h171l153 -448l-153 -449h-171zM340 258l-89 298l-88 -298l88 -299z" />
    <glyph glyph-name="ff" unicode="&#xfb00;" horiz-adv-x="627" 
d="M61 382h-51v124h51v51q0 58 18.5 94t57.5 52.5t101 16.5q37 0 64 -6v-122q-18 5 -37 5q-28 0 -41 -15t-13 -44v-32h88v-124h-88v-382h-150v382zM376 382h-51v124h51v51q0 58 18.5 94t57.5 52.5t101 16.5q37 0 64 -6v-122q-18 5 -37 5q-28 0 -41 -15t-13 -44v-32h88v-124
h-88v-382h-150v382z" />
    <glyph glyph-name="fi" unicode="&#xfb01;" horiz-adv-x="528" 
d="M61 382h-51v124h51v51q0 58 18.5 94t57.5 52.5t101 16.5q37 0 64 -6v-122q-18 5 -37 5q-28 0 -41 -15t-13 -44v-32h88v-124h-88v-382h-150v382zM362.5 577q-22.5 21 -22.5 55t22.5 55t57.5 21t57 -21t22 -55t-22 -55t-57 -21t-57.5 21zM344 506h150v-506h-150v506z" />
    <glyph glyph-name="fl" unicode="&#xfb02;" horiz-adv-x="528" 
d="M61 382h-51v124h51v51q0 58 18.5 94t57.5 52.5t101 16.5q37 0 64 -6v-122q-18 5 -37 5q-28 0 -41 -15t-13 -44v-32h88v-124h-88v-382h-150v382zM344 706h150v-706h-150v706z" />
    <glyph glyph-name="ffi" unicode="&#xfb03;" horiz-adv-x="843" 
d="M61 382h-51v124h51v51q0 58 18.5 94t57.5 52.5t101 16.5q37 0 64 -6v-122q-18 5 -37 5q-28 0 -41 -15t-13 -44v-32h88v-124h-88v-382h-150v382zM376 382h-51v124h51v51q0 58 18.5 94t57.5 52.5t101 16.5q37 0 64 -6v-122q-18 5 -37 5q-28 0 -41 -15t-13 -44v-32h88v-124
h-88v-382h-150v382zM678.5 577q-22.5 21 -22.5 55t22.5 55t57.5 21t57 -21t22 -55t-22 -55t-57 -21t-57.5 21zM660 506h150v-506h-150v506z" />
    <glyph glyph-name="ffl" unicode="&#xfb04;" horiz-adv-x="843" 
d="M61 382h-51v124h51v51q0 58 18.5 94t57.5 52.5t101 16.5q37 0 64 -6v-122q-18 5 -37 5q-28 0 -41 -15t-13 -44v-32h88v-124h-88v-382h-150v382zM376 382h-51v124h51v51q0 58 18.5 94t57.5 52.5t101 16.5q37 0 64 -6v-122q-18 5 -37 5q-28 0 -41 -15t-13 -44v-32h88v-124
h-88v-382h-150v382zM660 706h150v-706h-150v706z" />
    <glyph glyph-name="uniFEFF" unicode="&#xfeff;" 
 />
    <glyph glyph-name="uni00A40301" horiz-adv-x="295" 
d="M6 0v149q9 -2 28 -2q25 0 39 7t20.5 23.5t6.5 45.5v483h163v-515q0 -99 -46.5 -146.5t-149.5 -47.5q-29 0 -61 3zM183 881h149l-99 -132h-135z" />
    <glyph glyph-name="M.ss01" horiz-adv-x="714" 
d="M41 706h196l122 -246l119 246h196v-706h-155v494l-124 -251h-75l-125 251v-494h-154v706z" />
    <glyph glyph-name="Q.ss02" horiz-adv-x="628" 
d="M465 20l60 -116l-141 -63l-66 143h-4q-87 0 -149.5 35t-95.5 102q-23 40 -33 94t-10 138q0 78 7.5 127t25.5 89q33 74 97.5 113.5t157.5 39.5t157.5 -39.5t97.5 -113.5q18 -40 25.5 -89t7.5 -127t-7.5 -127t-25.5 -89q-35 -78 -104 -117zM252 148.5q24 -16.5 62 -16.5
t62 16.5t38 47.5q10 23 14 55.5t4 101.5q0 70 -3.5 102.5t-13.5 54.5q-14 31 -38.5 47.5t-62.5 16.5t-62.5 -16.5t-38.5 -47.5q-10 -22 -13 -53.5t-3 -103.5q0 -70 3.5 -102.5t13.5 -54.5q14 -31 38 -47.5z" />
    <glyph glyph-name="R.ss03" horiz-adv-x="541" 
d="M480 309q14 -31 14 -75v-234h-162v216q0 40 -17 57t-59 17h-53v-290h-162v706h261q74 0 119.5 -20.5t66.5 -67.5q9 -20 13 -45t4 -64q0 -35 -3.5 -53.5t-11.5 -38.5q-17 -39 -58 -60q34 -17 48 -48zM305 419.5q18 8.5 26 25.5q4 9 5.5 21t1.5 35q0 19 -1.5 28.5
t-5.5 18.5q-8 18 -26 26t-47 8h-55v-171h55q29 0 47 8.5z" />
    <glyph glyph-name="Racute.ss03" horiz-adv-x="541" 
d="M480 309q14 -31 14 -75v-234h-162v216q0 40 -17 57t-59 17h-53v-290h-162v706h261q74 0 119.5 -20.5t66.5 -67.5q9 -20 13 -45t4 -64q0 -35 -3.5 -53.5t-11.5 -38.5q-17 -39 -58 -60q34 -17 48 -48zM305 419.5q18 8.5 26 25.5q4 9 5.5 21t1.5 35q0 19 -1.5 28.5
t-5.5 18.5q-8 18 -26 26t-47 8h-55v-171h55q29 0 47 8.5zM274 881h149l-99 -132h-135z" />
    <glyph glyph-name="Rcaron.ss03" horiz-adv-x="541" 
d="M480 309q14 -31 14 -75v-234h-162v216q0 40 -17 57t-59 17h-53v-290h-162v706h261q74 0 119.5 -20.5t66.5 -67.5q9 -20 13 -45t4 -64q0 -35 -3.5 -53.5t-11.5 -38.5q-17 -39 -58 -60q34 -17 48 -48zM305 419.5q18 8.5 26 25.5q4 9 5.5 21t1.5 35q0 19 -1.5 28.5
t-5.5 18.5q-8 18 -26 26t-47 8h-55v-171h55q29 0 47 8.5zM355 749h-167l-90 132h129l45 -66l45 66h128z" />
    <glyph glyph-name="uni0156.ss03" horiz-adv-x="541" 
d="M480 309q14 -31 14 -75v-234h-162v216q0 40 -17 57t-59 17h-53v-290h-162v706h261q74 0 119.5 -20.5t66.5 -67.5q9 -20 13 -45t4 -64q0 -35 -3.5 -53.5t-11.5 -38.5q-17 -39 -58 -60q34 -17 48 -48zM305 419.5q18 8.5 26 25.5q4 9 5.5 21t1.5 35q0 19 -1.5 28.5
t-5.5 18.5q-8 18 -26 26t-47 8h-55v-171h55q29 0 47 8.5zM194 -49h152l-43 -141h-143z" />
    <glyph glyph-name="Oslash.ss04" horiz-adv-x="628" 
d="M569 569q18 -40 25.5 -89t7.5 -127t-7.5 -127t-25.5 -89q-33 -74 -97.5 -113.5t-157.5 -39.5q-72 0 -130 25l-68 -94l-109 79l76 102q-10 16 -14 25q-23 40 -33 94t-10 138q0 78 7.5 127t25.5 89q33 74 97.5 113.5t157.5 39.5q76 0 133 -27l67 94l111 -77l-77 -103
q13 -21 21 -40zM428 251.5q4 32.5 4 101.5q0 70 -3.5 102.5t-13.5 54.5q-14 31 -38.5 47.5t-62.5 16.5t-62.5 -16.5t-38.5 -47.5q-10 -22 -13 -53.5t-3 -103.5q0 -70 3.5 -102.5t13.5 -54.5q14 -31 38 -47.5t62 -16.5t62 16.5t38 47.5q10 23 14 55.5z" />
    <glyph glyph-name="i.loclTRK" horiz-adv-x="216" 
d="M33 506h150v-506h-150v506zM51.5 577q-22.5 21 -22.5 55t22.5 55t57.5 21t57 -21t22 -55t-22 -55t-57 -21t-57.5 21z" />
    <glyph glyph-name="uni006A0301" horiz-adv-x="225" 
d="M-27 -190v130q11 -1 27 -1q22 0 32 10.5t10 34.5v522h149v-543q0 -82 -37.5 -119t-119.5 -37q-32 0 -61 3zM100 705h142l-83 -149h-122z" />
    <glyph glyph-name="oslash.ss04" horiz-adv-x="491" 
d="M467.5 339.5q5.5 -32.5 5.5 -86.5t-5.5 -86.5t-17.5 -60.5q-25 -56 -77 -87t-127 -31q-40 0 -73 9l-43 -73l-108 57l49 78q-17 20 -30 47q-12 28 -17.5 60.5t-5.5 86.5t5.5 86.5t17.5 60.5q25 56 77 87t128 31q40 0 73 -9l42 73l109 -57l-50 -78q17 -20 30 -47
q12 -28 17.5 -60.5zM311.5 184.5q2.5 22.5 2.5 68.5t-2.5 68.5t-7.5 35.5q-16 35 -58 35q-22 0 -36 -9t-22 -26q-6 -13 -8.5 -35.5t-2.5 -68.5t2.5 -68.5t8.5 -35.5q8 -17 21.5 -25.5t36.5 -8.5q43 0 58 34q5 13 7.5 35.5z" />
    <glyph glyph-name="r.ss05" horiz-adv-x="335" 
d="M327 506v-134q-20 4 -37 4q-52 0 -79.5 -35t-27.5 -101v-240h-150v506h148v-59q17 31 43.5 48t62.5 17q22 0 40 -6z" />
    <glyph glyph-name="racute.ss05" horiz-adv-x="357" 
d="M327 506v-134q-20 4 -37 4q-52 0 -79.5 -35t-27.5 -101v-240h-150v506h148v-59q17 31 43.5 48t62.5 17q22 0 40 -6zM164 705h142l-83 -149h-122z" />
    <glyph glyph-name="rcaron.ss05" horiz-adv-x="357" 
d="M327 506v-134q-20 4 -37 4q-52 0 -79.5 -35t-27.5 -101v-240h-150v506h148v-59q17 31 43.5 48t62.5 17q22 0 40 -6zM143 706l33 -81l32 81h102l-64 -151h-139l-66 151h102z" />
    <glyph glyph-name="uni0157.ss05" horiz-adv-x="357" 
d="M327 506v-134q-20 4 -37 4q-52 0 -79.5 -35t-27.5 -101v-240h-150v506h148v-59q17 31 43.5 48t62.5 17q22 0 40 -6zM32 -49h152l-43 -141h-143z" />
    <glyph glyph-name="f_i" horiz-adv-x="528" 
d="M61 382h-51v124h51v51q0 58 18.5 94t57.5 52.5t101 16.5q37 0 64 -6v-122q-18 5 -37 5q-28 0 -41 -15t-13 -44v-32h88v-124h-88v-382h-150v382zM362.5 577q-22.5 21 -22.5 55t22.5 55t57.5 21t57 -21t22 -55t-22 -55t-57 -21t-57.5 21zM344 506h150v-506h-150v506z" />
    <glyph glyph-name="f_l" horiz-adv-x="528" 
d="M61 382h-51v124h51v51q0 58 18.5 94t57.5 52.5t101 16.5q37 0 64 -6v-122q-18 5 -37 5q-28 0 -41 -15t-13 -44v-32h88v-124h-88v-382h-150v382zM344 706h150v-706h-150v706z" />
    <glyph glyph-name="zero.tf" horiz-adv-x="544" 
d="M52 116q-18 41 -26 94t-8 143t8 143t26 94q57 132 220 132t220 -132q18 -41 26 -94t8 -143t-8 -143t-26 -94q-57 -132 -220 -132t-220 132zM318 138q18 11 27 31q8 19 10 54t2 130q0 94 -2 129.5t-10 54.5q-9 20 -27 31t-46 11q-54 0 -72 -42q-9 -19 -11 -54t-2 -130
t2 -130t11 -54q18 -42 72 -42q28 0 46 11z" />
    <glyph glyph-name="one.tf" horiz-adv-x="544" 
d="M218 558h-113l30 148h242v-706h-159v558z" />
    <glyph glyph-name="two.tf" horiz-adv-x="544" 
d="M18 3l244 351q27 38 40.5 61t20 43.5t6.5 44.5q0 18 -1.5 27.5t-5.5 16.5q-7 17 -23 26.5t-39 9.5q-48 0 -65 -38q-6 -12 -8.5 -30t-2.5 -50h-154q0 49 6 82.5t18 62.5q25 56 78.5 84t130.5 28q78 0 132.5 -29t79.5 -86q19 -41 19 -102q0 -50 -14.5 -91.5t-48.5 -87.5
q-51 -72 -143 -184h211v-142h-481v3z" />
    <glyph glyph-name="three.tf" horiz-adv-x="544" 
d="M504.5 257.5q3.5 -20.5 3.5 -54.5q0 -39 -4 -62.5t-14 -45.5q-51 -111 -221 -111q-82 0 -137.5 26.5t-78.5 80.5q-13 29 -18.5 66t-5.5 94h150q0 -35 3 -56t9 -36q8 -19 26.5 -29.5t45.5 -10.5q55 0 72 40q4 9 6 22.5t2 39.5q0 21 -1.5 31.5t-6.5 20.5q-11 22 -34.5 31.5
t-59.5 9.5h-19v112h18q36 0 57.5 9.5t31.5 29.5q4 10 5.5 19t1.5 27t-1.5 29.5t-5.5 21.5q-17 35 -66 35q-52 0 -68 -38q-6 -14 -8 -58h-150q0 39 4 65.5t14 48.5q25 55 82.5 81t133.5 26q81 0 133 -28.5t75 -77.5q9 -20 12 -40.5t3 -53.5q0 -28 -2.5 -44t-9.5 -31
q-12 -26 -33 -44.5t-54 -29.5q73 -21 98 -77q8 -18 11.5 -38.5z" />
    <glyph glyph-name="four.tf" horiz-adv-x="544" 
d="M537 143h-70v-143h-157v143h-308v2l188 561h277v-427h70v-136zM310 279v369h-1l-115 -369h116z" />
    <glyph glyph-name="five.tf" horiz-adv-x="544" 
d="M136.5 12q-54.5 28 -79.5 85q-13 27 -18.5 62.5t-5.5 86.5h154q0 -34 2.5 -54t8.5 -34q9 -20 26 -30t43 -10q51 0 70 42q5 10 7 24t2 43t-2.5 45.5t-7.5 29.5q-16 33 -55.5 47.5t-99.5 14.5q-54 0 -119 -9l52 351h378l-28 -141h-220l-16 -105q38 8 74 8q68 0 116 -27
t71 -78q12 -25 17 -55t5 -78q0 -47 -5 -77.5t-16 -54.5q-26 -57 -80 -85.5t-134 -28.5q-85 0 -139.5 28z" />
    <glyph glyph-name="six.tf" horiz-adv-x="544" 
d="M519.5 317q4.5 -29 4.5 -77q0 -49 -5 -78.5t-16 -55.5q-27 -59 -83.5 -90.5t-136.5 -31.5q-166 0 -226 136q-18 38 -25.5 89.5t-7.5 137.5q0 87 8 142t27 97q63 136 228 136q111 0 172 -61q25 -25 39 -60.5t19 -85.5h-153q-3 24 -7.5 38t-12.5 22q-11 11 -25 16t-32 5
q-60 0 -84 -56q-10 -23 -14.5 -56t-4.5 -91q23 35 62 54t90 19q62 0 105 -25t64 -73q10 -22 14.5 -51zM358.5 186.5q2.5 15.5 2.5 45.5q0 31 -2 46.5t-8 28.5q-19 42 -68 42q-52 0 -73 -46q-5 -12 -7.5 -27t-2.5 -45q0 -28 2.5 -43t7.5 -28q9 -21 27 -32t44 -11t44 11t26 31
q5 12 7.5 27.5z" />
    <glyph glyph-name="seven.tf" horiz-adv-x="544" 
d="M306 558h-262v148h487l-256 -706h-177z" />
    <glyph glyph-name="eight.tf" horiz-adv-x="544" 
d="M517 263q4 -23 4 -60q0 -39 -3.5 -62t-12.5 -43q-25 -55 -85 -84.5t-148 -29.5q-89 0 -149 29.5t-84 84.5q-9 20 -13 43t-4 62q0 37 3.5 59.5t12.5 40.5q27 64 103 82q-32 9 -56 28.5t-37 46.5q-7 15 -10 33.5t-3 45.5q0 26 3.5 44.5t10.5 34.5q22 50 80.5 77t142.5 27
q83 0 141.5 -27t81.5 -77q7 -16 10 -34.5t3 -44.5q0 -27 -3 -45.5t-10 -33.5q-12 -27 -36 -46.5t-56 -27.5q74 -20 101 -81q9 -19 13 -42zM196.5 553.5q-1.5 -10.5 -1.5 -30.5t1.5 -30t5.5 -19q18 -40 70 -40q25 0 43 10t27 30q4 9 5.5 19t1.5 30t-1.5 30.5t-6.5 19.5
q-18 38 -69 38q-52 0 -70 -38q-4 -9 -5.5 -19.5zM354.5 173.5q1.5 11.5 1.5 38.5q0 25 -2 37.5t-7 23.5q-9 21 -28.5 32.5t-46.5 11.5q-28 0 -47.5 -11.5t-28.5 -32.5q-5 -10 -6.5 -22t-1.5 -38q0 -27 1.5 -39.5t5.5 -22.5q21 -42 77 -42q28 0 47 11t29 32q5 10 6.5 21.5z
" />
    <glyph glyph-name="nine.tf" horiz-adv-x="544" 
d="M512.5 496.5q7.5 -51.5 7.5 -137.5q0 -87 -8 -142t-27 -97q-63 -136 -228 -136q-111 0 -172 61q-24 24 -38 60t-19 86h152q3 -24 7.5 -38t12.5 -22q21 -21 57 -21q60 0 84 56q10 23 14.5 56t4.5 91q-23 -35 -61.5 -54t-90.5 -19q-61 0 -104 25t-65 73q-10 22 -14.5 51
t-4.5 77q0 49 5 78.5t16 55.5q27 59 83.5 90.5t136.5 31.5q166 0 226 -136q18 -38 25.5 -89.5zM341.5 430q2.5 15 2.5 45q0 28 -2.5 43t-7.5 28q-9 21 -27 32t-44 11t-44 -11t-26 -31q-5 -12 -7.5 -27.5t-2.5 -45.5q0 -31 2 -46.5t8 -28.5q19 -42 69 -42q26 0 44.5 12
t27.5 34q5 12 7.5 27z" />
    <glyph glyph-name="zero.dnom" horiz-adv-x="364" 
d="M94.5 10q-35.5 19 -53.5 59q-10 24 -14.5 51.5t-4.5 73.5t4.5 73.5t14.5 51.5q18 40 53.5 59t87.5 19t87.5 -19t53.5 -59q10 -24 14.5 -51.5t4.5 -73.5t-4.5 -73.5t-14.5 -51.5q-18 -40 -53.5 -59t-87.5 -19t-87.5 19zM203 95.5q8 4.5 13 13.5q4 8 5 23t1 62t-1 62t-5 23
q-5 9 -13 13.5t-21 4.5t-21 -4.5t-13 -13.5q-4 -8 -5 -23t-1 -62t1 -62t5 -23q5 -9 13 -13.5t21 -4.5t21 4.5z" />
    <glyph glyph-name="one.dnom" horiz-adv-x="223" 
d="M66 284h-61l18 104h162v-388h-119v284z" />
    <glyph glyph-name="two.dnom" horiz-adv-x="322" 
d="M1 5l155 193q22 28 30 42t8 30t-3 20q-5 8 -12 12t-19 4q-26 0 -34 -18q-3 -6 -4 -12t-1 -15h-111q0 23 3 38t10 30q30 69 137 69q50 0 85.5 -16.5t50.5 -49.5q10 -23 10 -55q0 -29 -7.5 -50.5t-26.5 -43.5q-28 -35 -74 -81h110v-102h-307v5z" />
    <glyph glyph-name="three.dnom" horiz-adv-x="328" 
d="M307 142.5q2 -11.5 2 -30.5q0 -21 -2 -33t-7 -22q-15 -33 -51.5 -50t-90.5 -17q-103 0 -133 65q-7 15 -10 35t-3 52l102 -1q0 -14 1 -25t5 -17q8 -18 35 -18q26 0 34 16q4 8 4 26q0 8 -1 14t-3 10q-4 9 -14.5 12.5t-30.5 3.5h-11v74h11q34 0 42 17q3 8 3 20q0 13 -3 19
q-6 14 -29 14q-25 0 -33 -17q-2 -5 -3 -11t-1 -17h-103q0 22 2.5 37t7.5 28q17 36 52.5 53.5t84.5 17.5q47 0 81.5 -16.5t48.5 -47.5q8 -19 8 -50q0 -13 -1.5 -22t-5.5 -17q-12 -27 -48 -41q41 -11 54 -40q4 -10 6 -21.5z" />
    <glyph glyph-name="four.dnom" horiz-adv-x="368" 
d="M199 69h-209v2l121 317h197v-222h51v-97h-51v-69h-109v69zM199 166v184l-61 -184h61z" />
    <glyph glyph-name="five.dnom" horiz-adv-x="338" 
d="M80.5 8q-36.5 17 -53.5 54q-13 31 -13 76l109 -1q0 -12 1 -20.5t4 -15.5q9 -20 38 -20q25 0 34 18q2 4 3 11t1 17q0 12 -1.5 18.5t-4.5 12.5q-11 16 -33 22.5t-65 6.5q-38 0 -71 -5l33 206h241l-13 -87h-134l-7 -48q17 5 49 5q42 0 71 -15.5t42 -43.5q6 -14 8.5 -29
t2.5 -39q0 -25 -2.5 -40t-8.5 -28q-16 -36 -53 -54t-90 -18q-51 0 -87.5 17z" />
    <glyph glyph-name="six.dnom" horiz-adv-x="362" 
d="M342 168.5q2 -12.5 2 -35.5q0 -25 -3 -39t-9 -28q-16 -37 -54 -56t-92 -19q-112 0 -149 82q-9 21 -13 46.5t-4 73.5t4 74t14 49q37 81 150 81q37 0 63.5 -9t46.5 -28q15 -15 23 -35t12 -48h-106q-1 9 -3 15t-6 10q-5 5 -12 7.5t-17 2.5q-32 0 -44 -28q-4 -9 -6 -22.5
t-2 -39.5q28 30 85 30q40 0 70 -14.5t42 -43.5q6 -13 8 -25.5zM219.5 106q0.5 7 0.5 18q0 12 -1 19t-3 12q-8 17 -32 17q-11 0 -19.5 -4.5t-12.5 -12.5q-2 -5 -3.5 -12t-1.5 -19q0 -10 1 -16.5t3 -11.5q9 -18 33 -18q13 0 21 4t12 13q2 4 2.5 11z" />
    <glyph glyph-name="seven.dnom" horiz-adv-x="318" 
d="M149 286h-132v102h302l-154 -388h-128z" />
    <glyph glyph-name="eight.dnom" horiz-adv-x="347" 
d="M326.5 146q1.5 -11 1.5 -31t-2 -33t-7 -24q-15 -34 -53 -50.5t-92 -16.5q-55 0 -93 16.5t-53 50.5q-5 10 -7 23t-2 34q0 20 1.5 31t6.5 21q15 33 57 44q-19 6 -32.5 17.5t-20.5 25.5q-7 15 -7 42q0 12 2 21t6 18q13 29 51 45.5t91 16.5t90.5 -16.5t50.5 -45.5
q4 -10 6 -18.5t2 -20.5q0 -24 -8 -42q-7 -14 -20.5 -25.5t-32.5 -17.5q43 -11 58 -44q5 -10 6.5 -21zM137 286q0 -8 1 -13.5t3 -8.5q7 -17 33 -17q25 0 33 17q2 3 2 8.5v13.5q0 15 -3 22q-6 15 -32 15q-27 0 -34 -16q-3 -6 -3 -21zM212 103q1 6 1 16q0 11 -1 17t-3 10
q-4 9 -13 14t-22 5q-28 0 -36 -19q-2 -4 -3 -10t-1 -17q0 -10 1 -16t3 -10q8 -19 36 -19q27 0 35 19q2 4 3 10z" />
    <glyph glyph-name="nine.dnom" horiz-adv-x="365" 
d="M341.5 268.5q3.5 -25.5 3.5 -73.5t-4 -74t-14 -49q-18 -41 -55.5 -61t-93.5 -20q-37 0 -64 9t-47 28q-14 15 -22 35t-13 48h107q1 -9 3 -15t6 -10q9 -10 29 -10q31 0 44 28q4 8 5.5 21.5t1.5 39.5q-27 -29 -85 -29q-39 0 -69 14.5t-43 43.5q-5 12 -7 24.5t-2 36.5
q0 25 2.5 39.5t8.5 27.5q17 37 55 56t92 19q112 0 149 -82q9 -21 12.5 -46.5zM217 245.5q1 7.5 1 18.5q0 10 -1 16.5t-3 11.5q-8 18 -33 18t-32 -17q-2 -5 -3 -11.5t-1 -17.5q0 -13 1 -19.5t3 -11.5q9 -17 32 -17q24 0 33 17q2 5 3 12.5z" />
    <glyph glyph-name="zero.numr" horiz-adv-x="364" 
d="M94.5 328q-35.5 19 -53.5 59q-10 24 -14.5 51.5t-4.5 73.5t4.5 73.5t14.5 51.5q18 40 53.5 59t87.5 19t87.5 -19t53.5 -59q10 -24 14.5 -51.5t4.5 -73.5t-4.5 -73.5t-14.5 -51.5q-18 -40 -53.5 -59t-87.5 -19t-87.5 19zM203 413.5q8 4.5 13 13.5q4 8 5 23t1 62t-1 62
t-5 23q-5 9 -13 13.5t-21 4.5t-21 -4.5t-13 -13.5q-4 -8 -5 -23t-1 -62t1 -62t5 -23q5 -9 13 -13.5t21 -4.5t21 4.5z" />
    <glyph glyph-name="one.numr" horiz-adv-x="223" 
d="M66 602h-61l18 104h162v-388h-119v284z" />
    <glyph glyph-name="two.numr" horiz-adv-x="322" 
d="M1 323l155 193q22 28 30 42t8 30t-3 20q-5 8 -12 12t-19 4q-26 0 -34 -18q-3 -6 -4 -12t-1 -15h-111q0 23 3 38t10 30q30 69 137 69q50 0 85.5 -16.5t50.5 -49.5q10 -23 10 -55q0 -29 -7.5 -50.5t-26.5 -43.5q-28 -35 -74 -81h110v-102h-307v5z" />
    <glyph glyph-name="three.numr" horiz-adv-x="328" 
d="M307 460.5q2 -11.5 2 -30.5q0 -21 -2 -33t-7 -22q-15 -33 -51.5 -50t-90.5 -17q-103 0 -133 65q-7 15 -10 35t-3 52l102 -1q0 -14 1 -25t5 -17q8 -18 35 -18q26 0 34 16q4 8 4 26q0 8 -1 14t-3 10q-4 9 -14.5 12.5t-30.5 3.5h-11v74h11q34 0 42 17q3 8 3 20q0 13 -3 19
q-6 14 -29 14q-25 0 -33 -17q-2 -5 -3 -11t-1 -17h-103q0 22 2.5 37t7.5 28q17 36 52.5 53.5t84.5 17.5q47 0 81.5 -16.5t48.5 -47.5q8 -19 8 -50q0 -13 -1.5 -22t-5.5 -17q-12 -27 -48 -41q41 -11 54 -40q4 -10 6 -21.5z" />
    <glyph glyph-name="four.numr" horiz-adv-x="368" 
d="M199 387h-209v2l121 317h197v-222h51v-97h-51v-69h-109v69zM199 484v184l-61 -184h61z" />
    <glyph glyph-name="five.numr" horiz-adv-x="338" 
d="M80.5 326q-36.5 17 -53.5 54q-13 31 -13 76l109 -1q0 -12 1 -20.5t4 -15.5q9 -20 38 -20q25 0 34 18q2 4 3 11t1 17q0 12 -1.5 18.5t-4.5 12.5q-11 16 -33 22.5t-65 6.5q-38 0 -71 -5l33 206h241l-13 -87h-134l-7 -48q17 5 49 5q42 0 71 -15.5t42 -43.5q6 -14 8.5 -29
t2.5 -39q0 -25 -2.5 -40t-8.5 -28q-16 -36 -53 -54t-90 -18q-51 0 -87.5 17z" />
    <glyph glyph-name="six.numr" horiz-adv-x="365" 
d="M342 486.5q2 -12.5 2 -35.5q0 -25 -3 -39t-9 -28q-16 -37 -54 -56t-92 -19q-112 0 -149 82q-9 21 -13 46.5t-4 73.5t4 74t14 49q37 81 150 81q37 0 63.5 -9t46.5 -28q15 -15 23 -35t12 -48h-106q-1 9 -3 15t-6 10q-5 5 -12 7.5t-17 2.5q-32 0 -44 -28q-4 -9 -6 -22.5
t-2 -39.5q28 30 85 30q40 0 70 -14.5t42 -43.5q6 -13 8 -25.5zM219.5 424q0.5 7 0.5 18q0 12 -1 19t-3 12q-8 17 -32 17q-11 0 -19.5 -4.5t-12.5 -12.5q-2 -5 -3.5 -12t-1.5 -19q0 -10 1 -16.5t3 -11.5q9 -18 33 -18q13 0 21 4t12 13q2 4 2.5 11z" />
    <glyph glyph-name="seven.numr" horiz-adv-x="318" 
d="M149 604h-132v102h302l-154 -388h-128z" />
    <glyph glyph-name="eight.numr" horiz-adv-x="347" 
d="M326.5 464q1.5 -11 1.5 -31t-2 -33t-7 -24q-15 -34 -53 -50.5t-92 -16.5q-55 0 -93 16.5t-53 50.5q-5 10 -7 23t-2 34q0 20 1.5 31t6.5 21q15 33 57 44q-19 6 -32.5 17.5t-20.5 25.5q-7 15 -7 42q0 12 2 21t6 18q13 29 51 45.5t91 16.5t90.5 -16.5t50.5 -45.5
q4 -10 6 -18.5t2 -20.5q0 -24 -8 -42q-7 -14 -20.5 -25.5t-32.5 -17.5q43 -11 58 -44q5 -10 6.5 -21zM137 604q0 -8 1 -13.5t3 -8.5q7 -17 33 -17q25 0 33 17q2 3 2 8.5v13.5q0 15 -3 22q-6 15 -32 15q-27 0 -34 -16q-3 -6 -3 -21zM212 421q1 6 1 16q0 11 -1 17t-3 10
q-4 9 -13 14t-22 5q-28 0 -36 -19q-2 -4 -3 -10t-1 -17q0 -10 1 -16t3 -10q8 -19 36 -19q27 0 35 19q2 4 3 10z" />
    <glyph glyph-name="nine.numr" horiz-adv-x="365" 
d="M341.5 586.5q3.5 -25.5 3.5 -73.5t-4 -74t-14 -49q-18 -41 -55.5 -61t-93.5 -20q-37 0 -64 9t-47 28q-14 15 -22 35t-13 48h107q1 -9 3 -15t6 -10q9 -10 29 -10q31 0 44 28q4 8 5.5 21.5t1.5 39.5q-27 -29 -85 -29q-39 0 -69 14.5t-43 43.5q-5 12 -7 24.5t-2 36.5
q0 25 2.5 39.5t8.5 27.5q17 37 55 56t92 19q112 0 149 -82q9 -21 12.5 -46.5zM217 563.5q1 7.5 1 18.5q0 10 -1 16.5t-3 11.5q-8 18 -33 18t-32 -17q-2 -5 -3 -11.5t-1 -17.5q0 -13 1 -19.5t3 -11.5q9 -17 32 -17q24 0 33 17q2 5 3 12.5z" />
    <glyph glyph-name="colon.case" horiz-adv-x="302" 
d="M88 119.5q-25 23.5 -25 62.5t24.5 62.5t64.5 23.5q39 0 63 -23.5t24 -62.5t-24 -62.5t-63 -23.5t-64 23.5zM88 460.5q-25 23.5 -25 62.5t24.5 62.5t64.5 23.5q39 0 63 -23.5t24 -62.5t-24 -62.5t-63 -23.5t-64 23.5z" />
    <glyph glyph-name="semicolon.case" horiz-adv-x="303" 
d="M80 272h140l-90 -331h-108zM89 460.5q-25 23.5 -25 62.5t24.5 62.5t64.5 23.5q39 0 63 -23.5t24 -62.5t-24 -62.5t-63 -23.5t-64 23.5z" />
    <glyph glyph-name="exclamdown.case" horiz-adv-x="296" 
d="M211 694.5q25 -23.5 25 -62.5t-24.5 -62.5t-64.5 -23.5q-39 0 -63 23.5t-24 62.5t24 62.5t63 23.5t64 -23.5zM230 -4h-164l22 487h120z" />
    <glyph glyph-name="questiondown.case" horiz-adv-x="478" 
d="M313.5 699.5q24.5 -23.5 24.5 -62.5t-24.5 -62.5t-63.5 -23.5t-63 23.5t-24 62.5t24 62.5t63 23.5t63.5 -23.5zM235.5 301q-26.5 -54 -36.5 -84t-10 -55q0 -28 12.5 -42t42.5 -14q20 0 32.5 6.5t19.5 21.5q4 8 4.5 21.5t0.5 34.5h148q0 -38 -3.5 -61t-12.5 -44
q-22 -49 -72.5 -74.5t-124.5 -25.5q-64 0 -110.5 20t-71.5 58.5t-25 92.5q0 29 10 61t34.5 84.5t91.5 186.5h165q-68 -133 -94.5 -187z" />
    <glyph glyph-name="periodcentered.case" horiz-adv-x="302" 
d="M88 307.5q-25 23.5 -25 62.5t24.5 62.5t64.5 23.5q39 0 63 -23.5t24 -62.5t-24 -62.5t-63 -23.5t-64 23.5z" />
    <glyph glyph-name="periodcentered.loclCAT.case" horiz-adv-x="87" 
d="M-75 341.5q-25 23.5 -25 62.5t24.5 62.5t64.5 23.5q39 0 63 -23.5t24 -62.5t-24 -62.5t-63 -23.5t-64 23.5z" />
    <glyph glyph-name="slash.case" horiz-adv-x="456" 
d="M297 756h146l-273 -806h-146z" />
    <glyph glyph-name="periodcentered.loclCAT" horiz-adv-x="189" 
d="M32 307.5q-25 23.5 -25 62.5t24.5 62.5t64.5 23.5q39 0 63 -23.5t24 -62.5t-24 -62.5t-63 -23.5t-64 23.5z" />
    <glyph glyph-name="parenleft.case" horiz-adv-x="319" 
d="M85 97.5q-30 113.5 -30 255.5q0 143 30 256.5t91 231.5h130q-59 -116 -89.5 -234t-30.5 -254t30.5 -254t89.5 -233h-130q-61 118 -91 231.5z" />
    <glyph glyph-name="parenright.case" horiz-adv-x="319" 
d="M13 -134q59 115 89.5 233t30.5 254t-30.5 254t-89.5 234h130q61 -118 91 -231.5t30 -256.5q0 -142 -30 -255.5t-91 -231.5h-130z" />
    <glyph glyph-name="braceleft.case" horiz-adv-x="346" 
d="M225.5 388q-19.5 -28 -62.5 -35q43 -7 62.5 -35t19.5 -83v-177q0 -30 6.5 -48t24 -26.5t49.5 -8.5h7v-108h-53q-77 0 -115.5 43t-38.5 120v180q0 30 -7.5 47t-25 24.5t-49.5 7.5v128q31 0 49 7.5t25.5 24.5t7.5 48v179q0 77 38.5 120.5t115.5 43.5h53v-109h-7
q-32 0 -49.5 -8.5t-24 -26t-6.5 -47.5v-177q0 -56 -19.5 -84z" />
    <glyph glyph-name="braceright.case" horiz-adv-x="346" 
d="M229.5 449q7.5 -17 25 -24.5t48.5 -7.5v-128q-31 0 -48.5 -7.5t-25 -24.5t-7.5 -47v-180q0 -77 -38.5 -120t-115.5 -43h-53v108h6q32 0 49.5 8.5t24 26.5t6.5 48v177q0 55 19.5 83t62.5 35q-43 7 -62.5 35t-19.5 84v177q0 30 -6.5 47.5t-24 26t-49.5 8.5h-6v109h53
q77 0 115.5 -43.5t38.5 -120.5v-179q0 -31 7.5 -48z" />
    <glyph glyph-name="bracketleft.case" horiz-adv-x="297" 
d="M69 841h214v-116h-85v-743h85v-116h-214v975z" />
    <glyph glyph-name="bracketright.case" horiz-adv-x="297" 
d="M15 -134v116h85v743h-85v116h213v-975h-213z" />
    <glyph glyph-name="hyphen.case" horiz-adv-x="339" 
d="M37 434h265v-128h-265v128z" />
    <glyph glyph-name="uni00AD.case" horiz-adv-x="339" 
d="M37 434h265v-128h-265v128z" />
    <glyph glyph-name="endash.case" horiz-adv-x="408" 
d="M37 435h335v-127h-335v127z" />
    <glyph glyph-name="emdash.case" horiz-adv-x="813" 
d="M37 435h740v-127h-740v127z" />
    <glyph glyph-name="guillemotleft.case" horiz-adv-x="503" 
d="M10 365l123 164h147l-123 -164l123 -164h-147zM222 365l123 164h147l-123 -164l123 -164h-147z" />
    <glyph glyph-name="guillemotright.case" horiz-adv-x="503" 
d="M10 200l124 164l-124 164h148l123 -164l-123 -164h-148zM222 200l124 164l-124 164h148l123 -164l-123 -164h-148z" />
    <glyph glyph-name="guilsinglleft.case" horiz-adv-x="291" 
d="M10 365l123 164h147l-123 -164l123 -164h-147z" />
    <glyph glyph-name="guilsinglright.case" horiz-adv-x="291" 
d="M10 200l124 164l-124 164h148l123 -164l-123 -164h-148z" />
    <glyph glyph-name="cent.ss06" horiz-adv-x="478" 
d="M293.5 252q4.5 15 4.5 43h161q-1 -55 -15 -91t-43 -63q-41 -36 -104 -48v-93h-108v93q-52 9 -89.5 37.5t-57.5 73.5q-13 27 -18.5 60.5t-5.5 88.5t5.5 88.5t18.5 60.5q20 45 57.5 73.5t89.5 37.5v93h108v-93q64 -11 104 -48q28 -25 42.5 -61t16.5 -87h-161q-1 26 -6 40
t-14 22q-15 13 -36 13q-18 0 -31.5 -8.5t-20.5 -24.5q-6 -14 -8 -34.5t-2 -71.5q0 -50 2 -71t8 -34q14 -33 52 -33q23 0 36 13q10 9 14.5 24z" />
    <glyph glyph-name="dollar.ss06" horiz-adv-x="532" 
d="M512 265.5q4 -23.5 4 -58.5t-4 -59t-14 -46q-22 -47 -68 -76.5t-112 -38.5v-94h-113v95q-65 9 -108 38.5t-63 73.5q-10 22 -14 47.5t-4 66.5h179q0 -29 1.5 -42t5.5 -22q9 -19 25 -28.5t42 -9.5q24 0 40.5 9t23.5 25q4 7 5 17t1 24q0 17 -1.5 26t-5.5 17q-7 16 -23 28
t-35.5 20t-52.5 19l-36 13q-50 19 -86.5 45t-53.5 64q-8 19 -12 41.5t-4 53.5q0 30 4.5 52t13.5 44q19 43 59 70.5t98 36.5v96h113v-95q57 -8 96 -34.5t58 -70.5q11 -22 14.5 -45.5t3.5 -67.5h-167q0 27 -1.5 41t-6.5 25q-8 16 -22 24t-36 8t-37 -8.5t-21 -23.5
q-3 -7 -4 -14.5t-1 -20.5q0 -12 1 -21.5t5 -17.5q6 -14 20 -23.5t36.5 -18t46.5 -15.5l35 -11q66 -24 105 -49t57 -66q9 -20 13 -43.5z" />
    <glyph glyph-name="paragraph.ss07" horiz-adv-x="646" 
d="M255 270h-44q-139 0 -181 95q-10 21 -14 48.5t-4 75.5q0 47 4 74t14 48q22 48 69 71.5t121 23.5h420v-126h-55v-771h-133v771h-66v-771h-131v461zM255 395v187h-35q-29 0 -44 -6.5t-23 -24.5q-4 -11 -6 -24t-2 -38q0 -27 1.5 -40t6.5 -22q8 -18 23.5 -25t42.5 -7h36z" />
    <glyph glyph-name="caroncomb.alt" 
d="M-108 706h118l-35 -166h-103z" />
    <glyph glyph-name="uni0335.Eth" 
d="M-321 415h321v-106h-321v106z" />
    <glyph glyph-name="uni0335.Tbar" 
d="M-394 385h344v-102h-344v102z" />
    <glyph glyph-name="caron.alt" horiz-adv-x="238" 
d="M70 706h118l-35 -166h-103z" />
    <glyph glyph-name="uni0308.case" 
d="M-375 768q-21 20 -21 51t21 51t53 20t52.5 -20t20.5 -51t-20.5 -51t-52.5 -20t-53 20zM-176 768q-21 20 -21 51t21 51t53 20t53 -20t21 -51t-21 -51t-53 -20t-53 20z" />
    <glyph glyph-name="uni0307.case" 
d="M-185.5 769.5q-22.5 21.5 -22.5 54.5t22.5 53.5t56.5 20.5t56.5 -20.5t22.5 -53.5t-22.5 -54.5t-56.5 -21.5t-56.5 21.5z" />
    <glyph glyph-name="gravecomb.case" 
d="M-184 749l-100 132h149l85 -132h-134z" />
    <glyph glyph-name="acutecomb.case" 
d="M-199 881h149l-99 -132h-135z" />
    <glyph glyph-name="uni030B.case" 
d="M-337 881h122l-104 -132h-99zM-173 881h123l-104 -132h-100z" />
    <glyph glyph-name="uni0302.case" 
d="M-307 881h167l90 -132h-129l-45 66l-45 -66h-128z" />
    <glyph glyph-name="uni030C.case" 
d="M-140 749h-167l-90 132h129l45 -66l45 66h128z" />
    <glyph glyph-name="uni0306.case" 
d="M-326 777q-41 35 -45 104h102q4 -30 18.5 -43.5t41.5 -13.5q28 0 42.5 13t20.5 44h96q-3 -69 -43.5 -104t-115.5 -35q-76 0 -117 35z" />
    <glyph glyph-name="uni030A.case" 
d="M-242.5 741.5q-28.5 14.5 -44 40.5t-15.5 60q0 35 15.5 61t44 40t65.5 14q38 0 67 -14.5t44.5 -40.5t15.5 -60t-16 -60t-44.5 -40.5t-66.5 -14.5q-37 0 -65.5 14.5zM-144 811q12 12 12 31q0 20 -12 32t-33 12q-19 0 -31 -12t-12 -32q0 -19 12 -31t31 -12q21 0 33 12z" />
    <glyph glyph-name="tildecomb.case" 
d="M-185 752q-18 6 -39 16q-7 3 -19.5 9.5t-21.5 9.5t-17 3q-30 0 -33 -43h-79q2 68 25.5 101.5t73.5 33.5q23 0 39.5 -6.5t39.5 -20.5q15 -9 26 -13t23 -4q16 0 23.5 10t12.5 33h81q-3 -135 -97 -135q-20 0 -38 6z" />
    <glyph glyph-name="uni0304.case" 
d="M-336 864h286v-95h-286v95z" />
    <glyph glyph-name="uni0337.case" 
d="M0 554v-125l-189 -128v27l-126 -85v123l126 86v-27z" />
    <glyph glyph-name="uni0338.case" 
d="M-548 179h10l306 404l2 -5l109 128h81l-160 -188l-5 4l-307 -405l-8 1l-97 -118h-81z" />
    <glyph glyph-name="uni0308.narrow.case" 
d="M-332.5 767.5q-19.5 20.5 -19.5 50.5q0 31 19.5 51t49.5 20q31 0 50.5 -20t19.5 -51q0 -30 -20 -50.5t-50 -20.5t-49.5 20.5zM-170 767q-20 20 -20 50q0 32 20 52t50 20t50 -20t20 -52q0 -30 -20 -50t-50 -20t-50 20z" />
    <glyph glyph-name="uni0302.narrow.case" 
d="M-288 881h162l76 -132h-121l-35 66l-35 -66h-122z" />
    <glyph glyph-name="uni0306.narrow.case" 
d="M-296 778q-36 35 -35 103h98q2 -32 11.5 -44.5t31.5 -12.5q21 0 31 13t11 44h98q0 -69 -35.5 -103.5t-104.5 -34.5q-70 0 -106 35z" />
    <glyph glyph-name="tildecomb.narrow.case" 
d="M-166 752q-12 5 -28 16q-17 12 -25.5 16.5t-17.5 4.5q-12 0 -18 -10t-8 -31h-72q3 133 87 133q20 0 33 -6.5t28 -18.5q3 -2 11 -7.5t13 -7.5t10 -2q13 0 19 9.5t10 32.5h74q-1 -70 -22.5 -102t-63.5 -32q-18 0 -30 5z" />
    <glyph glyph-name="uni0304.narrow.case" 
d="M-293 863h243v-94h-243v94z" />
    <glyph glyph-name="uni0335.dh" 
d="M-336 380h336v-88h-336v88z" />
    <glyph glyph-name="uni0307.i" 
d="M-186.5 577q-22.5 21 -22.5 55t22.5 55t57.5 21t57 -21t22 -55t-22 -55t-57 -21t-57.5 21z" />
    <glyph glyph-name="uni0308.narrow" 
d="M-299 577q-17 19 -17 51t17 51t46 19t46 -19t17 -51t-17 -51t-46 -19t-46 19zM-159 577q-17 19 -17 51t17 51t46 19t46 -19t17 -51t-17 -51t-46 -19t-46 19z" />
    <glyph glyph-name="gravecomb.narrow" 
d="M-172 556l-83 149h142l63 -149h-122z" />
    <glyph glyph-name="acutecomb.narrow" 
d="M-192 705h142l-83 -149h-122z" />
    <glyph glyph-name="uni0302.narrow" 
d="M-253 706h139l64 -151h-102l-32 81l-33 -81h-102z" />
    <glyph glyph-name="uni030C.narrow" 
d="M-225 706l33 -81l32 81h102l-64 -151h-139l-66 151h102z" />
    <glyph glyph-name="uni0306.narrow" 
d="M-311 706h91q0 -29 4 -45t12.5 -22t22.5 -6q21 0 30.5 15.5t8.5 57.5h92q-1 -80 -33 -119.5t-98 -39.5q-131 0 -130 159z" />
    <glyph glyph-name="tildecomb.narrow" 
d="M-164.5 563q-13.5 9 -27.5 25q-8 10 -13.5 14.5t-12.5 4.5q-12 0 -16 -11.5t-5 -39.5h-76q1 53 8 86t23.5 49.5t46.5 16.5q23 0 37 -9t27 -26q9 -10 14 -14t12 -4q12 0 16 11.5t5 39.5h76q-1 -53 -8 -86t-23.5 -49.5t-46.5 -16.5q-23 0 -36.5 9z" />
    <glyph glyph-name="uni0304.narrow" 
d="M-282 674h232v-97h-232v97z" />
    <glyph glyph-name="uni0328.narrow" 
d="M-190.5 -181q-28.5 22 -28.5 62q0 39 19 68t53 53l95 -2q-26 -27 -38.5 -47.5t-12.5 -43.5q0 -12 7 -18t18 -6q13 0 27 8v-84q-28 -12 -63 -12q-48 0 -76.5 22z" />
    <glyph glyph-name="uni0338.ss04" 
d="M-193 473l64 109l108 -57l-114 -179zM-469 -19l111 175l58 -130l-61 -102z" />
    <glyph glyph-name="uni0338.case.ss04" 
d="M-205 664l90 125l111 -77l-140 -187zM-622 -6l153 204l89 -101l-133 -182z" />
    </font>
</defs>
</svg>
